G04 #@! TF.GenerationSoftware,KiCad,Pcbnew,5.1.5+dfsg1-2build2*
G04 #@! TF.CreationDate,2022-02-25T13:27:02+02:00*
G04 #@! TF.ProjectId,relayctl-hat,72656c61-7963-4746-9c2d-6861742e6b69,rev?*
G04 #@! TF.SameCoordinates,Original*
G04 #@! TF.FileFunction,Soldermask,Bot*
G04 #@! TF.FilePolarity,Negative*
%FSLAX46Y46*%
G04 Gerber Fmt 4.6, Leading zero omitted, Abs format (unit mm)*
G04 Created by KiCad (PCBNEW 5.1.5+dfsg1-2build2) date 2022-02-25 13:27:02*
%MOMM*%
%LPD*%
G04 APERTURE LIST*
%ADD10C,0.100000*%
G04 APERTURE END LIST*
D10*
G36*
X142445949Y-178438800D02*
G01*
X142705463Y-178546294D01*
X142705464Y-178546295D01*
X142939022Y-178702353D01*
X143137647Y-178900978D01*
X143137648Y-178900980D01*
X143293706Y-179134537D01*
X143401200Y-179394051D01*
X143456000Y-179669550D01*
X143456000Y-179950450D01*
X143401200Y-180225949D01*
X143293706Y-180485463D01*
X143293705Y-180485464D01*
X143137647Y-180719022D01*
X142939022Y-180917647D01*
X142821450Y-180996206D01*
X142705463Y-181073706D01*
X142445949Y-181181200D01*
X142170450Y-181236000D01*
X141889550Y-181236000D01*
X141614051Y-181181200D01*
X141354537Y-181073706D01*
X141238550Y-180996206D01*
X141120978Y-180917647D01*
X140922353Y-180719022D01*
X140766295Y-180485464D01*
X140766294Y-180485463D01*
X140658800Y-180225949D01*
X140604000Y-179950450D01*
X140604000Y-179669550D01*
X140658800Y-179394051D01*
X140766294Y-179134537D01*
X140922352Y-178900980D01*
X140922353Y-178900978D01*
X141120978Y-178702353D01*
X141354536Y-178546295D01*
X141354537Y-178546294D01*
X141614051Y-178438800D01*
X141889550Y-178384000D01*
X142170450Y-178384000D01*
X142445949Y-178438800D01*
G37*
G36*
X84445949Y-178438800D02*
G01*
X84705463Y-178546294D01*
X84705464Y-178546295D01*
X84939022Y-178702353D01*
X85137647Y-178900978D01*
X85137648Y-178900980D01*
X85293706Y-179134537D01*
X85401200Y-179394051D01*
X85456000Y-179669550D01*
X85456000Y-179950450D01*
X85401200Y-180225949D01*
X85293706Y-180485463D01*
X85293705Y-180485464D01*
X85137647Y-180719022D01*
X84939022Y-180917647D01*
X84821450Y-180996206D01*
X84705463Y-181073706D01*
X84445949Y-181181200D01*
X84170450Y-181236000D01*
X83889550Y-181236000D01*
X83614051Y-181181200D01*
X83354537Y-181073706D01*
X83238550Y-180996206D01*
X83120978Y-180917647D01*
X82922353Y-180719022D01*
X82766295Y-180485464D01*
X82766294Y-180485463D01*
X82658800Y-180225949D01*
X82604000Y-179950450D01*
X82604000Y-179669550D01*
X82658800Y-179394051D01*
X82766294Y-179134537D01*
X82922352Y-178900980D01*
X82922353Y-178900978D01*
X83120978Y-178702353D01*
X83354536Y-178546295D01*
X83354537Y-178546294D01*
X83614051Y-178438800D01*
X83889550Y-178384000D01*
X84170450Y-178384000D01*
X84445949Y-178438800D01*
G37*
G36*
X38861000Y-180111000D02*
G01*
X34799000Y-180111000D01*
X34799000Y-178029000D01*
X38861000Y-178029000D01*
X38861000Y-180111000D01*
G37*
G36*
X64261000Y-180111000D02*
G01*
X60199000Y-180111000D01*
X60199000Y-178029000D01*
X64261000Y-178029000D01*
X64261000Y-180111000D01*
G37*
G36*
X37922112Y-173034021D02*
G01*
X38024072Y-173044063D01*
X38220301Y-173103589D01*
X38220303Y-173103590D01*
X38401145Y-173200252D01*
X38559660Y-173330340D01*
X38689747Y-173488854D01*
X38786411Y-173669699D01*
X38845937Y-173865928D01*
X38866036Y-174070000D01*
X38845937Y-174274072D01*
X38786411Y-174470301D01*
X38786410Y-174470303D01*
X38689748Y-174651145D01*
X38559660Y-174809660D01*
X38401145Y-174939748D01*
X38220303Y-175036410D01*
X38220301Y-175036411D01*
X38024072Y-175095937D01*
X37922112Y-175105979D01*
X37871133Y-175111000D01*
X35788867Y-175111000D01*
X35737888Y-175105979D01*
X35635928Y-175095937D01*
X35439699Y-175036411D01*
X35439697Y-175036410D01*
X35258855Y-174939748D01*
X35100340Y-174809660D01*
X34970252Y-174651145D01*
X34873590Y-174470303D01*
X34873589Y-174470301D01*
X34814063Y-174274072D01*
X34793964Y-174070000D01*
X34814063Y-173865928D01*
X34873589Y-173669699D01*
X34970253Y-173488854D01*
X35100340Y-173330340D01*
X35258855Y-173200252D01*
X35439697Y-173103590D01*
X35439699Y-173103589D01*
X35635928Y-173044063D01*
X35737888Y-173034021D01*
X35788867Y-173029000D01*
X37871133Y-173029000D01*
X37922112Y-173034021D01*
G37*
G36*
X63322112Y-173034021D02*
G01*
X63424072Y-173044063D01*
X63620301Y-173103589D01*
X63620303Y-173103590D01*
X63801145Y-173200252D01*
X63959660Y-173330340D01*
X64089747Y-173488854D01*
X64186411Y-173669699D01*
X64245937Y-173865928D01*
X64266036Y-174070000D01*
X64245937Y-174274072D01*
X64186411Y-174470301D01*
X64186410Y-174470303D01*
X64089748Y-174651145D01*
X63959660Y-174809660D01*
X63801145Y-174939748D01*
X63620303Y-175036410D01*
X63620301Y-175036411D01*
X63424072Y-175095937D01*
X63322112Y-175105979D01*
X63271133Y-175111000D01*
X61188867Y-175111000D01*
X61137888Y-175105979D01*
X61035928Y-175095937D01*
X60839699Y-175036411D01*
X60839697Y-175036410D01*
X60658855Y-174939748D01*
X60500340Y-174809660D01*
X60370252Y-174651145D01*
X60273590Y-174470303D01*
X60273589Y-174470301D01*
X60214063Y-174274072D01*
X60193964Y-174070000D01*
X60214063Y-173865928D01*
X60273589Y-173669699D01*
X60370253Y-173488854D01*
X60500340Y-173330340D01*
X60658855Y-173200252D01*
X60839697Y-173103590D01*
X60839699Y-173103589D01*
X61035928Y-173044063D01*
X61137888Y-173034021D01*
X61188867Y-173029000D01*
X63271133Y-173029000D01*
X63322112Y-173034021D01*
G37*
G36*
X38861000Y-159791000D02*
G01*
X34799000Y-159791000D01*
X34799000Y-157709000D01*
X38861000Y-157709000D01*
X38861000Y-159791000D01*
G37*
G36*
X64261000Y-159791000D02*
G01*
X60199000Y-159791000D01*
X60199000Y-157709000D01*
X64261000Y-157709000D01*
X64261000Y-159791000D01*
G37*
G36*
X37922112Y-152714021D02*
G01*
X38024072Y-152724063D01*
X38220301Y-152783589D01*
X38220303Y-152783590D01*
X38401145Y-152880252D01*
X38559660Y-153010340D01*
X38689747Y-153168854D01*
X38786411Y-153349699D01*
X38845937Y-153545928D01*
X38866036Y-153750000D01*
X38845937Y-153954072D01*
X38786411Y-154150301D01*
X38786410Y-154150303D01*
X38689748Y-154331145D01*
X38559660Y-154489660D01*
X38401145Y-154619748D01*
X38220303Y-154716410D01*
X38220301Y-154716411D01*
X38024072Y-154775937D01*
X37922112Y-154785979D01*
X37871133Y-154791000D01*
X35788867Y-154791000D01*
X35737888Y-154785979D01*
X35635928Y-154775937D01*
X35439699Y-154716411D01*
X35439697Y-154716410D01*
X35258855Y-154619748D01*
X35100340Y-154489660D01*
X34970252Y-154331145D01*
X34873590Y-154150303D01*
X34873589Y-154150301D01*
X34814063Y-153954072D01*
X34793964Y-153750000D01*
X34814063Y-153545928D01*
X34873589Y-153349699D01*
X34970253Y-153168854D01*
X35100340Y-153010340D01*
X35258855Y-152880252D01*
X35439697Y-152783590D01*
X35439699Y-152783589D01*
X35635928Y-152724063D01*
X35737888Y-152714021D01*
X35788867Y-152709000D01*
X37871133Y-152709000D01*
X37922112Y-152714021D01*
G37*
G36*
X63322112Y-152714021D02*
G01*
X63424072Y-152724063D01*
X63620301Y-152783589D01*
X63620303Y-152783590D01*
X63801145Y-152880252D01*
X63959660Y-153010340D01*
X64089747Y-153168854D01*
X64186411Y-153349699D01*
X64245937Y-153545928D01*
X64266036Y-153750000D01*
X64245937Y-153954072D01*
X64186411Y-154150301D01*
X64186410Y-154150303D01*
X64089748Y-154331145D01*
X63959660Y-154489660D01*
X63801145Y-154619748D01*
X63620303Y-154716410D01*
X63620301Y-154716411D01*
X63424072Y-154775937D01*
X63322112Y-154785979D01*
X63271133Y-154791000D01*
X61188867Y-154791000D01*
X61137888Y-154785979D01*
X61035928Y-154775937D01*
X60839699Y-154716411D01*
X60839697Y-154716410D01*
X60658855Y-154619748D01*
X60500340Y-154489660D01*
X60370252Y-154331145D01*
X60273590Y-154150303D01*
X60273589Y-154150301D01*
X60214063Y-153954072D01*
X60193964Y-153750000D01*
X60214063Y-153545928D01*
X60273589Y-153349699D01*
X60370253Y-153168854D01*
X60500340Y-153010340D01*
X60658855Y-152880252D01*
X60839697Y-152783590D01*
X60839699Y-152783589D01*
X61035928Y-152724063D01*
X61137888Y-152714021D01*
X61188867Y-152709000D01*
X63271133Y-152709000D01*
X63322112Y-152714021D01*
G37*
G36*
X185799487Y-142258996D02*
G01*
X186036253Y-142357068D01*
X186036255Y-142357069D01*
X186249339Y-142499447D01*
X186430553Y-142680661D01*
X186572932Y-142893747D01*
X186671004Y-143130513D01*
X186721000Y-143381861D01*
X186721000Y-143638139D01*
X186671004Y-143889487D01*
X186572932Y-144126253D01*
X186572931Y-144126255D01*
X186430553Y-144339339D01*
X186249339Y-144520553D01*
X186036255Y-144662931D01*
X186036254Y-144662932D01*
X186036253Y-144662932D01*
X185799487Y-144761004D01*
X185548139Y-144811000D01*
X185291861Y-144811000D01*
X185040513Y-144761004D01*
X184803747Y-144662932D01*
X184803746Y-144662932D01*
X184803745Y-144662931D01*
X184590661Y-144520553D01*
X184409447Y-144339339D01*
X184267069Y-144126255D01*
X184267068Y-144126253D01*
X184168996Y-143889487D01*
X184119000Y-143638139D01*
X184119000Y-143381861D01*
X184168996Y-143130513D01*
X184267068Y-142893747D01*
X184409447Y-142680661D01*
X184590661Y-142499447D01*
X184803745Y-142357069D01*
X184803747Y-142357068D01*
X185040513Y-142258996D01*
X185291861Y-142209000D01*
X185548139Y-142209000D01*
X185799487Y-142258996D01*
G37*
G36*
X38861000Y-139471000D02*
G01*
X34799000Y-139471000D01*
X34799000Y-137389000D01*
X38861000Y-137389000D01*
X38861000Y-139471000D01*
G37*
G36*
X64261000Y-139471000D02*
G01*
X60199000Y-139471000D01*
X60199000Y-137389000D01*
X64261000Y-137389000D01*
X64261000Y-139471000D01*
G37*
G36*
X186721000Y-134651000D02*
G01*
X184119000Y-134651000D01*
X184119000Y-132049000D01*
X186721000Y-132049000D01*
X186721000Y-134651000D01*
G37*
G36*
X37922112Y-132394021D02*
G01*
X38024072Y-132404063D01*
X38220301Y-132463589D01*
X38220303Y-132463590D01*
X38401145Y-132560252D01*
X38559660Y-132690340D01*
X38689748Y-132848855D01*
X38754723Y-132970415D01*
X38786411Y-133029699D01*
X38845937Y-133225928D01*
X38866036Y-133430000D01*
X38845937Y-133634072D01*
X38786411Y-133830301D01*
X38786410Y-133830303D01*
X38689748Y-134011145D01*
X38559660Y-134169660D01*
X38401145Y-134299748D01*
X38220303Y-134396410D01*
X38220301Y-134396411D01*
X38024072Y-134455937D01*
X37922112Y-134465979D01*
X37871133Y-134471000D01*
X35788867Y-134471000D01*
X35737888Y-134465979D01*
X35635928Y-134455937D01*
X35439699Y-134396411D01*
X35439697Y-134396410D01*
X35258855Y-134299748D01*
X35100340Y-134169660D01*
X34970252Y-134011145D01*
X34873590Y-133830303D01*
X34873589Y-133830301D01*
X34814063Y-133634072D01*
X34793964Y-133430000D01*
X34814063Y-133225928D01*
X34873589Y-133029699D01*
X34905277Y-132970415D01*
X34970252Y-132848855D01*
X35100340Y-132690340D01*
X35258855Y-132560252D01*
X35439697Y-132463590D01*
X35439699Y-132463589D01*
X35635928Y-132404063D01*
X35737888Y-132394021D01*
X35788867Y-132389000D01*
X37871133Y-132389000D01*
X37922112Y-132394021D01*
G37*
G36*
X63322112Y-132394021D02*
G01*
X63424072Y-132404063D01*
X63620301Y-132463589D01*
X63620303Y-132463590D01*
X63801145Y-132560252D01*
X63959660Y-132690340D01*
X64089748Y-132848855D01*
X64154723Y-132970415D01*
X64186411Y-133029699D01*
X64245937Y-133225928D01*
X64266036Y-133430000D01*
X64245937Y-133634072D01*
X64186411Y-133830301D01*
X64186410Y-133830303D01*
X64089748Y-134011145D01*
X63959660Y-134169660D01*
X63801145Y-134299748D01*
X63620303Y-134396410D01*
X63620301Y-134396411D01*
X63424072Y-134455937D01*
X63322112Y-134465979D01*
X63271133Y-134471000D01*
X61188867Y-134471000D01*
X61137888Y-134465979D01*
X61035928Y-134455937D01*
X60839699Y-134396411D01*
X60839697Y-134396410D01*
X60658855Y-134299748D01*
X60500340Y-134169660D01*
X60370252Y-134011145D01*
X60273590Y-133830303D01*
X60273589Y-133830301D01*
X60214063Y-133634072D01*
X60193964Y-133430000D01*
X60214063Y-133225928D01*
X60273589Y-133029699D01*
X60305277Y-132970415D01*
X60370252Y-132848855D01*
X60500340Y-132690340D01*
X60658855Y-132560252D01*
X60839697Y-132463590D01*
X60839699Y-132463589D01*
X61035928Y-132404063D01*
X61137888Y-132394021D01*
X61188867Y-132389000D01*
X63271133Y-132389000D01*
X63322112Y-132394021D01*
G37*
G36*
X122190104Y-131189585D02*
G01*
X122358626Y-131259389D01*
X122510291Y-131360728D01*
X122639272Y-131489709D01*
X122740611Y-131641374D01*
X122810415Y-131809896D01*
X122846000Y-131988797D01*
X122846000Y-132171203D01*
X122810415Y-132350104D01*
X122740611Y-132518626D01*
X122639272Y-132670291D01*
X122510291Y-132799272D01*
X122358626Y-132900611D01*
X122190104Y-132970415D01*
X122011203Y-133006000D01*
X121828797Y-133006000D01*
X121649896Y-132970415D01*
X121481374Y-132900611D01*
X121329709Y-132799272D01*
X121200728Y-132670291D01*
X121099389Y-132518626D01*
X121029585Y-132350104D01*
X120994000Y-132171203D01*
X120994000Y-131988797D01*
X121029585Y-131809896D01*
X121099389Y-131641374D01*
X121200728Y-131489709D01*
X121329709Y-131360728D01*
X121481374Y-131259389D01*
X121649896Y-131189585D01*
X121828797Y-131154000D01*
X122011203Y-131154000D01*
X122190104Y-131189585D01*
G37*
G36*
X124730104Y-131189585D02*
G01*
X124898626Y-131259389D01*
X125050291Y-131360728D01*
X125179272Y-131489709D01*
X125280611Y-131641374D01*
X125350415Y-131809896D01*
X125386000Y-131988797D01*
X125386000Y-132171203D01*
X125350415Y-132350104D01*
X125280611Y-132518626D01*
X125179272Y-132670291D01*
X125050291Y-132799272D01*
X124898626Y-132900611D01*
X124730104Y-132970415D01*
X124551203Y-133006000D01*
X124368797Y-133006000D01*
X124189896Y-132970415D01*
X124021374Y-132900611D01*
X123869709Y-132799272D01*
X123740728Y-132670291D01*
X123639389Y-132518626D01*
X123569585Y-132350104D01*
X123534000Y-132171203D01*
X123534000Y-131988797D01*
X123569585Y-131809896D01*
X123639389Y-131641374D01*
X123740728Y-131489709D01*
X123869709Y-131360728D01*
X124021374Y-131259389D01*
X124189896Y-131189585D01*
X124368797Y-131154000D01*
X124551203Y-131154000D01*
X124730104Y-131189585D01*
G37*
G36*
X117110104Y-131189585D02*
G01*
X117278626Y-131259389D01*
X117430291Y-131360728D01*
X117559272Y-131489709D01*
X117660611Y-131641374D01*
X117730415Y-131809896D01*
X117766000Y-131988797D01*
X117766000Y-132171203D01*
X117730415Y-132350104D01*
X117660611Y-132518626D01*
X117559272Y-132670291D01*
X117430291Y-132799272D01*
X117278626Y-132900611D01*
X117110104Y-132970415D01*
X116931203Y-133006000D01*
X116748797Y-133006000D01*
X116569896Y-132970415D01*
X116401374Y-132900611D01*
X116249709Y-132799272D01*
X116120728Y-132670291D01*
X116019389Y-132518626D01*
X115949585Y-132350104D01*
X115914000Y-132171203D01*
X115914000Y-131988797D01*
X115949585Y-131809896D01*
X116019389Y-131641374D01*
X116120728Y-131489709D01*
X116249709Y-131360728D01*
X116401374Y-131259389D01*
X116569896Y-131189585D01*
X116748797Y-131154000D01*
X116931203Y-131154000D01*
X117110104Y-131189585D01*
G37*
G36*
X129810104Y-131189585D02*
G01*
X129978626Y-131259389D01*
X130130291Y-131360728D01*
X130259272Y-131489709D01*
X130360611Y-131641374D01*
X130430415Y-131809896D01*
X130466000Y-131988797D01*
X130466000Y-132171203D01*
X130430415Y-132350104D01*
X130360611Y-132518626D01*
X130259272Y-132670291D01*
X130130291Y-132799272D01*
X129978626Y-132900611D01*
X129810104Y-132970415D01*
X129631203Y-133006000D01*
X129448797Y-133006000D01*
X129269896Y-132970415D01*
X129101374Y-132900611D01*
X128949709Y-132799272D01*
X128820728Y-132670291D01*
X128719389Y-132518626D01*
X128649585Y-132350104D01*
X128614000Y-132171203D01*
X128614000Y-131988797D01*
X128649585Y-131809896D01*
X128719389Y-131641374D01*
X128820728Y-131489709D01*
X128949709Y-131360728D01*
X129101374Y-131259389D01*
X129269896Y-131189585D01*
X129448797Y-131154000D01*
X129631203Y-131154000D01*
X129810104Y-131189585D01*
G37*
G36*
X89826000Y-133006000D02*
G01*
X87974000Y-133006000D01*
X87974000Y-131154000D01*
X89826000Y-131154000D01*
X89826000Y-133006000D01*
G37*
G36*
X91710104Y-131189585D02*
G01*
X91878626Y-131259389D01*
X92030291Y-131360728D01*
X92159272Y-131489709D01*
X92260611Y-131641374D01*
X92330415Y-131809896D01*
X92366000Y-131988797D01*
X92366000Y-132171203D01*
X92330415Y-132350104D01*
X92260611Y-132518626D01*
X92159272Y-132670291D01*
X92030291Y-132799272D01*
X91878626Y-132900611D01*
X91710104Y-132970415D01*
X91531203Y-133006000D01*
X91348797Y-133006000D01*
X91169896Y-132970415D01*
X91001374Y-132900611D01*
X90849709Y-132799272D01*
X90720728Y-132670291D01*
X90619389Y-132518626D01*
X90549585Y-132350104D01*
X90514000Y-132171203D01*
X90514000Y-131988797D01*
X90549585Y-131809896D01*
X90619389Y-131641374D01*
X90720728Y-131489709D01*
X90849709Y-131360728D01*
X91001374Y-131259389D01*
X91169896Y-131189585D01*
X91348797Y-131154000D01*
X91531203Y-131154000D01*
X91710104Y-131189585D01*
G37*
G36*
X94250104Y-131189585D02*
G01*
X94418626Y-131259389D01*
X94570291Y-131360728D01*
X94699272Y-131489709D01*
X94800611Y-131641374D01*
X94870415Y-131809896D01*
X94906000Y-131988797D01*
X94906000Y-132171203D01*
X94870415Y-132350104D01*
X94800611Y-132518626D01*
X94699272Y-132670291D01*
X94570291Y-132799272D01*
X94418626Y-132900611D01*
X94250104Y-132970415D01*
X94071203Y-133006000D01*
X93888797Y-133006000D01*
X93709896Y-132970415D01*
X93541374Y-132900611D01*
X93389709Y-132799272D01*
X93260728Y-132670291D01*
X93159389Y-132518626D01*
X93089585Y-132350104D01*
X93054000Y-132171203D01*
X93054000Y-131988797D01*
X93089585Y-131809896D01*
X93159389Y-131641374D01*
X93260728Y-131489709D01*
X93389709Y-131360728D01*
X93541374Y-131259389D01*
X93709896Y-131189585D01*
X93888797Y-131154000D01*
X94071203Y-131154000D01*
X94250104Y-131189585D01*
G37*
G36*
X96790104Y-131189585D02*
G01*
X96958626Y-131259389D01*
X97110291Y-131360728D01*
X97239272Y-131489709D01*
X97340611Y-131641374D01*
X97410415Y-131809896D01*
X97446000Y-131988797D01*
X97446000Y-132171203D01*
X97410415Y-132350104D01*
X97340611Y-132518626D01*
X97239272Y-132670291D01*
X97110291Y-132799272D01*
X96958626Y-132900611D01*
X96790104Y-132970415D01*
X96611203Y-133006000D01*
X96428797Y-133006000D01*
X96249896Y-132970415D01*
X96081374Y-132900611D01*
X95929709Y-132799272D01*
X95800728Y-132670291D01*
X95699389Y-132518626D01*
X95629585Y-132350104D01*
X95594000Y-132171203D01*
X95594000Y-131988797D01*
X95629585Y-131809896D01*
X95699389Y-131641374D01*
X95800728Y-131489709D01*
X95929709Y-131360728D01*
X96081374Y-131259389D01*
X96249896Y-131189585D01*
X96428797Y-131154000D01*
X96611203Y-131154000D01*
X96790104Y-131189585D01*
G37*
G36*
X99330104Y-131189585D02*
G01*
X99498626Y-131259389D01*
X99650291Y-131360728D01*
X99779272Y-131489709D01*
X99880611Y-131641374D01*
X99950415Y-131809896D01*
X99986000Y-131988797D01*
X99986000Y-132171203D01*
X99950415Y-132350104D01*
X99880611Y-132518626D01*
X99779272Y-132670291D01*
X99650291Y-132799272D01*
X99498626Y-132900611D01*
X99330104Y-132970415D01*
X99151203Y-133006000D01*
X98968797Y-133006000D01*
X98789896Y-132970415D01*
X98621374Y-132900611D01*
X98469709Y-132799272D01*
X98340728Y-132670291D01*
X98239389Y-132518626D01*
X98169585Y-132350104D01*
X98134000Y-132171203D01*
X98134000Y-131988797D01*
X98169585Y-131809896D01*
X98239389Y-131641374D01*
X98340728Y-131489709D01*
X98469709Y-131360728D01*
X98621374Y-131259389D01*
X98789896Y-131189585D01*
X98968797Y-131154000D01*
X99151203Y-131154000D01*
X99330104Y-131189585D01*
G37*
G36*
X101870104Y-131189585D02*
G01*
X102038626Y-131259389D01*
X102190291Y-131360728D01*
X102319272Y-131489709D01*
X102420611Y-131641374D01*
X102490415Y-131809896D01*
X102526000Y-131988797D01*
X102526000Y-132171203D01*
X102490415Y-132350104D01*
X102420611Y-132518626D01*
X102319272Y-132670291D01*
X102190291Y-132799272D01*
X102038626Y-132900611D01*
X101870104Y-132970415D01*
X101691203Y-133006000D01*
X101508797Y-133006000D01*
X101329896Y-132970415D01*
X101161374Y-132900611D01*
X101009709Y-132799272D01*
X100880728Y-132670291D01*
X100779389Y-132518626D01*
X100709585Y-132350104D01*
X100674000Y-132171203D01*
X100674000Y-131988797D01*
X100709585Y-131809896D01*
X100779389Y-131641374D01*
X100880728Y-131489709D01*
X101009709Y-131360728D01*
X101161374Y-131259389D01*
X101329896Y-131189585D01*
X101508797Y-131154000D01*
X101691203Y-131154000D01*
X101870104Y-131189585D01*
G37*
G36*
X104410104Y-131189585D02*
G01*
X104578626Y-131259389D01*
X104730291Y-131360728D01*
X104859272Y-131489709D01*
X104960611Y-131641374D01*
X105030415Y-131809896D01*
X105066000Y-131988797D01*
X105066000Y-132171203D01*
X105030415Y-132350104D01*
X104960611Y-132518626D01*
X104859272Y-132670291D01*
X104730291Y-132799272D01*
X104578626Y-132900611D01*
X104410104Y-132970415D01*
X104231203Y-133006000D01*
X104048797Y-133006000D01*
X103869896Y-132970415D01*
X103701374Y-132900611D01*
X103549709Y-132799272D01*
X103420728Y-132670291D01*
X103319389Y-132518626D01*
X103249585Y-132350104D01*
X103214000Y-132171203D01*
X103214000Y-131988797D01*
X103249585Y-131809896D01*
X103319389Y-131641374D01*
X103420728Y-131489709D01*
X103549709Y-131360728D01*
X103701374Y-131259389D01*
X103869896Y-131189585D01*
X104048797Y-131154000D01*
X104231203Y-131154000D01*
X104410104Y-131189585D01*
G37*
G36*
X106950104Y-131189585D02*
G01*
X107118626Y-131259389D01*
X107270291Y-131360728D01*
X107399272Y-131489709D01*
X107500611Y-131641374D01*
X107570415Y-131809896D01*
X107606000Y-131988797D01*
X107606000Y-132171203D01*
X107570415Y-132350104D01*
X107500611Y-132518626D01*
X107399272Y-132670291D01*
X107270291Y-132799272D01*
X107118626Y-132900611D01*
X106950104Y-132970415D01*
X106771203Y-133006000D01*
X106588797Y-133006000D01*
X106409896Y-132970415D01*
X106241374Y-132900611D01*
X106089709Y-132799272D01*
X105960728Y-132670291D01*
X105859389Y-132518626D01*
X105789585Y-132350104D01*
X105754000Y-132171203D01*
X105754000Y-131988797D01*
X105789585Y-131809896D01*
X105859389Y-131641374D01*
X105960728Y-131489709D01*
X106089709Y-131360728D01*
X106241374Y-131259389D01*
X106409896Y-131189585D01*
X106588797Y-131154000D01*
X106771203Y-131154000D01*
X106950104Y-131189585D01*
G37*
G36*
X109490104Y-131189585D02*
G01*
X109658626Y-131259389D01*
X109810291Y-131360728D01*
X109939272Y-131489709D01*
X110040611Y-131641374D01*
X110110415Y-131809896D01*
X110146000Y-131988797D01*
X110146000Y-132171203D01*
X110110415Y-132350104D01*
X110040611Y-132518626D01*
X109939272Y-132670291D01*
X109810291Y-132799272D01*
X109658626Y-132900611D01*
X109490104Y-132970415D01*
X109311203Y-133006000D01*
X109128797Y-133006000D01*
X108949896Y-132970415D01*
X108781374Y-132900611D01*
X108629709Y-132799272D01*
X108500728Y-132670291D01*
X108399389Y-132518626D01*
X108329585Y-132350104D01*
X108294000Y-132171203D01*
X108294000Y-131988797D01*
X108329585Y-131809896D01*
X108399389Y-131641374D01*
X108500728Y-131489709D01*
X108629709Y-131360728D01*
X108781374Y-131259389D01*
X108949896Y-131189585D01*
X109128797Y-131154000D01*
X109311203Y-131154000D01*
X109490104Y-131189585D01*
G37*
G36*
X112030104Y-131189585D02*
G01*
X112198626Y-131259389D01*
X112350291Y-131360728D01*
X112479272Y-131489709D01*
X112580611Y-131641374D01*
X112650415Y-131809896D01*
X112686000Y-131988797D01*
X112686000Y-132171203D01*
X112650415Y-132350104D01*
X112580611Y-132518626D01*
X112479272Y-132670291D01*
X112350291Y-132799272D01*
X112198626Y-132900611D01*
X112030104Y-132970415D01*
X111851203Y-133006000D01*
X111668797Y-133006000D01*
X111489896Y-132970415D01*
X111321374Y-132900611D01*
X111169709Y-132799272D01*
X111040728Y-132670291D01*
X110939389Y-132518626D01*
X110869585Y-132350104D01*
X110834000Y-132171203D01*
X110834000Y-131988797D01*
X110869585Y-131809896D01*
X110939389Y-131641374D01*
X111040728Y-131489709D01*
X111169709Y-131360728D01*
X111321374Y-131259389D01*
X111489896Y-131189585D01*
X111668797Y-131154000D01*
X111851203Y-131154000D01*
X112030104Y-131189585D01*
G37*
G36*
X114570104Y-131189585D02*
G01*
X114738626Y-131259389D01*
X114890291Y-131360728D01*
X115019272Y-131489709D01*
X115120611Y-131641374D01*
X115190415Y-131809896D01*
X115226000Y-131988797D01*
X115226000Y-132171203D01*
X115190415Y-132350104D01*
X115120611Y-132518626D01*
X115019272Y-132670291D01*
X114890291Y-132799272D01*
X114738626Y-132900611D01*
X114570104Y-132970415D01*
X114391203Y-133006000D01*
X114208797Y-133006000D01*
X114029896Y-132970415D01*
X113861374Y-132900611D01*
X113709709Y-132799272D01*
X113580728Y-132670291D01*
X113479389Y-132518626D01*
X113409585Y-132350104D01*
X113374000Y-132171203D01*
X113374000Y-131988797D01*
X113409585Y-131809896D01*
X113479389Y-131641374D01*
X113580728Y-131489709D01*
X113709709Y-131360728D01*
X113861374Y-131259389D01*
X114029896Y-131189585D01*
X114208797Y-131154000D01*
X114391203Y-131154000D01*
X114570104Y-131189585D01*
G37*
G36*
X119650104Y-131189585D02*
G01*
X119818626Y-131259389D01*
X119970291Y-131360728D01*
X120099272Y-131489709D01*
X120200611Y-131641374D01*
X120270415Y-131809896D01*
X120306000Y-131988797D01*
X120306000Y-132171203D01*
X120270415Y-132350104D01*
X120200611Y-132518626D01*
X120099272Y-132670291D01*
X119970291Y-132799272D01*
X119818626Y-132900611D01*
X119650104Y-132970415D01*
X119471203Y-133006000D01*
X119288797Y-133006000D01*
X119109896Y-132970415D01*
X118941374Y-132900611D01*
X118789709Y-132799272D01*
X118660728Y-132670291D01*
X118559389Y-132518626D01*
X118489585Y-132350104D01*
X118454000Y-132171203D01*
X118454000Y-131988797D01*
X118489585Y-131809896D01*
X118559389Y-131641374D01*
X118660728Y-131489709D01*
X118789709Y-131360728D01*
X118941374Y-131259389D01*
X119109896Y-131189585D01*
X119288797Y-131154000D01*
X119471203Y-131154000D01*
X119650104Y-131189585D01*
G37*
G36*
X127270104Y-131189585D02*
G01*
X127438626Y-131259389D01*
X127590291Y-131360728D01*
X127719272Y-131489709D01*
X127820611Y-131641374D01*
X127890415Y-131809896D01*
X127926000Y-131988797D01*
X127926000Y-132171203D01*
X127890415Y-132350104D01*
X127820611Y-132518626D01*
X127719272Y-132670291D01*
X127590291Y-132799272D01*
X127438626Y-132900611D01*
X127270104Y-132970415D01*
X127091203Y-133006000D01*
X126908797Y-133006000D01*
X126729896Y-132970415D01*
X126561374Y-132900611D01*
X126409709Y-132799272D01*
X126280728Y-132670291D01*
X126179389Y-132518626D01*
X126109585Y-132350104D01*
X126074000Y-132171203D01*
X126074000Y-131988797D01*
X126109585Y-131809896D01*
X126179389Y-131641374D01*
X126280728Y-131489709D01*
X126409709Y-131360728D01*
X126561374Y-131259389D01*
X126729896Y-131189585D01*
X126908797Y-131154000D01*
X127091203Y-131154000D01*
X127270104Y-131189585D01*
G37*
G36*
X132350104Y-131189585D02*
G01*
X132518626Y-131259389D01*
X132670291Y-131360728D01*
X132799272Y-131489709D01*
X132900611Y-131641374D01*
X132970415Y-131809896D01*
X133006000Y-131988797D01*
X133006000Y-132171203D01*
X132970415Y-132350104D01*
X132900611Y-132518626D01*
X132799272Y-132670291D01*
X132670291Y-132799272D01*
X132518626Y-132900611D01*
X132350104Y-132970415D01*
X132171203Y-133006000D01*
X131988797Y-133006000D01*
X131809896Y-132970415D01*
X131641374Y-132900611D01*
X131489709Y-132799272D01*
X131360728Y-132670291D01*
X131259389Y-132518626D01*
X131189585Y-132350104D01*
X131154000Y-132171203D01*
X131154000Y-131988797D01*
X131189585Y-131809896D01*
X131259389Y-131641374D01*
X131360728Y-131489709D01*
X131489709Y-131360728D01*
X131641374Y-131259389D01*
X131809896Y-131189585D01*
X131988797Y-131154000D01*
X132171203Y-131154000D01*
X132350104Y-131189585D01*
G37*
G36*
X137430104Y-131189585D02*
G01*
X137598626Y-131259389D01*
X137750291Y-131360728D01*
X137879272Y-131489709D01*
X137980611Y-131641374D01*
X138050415Y-131809896D01*
X138086000Y-131988797D01*
X138086000Y-132171203D01*
X138050415Y-132350104D01*
X137980611Y-132518626D01*
X137879272Y-132670291D01*
X137750291Y-132799272D01*
X137598626Y-132900611D01*
X137430104Y-132970415D01*
X137251203Y-133006000D01*
X137068797Y-133006000D01*
X136889896Y-132970415D01*
X136721374Y-132900611D01*
X136569709Y-132799272D01*
X136440728Y-132670291D01*
X136339389Y-132518626D01*
X136269585Y-132350104D01*
X136234000Y-132171203D01*
X136234000Y-131988797D01*
X136269585Y-131809896D01*
X136339389Y-131641374D01*
X136440728Y-131489709D01*
X136569709Y-131360728D01*
X136721374Y-131259389D01*
X136889896Y-131189585D01*
X137068797Y-131154000D01*
X137251203Y-131154000D01*
X137430104Y-131189585D01*
G37*
G36*
X134890104Y-131189585D02*
G01*
X135058626Y-131259389D01*
X135210291Y-131360728D01*
X135339272Y-131489709D01*
X135440611Y-131641374D01*
X135510415Y-131809896D01*
X135546000Y-131988797D01*
X135546000Y-132171203D01*
X135510415Y-132350104D01*
X135440611Y-132518626D01*
X135339272Y-132670291D01*
X135210291Y-132799272D01*
X135058626Y-132900611D01*
X134890104Y-132970415D01*
X134711203Y-133006000D01*
X134528797Y-133006000D01*
X134349896Y-132970415D01*
X134181374Y-132900611D01*
X134029709Y-132799272D01*
X133900728Y-132670291D01*
X133799389Y-132518626D01*
X133729585Y-132350104D01*
X133694000Y-132171203D01*
X133694000Y-131988797D01*
X133729585Y-131809896D01*
X133799389Y-131641374D01*
X133900728Y-131489709D01*
X134029709Y-131360728D01*
X134181374Y-131259389D01*
X134349896Y-131189585D01*
X134528797Y-131154000D01*
X134711203Y-131154000D01*
X134890104Y-131189585D01*
G37*
G36*
X84445949Y-129438800D02*
G01*
X84705463Y-129546294D01*
X84705464Y-129546295D01*
X84939022Y-129702353D01*
X85137647Y-129900978D01*
X85216206Y-130018550D01*
X85293706Y-130134537D01*
X85401200Y-130394051D01*
X85456000Y-130669550D01*
X85456000Y-130950450D01*
X85401200Y-131225949D01*
X85293706Y-131485463D01*
X85293705Y-131485464D01*
X85137647Y-131719022D01*
X84939022Y-131917647D01*
X84832538Y-131988797D01*
X84705463Y-132073706D01*
X84445949Y-132181200D01*
X84170450Y-132236000D01*
X83889550Y-132236000D01*
X83614051Y-132181200D01*
X83354537Y-132073706D01*
X83227462Y-131988797D01*
X83120978Y-131917647D01*
X82922353Y-131719022D01*
X82766295Y-131485464D01*
X82766294Y-131485463D01*
X82658800Y-131225949D01*
X82604000Y-130950450D01*
X82604000Y-130669550D01*
X82658800Y-130394051D01*
X82766294Y-130134537D01*
X82843794Y-130018550D01*
X82922353Y-129900978D01*
X83120978Y-129702353D01*
X83354536Y-129546295D01*
X83354537Y-129546294D01*
X83614051Y-129438800D01*
X83889550Y-129384000D01*
X84170450Y-129384000D01*
X84445949Y-129438800D01*
G37*
G36*
X142445949Y-129438800D02*
G01*
X142705463Y-129546294D01*
X142705464Y-129546295D01*
X142939022Y-129702353D01*
X143137647Y-129900978D01*
X143216206Y-130018550D01*
X143293706Y-130134537D01*
X143401200Y-130394051D01*
X143456000Y-130669550D01*
X143456000Y-130950450D01*
X143401200Y-131225949D01*
X143293706Y-131485463D01*
X143293705Y-131485464D01*
X143137647Y-131719022D01*
X142939022Y-131917647D01*
X142832538Y-131988797D01*
X142705463Y-132073706D01*
X142445949Y-132181200D01*
X142170450Y-132236000D01*
X141889550Y-132236000D01*
X141614051Y-132181200D01*
X141354537Y-132073706D01*
X141227462Y-131988797D01*
X141120978Y-131917647D01*
X140922353Y-131719022D01*
X140766295Y-131485464D01*
X140766294Y-131485463D01*
X140658800Y-131225949D01*
X140604000Y-130950450D01*
X140604000Y-130669550D01*
X140658800Y-130394051D01*
X140766294Y-130134537D01*
X140843794Y-130018550D01*
X140922353Y-129900978D01*
X141120978Y-129702353D01*
X141354536Y-129546295D01*
X141354537Y-129546294D01*
X141614051Y-129438800D01*
X141889550Y-129384000D01*
X142170450Y-129384000D01*
X142445949Y-129438800D01*
G37*
G36*
X114570104Y-128649585D02*
G01*
X114738626Y-128719389D01*
X114890291Y-128820728D01*
X115019272Y-128949709D01*
X115120611Y-129101374D01*
X115190415Y-129269896D01*
X115226000Y-129448797D01*
X115226000Y-129631203D01*
X115190415Y-129810104D01*
X115120611Y-129978626D01*
X115019272Y-130130291D01*
X114890291Y-130259272D01*
X114738626Y-130360611D01*
X114570104Y-130430415D01*
X114391203Y-130466000D01*
X114208797Y-130466000D01*
X114029896Y-130430415D01*
X113861374Y-130360611D01*
X113709709Y-130259272D01*
X113580728Y-130130291D01*
X113479389Y-129978626D01*
X113409585Y-129810104D01*
X113374000Y-129631203D01*
X113374000Y-129448797D01*
X113409585Y-129269896D01*
X113479389Y-129101374D01*
X113580728Y-128949709D01*
X113709709Y-128820728D01*
X113861374Y-128719389D01*
X114029896Y-128649585D01*
X114208797Y-128614000D01*
X114391203Y-128614000D01*
X114570104Y-128649585D01*
G37*
G36*
X91710104Y-128649585D02*
G01*
X91878626Y-128719389D01*
X92030291Y-128820728D01*
X92159272Y-128949709D01*
X92260611Y-129101374D01*
X92330415Y-129269896D01*
X92366000Y-129448797D01*
X92366000Y-129631203D01*
X92330415Y-129810104D01*
X92260611Y-129978626D01*
X92159272Y-130130291D01*
X92030291Y-130259272D01*
X91878626Y-130360611D01*
X91710104Y-130430415D01*
X91531203Y-130466000D01*
X91348797Y-130466000D01*
X91169896Y-130430415D01*
X91001374Y-130360611D01*
X90849709Y-130259272D01*
X90720728Y-130130291D01*
X90619389Y-129978626D01*
X90549585Y-129810104D01*
X90514000Y-129631203D01*
X90514000Y-129448797D01*
X90549585Y-129269896D01*
X90619389Y-129101374D01*
X90720728Y-128949709D01*
X90849709Y-128820728D01*
X91001374Y-128719389D01*
X91169896Y-128649585D01*
X91348797Y-128614000D01*
X91531203Y-128614000D01*
X91710104Y-128649585D01*
G37*
G36*
X101870104Y-128649585D02*
G01*
X102038626Y-128719389D01*
X102190291Y-128820728D01*
X102319272Y-128949709D01*
X102420611Y-129101374D01*
X102490415Y-129269896D01*
X102526000Y-129448797D01*
X102526000Y-129631203D01*
X102490415Y-129810104D01*
X102420611Y-129978626D01*
X102319272Y-130130291D01*
X102190291Y-130259272D01*
X102038626Y-130360611D01*
X101870104Y-130430415D01*
X101691203Y-130466000D01*
X101508797Y-130466000D01*
X101329896Y-130430415D01*
X101161374Y-130360611D01*
X101009709Y-130259272D01*
X100880728Y-130130291D01*
X100779389Y-129978626D01*
X100709585Y-129810104D01*
X100674000Y-129631203D01*
X100674000Y-129448797D01*
X100709585Y-129269896D01*
X100779389Y-129101374D01*
X100880728Y-128949709D01*
X101009709Y-128820728D01*
X101161374Y-128719389D01*
X101329896Y-128649585D01*
X101508797Y-128614000D01*
X101691203Y-128614000D01*
X101870104Y-128649585D01*
G37*
G36*
X99330104Y-128649585D02*
G01*
X99498626Y-128719389D01*
X99650291Y-128820728D01*
X99779272Y-128949709D01*
X99880611Y-129101374D01*
X99950415Y-129269896D01*
X99986000Y-129448797D01*
X99986000Y-129631203D01*
X99950415Y-129810104D01*
X99880611Y-129978626D01*
X99779272Y-130130291D01*
X99650291Y-130259272D01*
X99498626Y-130360611D01*
X99330104Y-130430415D01*
X99151203Y-130466000D01*
X98968797Y-130466000D01*
X98789896Y-130430415D01*
X98621374Y-130360611D01*
X98469709Y-130259272D01*
X98340728Y-130130291D01*
X98239389Y-129978626D01*
X98169585Y-129810104D01*
X98134000Y-129631203D01*
X98134000Y-129448797D01*
X98169585Y-129269896D01*
X98239389Y-129101374D01*
X98340728Y-128949709D01*
X98469709Y-128820728D01*
X98621374Y-128719389D01*
X98789896Y-128649585D01*
X98968797Y-128614000D01*
X99151203Y-128614000D01*
X99330104Y-128649585D01*
G37*
G36*
X96790104Y-128649585D02*
G01*
X96958626Y-128719389D01*
X97110291Y-128820728D01*
X97239272Y-128949709D01*
X97340611Y-129101374D01*
X97410415Y-129269896D01*
X97446000Y-129448797D01*
X97446000Y-129631203D01*
X97410415Y-129810104D01*
X97340611Y-129978626D01*
X97239272Y-130130291D01*
X97110291Y-130259272D01*
X96958626Y-130360611D01*
X96790104Y-130430415D01*
X96611203Y-130466000D01*
X96428797Y-130466000D01*
X96249896Y-130430415D01*
X96081374Y-130360611D01*
X95929709Y-130259272D01*
X95800728Y-130130291D01*
X95699389Y-129978626D01*
X95629585Y-129810104D01*
X95594000Y-129631203D01*
X95594000Y-129448797D01*
X95629585Y-129269896D01*
X95699389Y-129101374D01*
X95800728Y-128949709D01*
X95929709Y-128820728D01*
X96081374Y-128719389D01*
X96249896Y-128649585D01*
X96428797Y-128614000D01*
X96611203Y-128614000D01*
X96790104Y-128649585D01*
G37*
G36*
X94250104Y-128649585D02*
G01*
X94418626Y-128719389D01*
X94570291Y-128820728D01*
X94699272Y-128949709D01*
X94800611Y-129101374D01*
X94870415Y-129269896D01*
X94906000Y-129448797D01*
X94906000Y-129631203D01*
X94870415Y-129810104D01*
X94800611Y-129978626D01*
X94699272Y-130130291D01*
X94570291Y-130259272D01*
X94418626Y-130360611D01*
X94250104Y-130430415D01*
X94071203Y-130466000D01*
X93888797Y-130466000D01*
X93709896Y-130430415D01*
X93541374Y-130360611D01*
X93389709Y-130259272D01*
X93260728Y-130130291D01*
X93159389Y-129978626D01*
X93089585Y-129810104D01*
X93054000Y-129631203D01*
X93054000Y-129448797D01*
X93089585Y-129269896D01*
X93159389Y-129101374D01*
X93260728Y-128949709D01*
X93389709Y-128820728D01*
X93541374Y-128719389D01*
X93709896Y-128649585D01*
X93888797Y-128614000D01*
X94071203Y-128614000D01*
X94250104Y-128649585D01*
G37*
G36*
X89170104Y-128649585D02*
G01*
X89338626Y-128719389D01*
X89490291Y-128820728D01*
X89619272Y-128949709D01*
X89720611Y-129101374D01*
X89790415Y-129269896D01*
X89826000Y-129448797D01*
X89826000Y-129631203D01*
X89790415Y-129810104D01*
X89720611Y-129978626D01*
X89619272Y-130130291D01*
X89490291Y-130259272D01*
X89338626Y-130360611D01*
X89170104Y-130430415D01*
X88991203Y-130466000D01*
X88808797Y-130466000D01*
X88629896Y-130430415D01*
X88461374Y-130360611D01*
X88309709Y-130259272D01*
X88180728Y-130130291D01*
X88079389Y-129978626D01*
X88009585Y-129810104D01*
X87974000Y-129631203D01*
X87974000Y-129448797D01*
X88009585Y-129269896D01*
X88079389Y-129101374D01*
X88180728Y-128949709D01*
X88309709Y-128820728D01*
X88461374Y-128719389D01*
X88629896Y-128649585D01*
X88808797Y-128614000D01*
X88991203Y-128614000D01*
X89170104Y-128649585D01*
G37*
G36*
X104410104Y-128649585D02*
G01*
X104578626Y-128719389D01*
X104730291Y-128820728D01*
X104859272Y-128949709D01*
X104960611Y-129101374D01*
X105030415Y-129269896D01*
X105066000Y-129448797D01*
X105066000Y-129631203D01*
X105030415Y-129810104D01*
X104960611Y-129978626D01*
X104859272Y-130130291D01*
X104730291Y-130259272D01*
X104578626Y-130360611D01*
X104410104Y-130430415D01*
X104231203Y-130466000D01*
X104048797Y-130466000D01*
X103869896Y-130430415D01*
X103701374Y-130360611D01*
X103549709Y-130259272D01*
X103420728Y-130130291D01*
X103319389Y-129978626D01*
X103249585Y-129810104D01*
X103214000Y-129631203D01*
X103214000Y-129448797D01*
X103249585Y-129269896D01*
X103319389Y-129101374D01*
X103420728Y-128949709D01*
X103549709Y-128820728D01*
X103701374Y-128719389D01*
X103869896Y-128649585D01*
X104048797Y-128614000D01*
X104231203Y-128614000D01*
X104410104Y-128649585D01*
G37*
G36*
X106950104Y-128649585D02*
G01*
X107118626Y-128719389D01*
X107270291Y-128820728D01*
X107399272Y-128949709D01*
X107500611Y-129101374D01*
X107570415Y-129269896D01*
X107606000Y-129448797D01*
X107606000Y-129631203D01*
X107570415Y-129810104D01*
X107500611Y-129978626D01*
X107399272Y-130130291D01*
X107270291Y-130259272D01*
X107118626Y-130360611D01*
X106950104Y-130430415D01*
X106771203Y-130466000D01*
X106588797Y-130466000D01*
X106409896Y-130430415D01*
X106241374Y-130360611D01*
X106089709Y-130259272D01*
X105960728Y-130130291D01*
X105859389Y-129978626D01*
X105789585Y-129810104D01*
X105754000Y-129631203D01*
X105754000Y-129448797D01*
X105789585Y-129269896D01*
X105859389Y-129101374D01*
X105960728Y-128949709D01*
X106089709Y-128820728D01*
X106241374Y-128719389D01*
X106409896Y-128649585D01*
X106588797Y-128614000D01*
X106771203Y-128614000D01*
X106950104Y-128649585D01*
G37*
G36*
X109490104Y-128649585D02*
G01*
X109658626Y-128719389D01*
X109810291Y-128820728D01*
X109939272Y-128949709D01*
X110040611Y-129101374D01*
X110110415Y-129269896D01*
X110146000Y-129448797D01*
X110146000Y-129631203D01*
X110110415Y-129810104D01*
X110040611Y-129978626D01*
X109939272Y-130130291D01*
X109810291Y-130259272D01*
X109658626Y-130360611D01*
X109490104Y-130430415D01*
X109311203Y-130466000D01*
X109128797Y-130466000D01*
X108949896Y-130430415D01*
X108781374Y-130360611D01*
X108629709Y-130259272D01*
X108500728Y-130130291D01*
X108399389Y-129978626D01*
X108329585Y-129810104D01*
X108294000Y-129631203D01*
X108294000Y-129448797D01*
X108329585Y-129269896D01*
X108399389Y-129101374D01*
X108500728Y-128949709D01*
X108629709Y-128820728D01*
X108781374Y-128719389D01*
X108949896Y-128649585D01*
X109128797Y-128614000D01*
X109311203Y-128614000D01*
X109490104Y-128649585D01*
G37*
G36*
X112030104Y-128649585D02*
G01*
X112198626Y-128719389D01*
X112350291Y-128820728D01*
X112479272Y-128949709D01*
X112580611Y-129101374D01*
X112650415Y-129269896D01*
X112686000Y-129448797D01*
X112686000Y-129631203D01*
X112650415Y-129810104D01*
X112580611Y-129978626D01*
X112479272Y-130130291D01*
X112350291Y-130259272D01*
X112198626Y-130360611D01*
X112030104Y-130430415D01*
X111851203Y-130466000D01*
X111668797Y-130466000D01*
X111489896Y-130430415D01*
X111321374Y-130360611D01*
X111169709Y-130259272D01*
X111040728Y-130130291D01*
X110939389Y-129978626D01*
X110869585Y-129810104D01*
X110834000Y-129631203D01*
X110834000Y-129448797D01*
X110869585Y-129269896D01*
X110939389Y-129101374D01*
X111040728Y-128949709D01*
X111169709Y-128820728D01*
X111321374Y-128719389D01*
X111489896Y-128649585D01*
X111668797Y-128614000D01*
X111851203Y-128614000D01*
X112030104Y-128649585D01*
G37*
G36*
X134890104Y-128649585D02*
G01*
X135058626Y-128719389D01*
X135210291Y-128820728D01*
X135339272Y-128949709D01*
X135440611Y-129101374D01*
X135510415Y-129269896D01*
X135546000Y-129448797D01*
X135546000Y-129631203D01*
X135510415Y-129810104D01*
X135440611Y-129978626D01*
X135339272Y-130130291D01*
X135210291Y-130259272D01*
X135058626Y-130360611D01*
X134890104Y-130430415D01*
X134711203Y-130466000D01*
X134528797Y-130466000D01*
X134349896Y-130430415D01*
X134181374Y-130360611D01*
X134029709Y-130259272D01*
X133900728Y-130130291D01*
X133799389Y-129978626D01*
X133729585Y-129810104D01*
X133694000Y-129631203D01*
X133694000Y-129448797D01*
X133729585Y-129269896D01*
X133799389Y-129101374D01*
X133900728Y-128949709D01*
X134029709Y-128820728D01*
X134181374Y-128719389D01*
X134349896Y-128649585D01*
X134528797Y-128614000D01*
X134711203Y-128614000D01*
X134890104Y-128649585D01*
G37*
G36*
X124730104Y-128649585D02*
G01*
X124898626Y-128719389D01*
X125050291Y-128820728D01*
X125179272Y-128949709D01*
X125280611Y-129101374D01*
X125350415Y-129269896D01*
X125386000Y-129448797D01*
X125386000Y-129631203D01*
X125350415Y-129810104D01*
X125280611Y-129978626D01*
X125179272Y-130130291D01*
X125050291Y-130259272D01*
X124898626Y-130360611D01*
X124730104Y-130430415D01*
X124551203Y-130466000D01*
X124368797Y-130466000D01*
X124189896Y-130430415D01*
X124021374Y-130360611D01*
X123869709Y-130259272D01*
X123740728Y-130130291D01*
X123639389Y-129978626D01*
X123569585Y-129810104D01*
X123534000Y-129631203D01*
X123534000Y-129448797D01*
X123569585Y-129269896D01*
X123639389Y-129101374D01*
X123740728Y-128949709D01*
X123869709Y-128820728D01*
X124021374Y-128719389D01*
X124189896Y-128649585D01*
X124368797Y-128614000D01*
X124551203Y-128614000D01*
X124730104Y-128649585D01*
G37*
G36*
X132350104Y-128649585D02*
G01*
X132518626Y-128719389D01*
X132670291Y-128820728D01*
X132799272Y-128949709D01*
X132900611Y-129101374D01*
X132970415Y-129269896D01*
X133006000Y-129448797D01*
X133006000Y-129631203D01*
X132970415Y-129810104D01*
X132900611Y-129978626D01*
X132799272Y-130130291D01*
X132670291Y-130259272D01*
X132518626Y-130360611D01*
X132350104Y-130430415D01*
X132171203Y-130466000D01*
X131988797Y-130466000D01*
X131809896Y-130430415D01*
X131641374Y-130360611D01*
X131489709Y-130259272D01*
X131360728Y-130130291D01*
X131259389Y-129978626D01*
X131189585Y-129810104D01*
X131154000Y-129631203D01*
X131154000Y-129448797D01*
X131189585Y-129269896D01*
X131259389Y-129101374D01*
X131360728Y-128949709D01*
X131489709Y-128820728D01*
X131641374Y-128719389D01*
X131809896Y-128649585D01*
X131988797Y-128614000D01*
X132171203Y-128614000D01*
X132350104Y-128649585D01*
G37*
G36*
X117110104Y-128649585D02*
G01*
X117278626Y-128719389D01*
X117430291Y-128820728D01*
X117559272Y-128949709D01*
X117660611Y-129101374D01*
X117730415Y-129269896D01*
X117766000Y-129448797D01*
X117766000Y-129631203D01*
X117730415Y-129810104D01*
X117660611Y-129978626D01*
X117559272Y-130130291D01*
X117430291Y-130259272D01*
X117278626Y-130360611D01*
X117110104Y-130430415D01*
X116931203Y-130466000D01*
X116748797Y-130466000D01*
X116569896Y-130430415D01*
X116401374Y-130360611D01*
X116249709Y-130259272D01*
X116120728Y-130130291D01*
X116019389Y-129978626D01*
X115949585Y-129810104D01*
X115914000Y-129631203D01*
X115914000Y-129448797D01*
X115949585Y-129269896D01*
X116019389Y-129101374D01*
X116120728Y-128949709D01*
X116249709Y-128820728D01*
X116401374Y-128719389D01*
X116569896Y-128649585D01*
X116748797Y-128614000D01*
X116931203Y-128614000D01*
X117110104Y-128649585D01*
G37*
G36*
X129810104Y-128649585D02*
G01*
X129978626Y-128719389D01*
X130130291Y-128820728D01*
X130259272Y-128949709D01*
X130360611Y-129101374D01*
X130430415Y-129269896D01*
X130466000Y-129448797D01*
X130466000Y-129631203D01*
X130430415Y-129810104D01*
X130360611Y-129978626D01*
X130259272Y-130130291D01*
X130130291Y-130259272D01*
X129978626Y-130360611D01*
X129810104Y-130430415D01*
X129631203Y-130466000D01*
X129448797Y-130466000D01*
X129269896Y-130430415D01*
X129101374Y-130360611D01*
X128949709Y-130259272D01*
X128820728Y-130130291D01*
X128719389Y-129978626D01*
X128649585Y-129810104D01*
X128614000Y-129631203D01*
X128614000Y-129448797D01*
X128649585Y-129269896D01*
X128719389Y-129101374D01*
X128820728Y-128949709D01*
X128949709Y-128820728D01*
X129101374Y-128719389D01*
X129269896Y-128649585D01*
X129448797Y-128614000D01*
X129631203Y-128614000D01*
X129810104Y-128649585D01*
G37*
G36*
X127270104Y-128649585D02*
G01*
X127438626Y-128719389D01*
X127590291Y-128820728D01*
X127719272Y-128949709D01*
X127820611Y-129101374D01*
X127890415Y-129269896D01*
X127926000Y-129448797D01*
X127926000Y-129631203D01*
X127890415Y-129810104D01*
X127820611Y-129978626D01*
X127719272Y-130130291D01*
X127590291Y-130259272D01*
X127438626Y-130360611D01*
X127270104Y-130430415D01*
X127091203Y-130466000D01*
X126908797Y-130466000D01*
X126729896Y-130430415D01*
X126561374Y-130360611D01*
X126409709Y-130259272D01*
X126280728Y-130130291D01*
X126179389Y-129978626D01*
X126109585Y-129810104D01*
X126074000Y-129631203D01*
X126074000Y-129448797D01*
X126109585Y-129269896D01*
X126179389Y-129101374D01*
X126280728Y-128949709D01*
X126409709Y-128820728D01*
X126561374Y-128719389D01*
X126729896Y-128649585D01*
X126908797Y-128614000D01*
X127091203Y-128614000D01*
X127270104Y-128649585D01*
G37*
G36*
X119650104Y-128649585D02*
G01*
X119818626Y-128719389D01*
X119970291Y-128820728D01*
X120099272Y-128949709D01*
X120200611Y-129101374D01*
X120270415Y-129269896D01*
X120306000Y-129448797D01*
X120306000Y-129631203D01*
X120270415Y-129810104D01*
X120200611Y-129978626D01*
X120099272Y-130130291D01*
X119970291Y-130259272D01*
X119818626Y-130360611D01*
X119650104Y-130430415D01*
X119471203Y-130466000D01*
X119288797Y-130466000D01*
X119109896Y-130430415D01*
X118941374Y-130360611D01*
X118789709Y-130259272D01*
X118660728Y-130130291D01*
X118559389Y-129978626D01*
X118489585Y-129810104D01*
X118454000Y-129631203D01*
X118454000Y-129448797D01*
X118489585Y-129269896D01*
X118559389Y-129101374D01*
X118660728Y-128949709D01*
X118789709Y-128820728D01*
X118941374Y-128719389D01*
X119109896Y-128649585D01*
X119288797Y-128614000D01*
X119471203Y-128614000D01*
X119650104Y-128649585D01*
G37*
G36*
X122190104Y-128649585D02*
G01*
X122358626Y-128719389D01*
X122510291Y-128820728D01*
X122639272Y-128949709D01*
X122740611Y-129101374D01*
X122810415Y-129269896D01*
X122846000Y-129448797D01*
X122846000Y-129631203D01*
X122810415Y-129810104D01*
X122740611Y-129978626D01*
X122639272Y-130130291D01*
X122510291Y-130259272D01*
X122358626Y-130360611D01*
X122190104Y-130430415D01*
X122011203Y-130466000D01*
X121828797Y-130466000D01*
X121649896Y-130430415D01*
X121481374Y-130360611D01*
X121329709Y-130259272D01*
X121200728Y-130130291D01*
X121099389Y-129978626D01*
X121029585Y-129810104D01*
X120994000Y-129631203D01*
X120994000Y-129448797D01*
X121029585Y-129269896D01*
X121099389Y-129101374D01*
X121200728Y-128949709D01*
X121329709Y-128820728D01*
X121481374Y-128719389D01*
X121649896Y-128649585D01*
X121828797Y-128614000D01*
X122011203Y-128614000D01*
X122190104Y-128649585D01*
G37*
G36*
X137430104Y-128649585D02*
G01*
X137598626Y-128719389D01*
X137750291Y-128820728D01*
X137879272Y-128949709D01*
X137980611Y-129101374D01*
X138050415Y-129269896D01*
X138086000Y-129448797D01*
X138086000Y-129631203D01*
X138050415Y-129810104D01*
X137980611Y-129978626D01*
X137879272Y-130130291D01*
X137750291Y-130259272D01*
X137598626Y-130360611D01*
X137430104Y-130430415D01*
X137251203Y-130466000D01*
X137068797Y-130466000D01*
X136889896Y-130430415D01*
X136721374Y-130360611D01*
X136569709Y-130259272D01*
X136440728Y-130130291D01*
X136339389Y-129978626D01*
X136269585Y-129810104D01*
X136234000Y-129631203D01*
X136234000Y-129448797D01*
X136269585Y-129269896D01*
X136339389Y-129101374D01*
X136440728Y-128949709D01*
X136569709Y-128820728D01*
X136721374Y-128719389D01*
X136889896Y-128649585D01*
X137068797Y-128614000D01*
X137251203Y-128614000D01*
X137430104Y-128649585D01*
G37*
G36*
X39734903Y-113097075D02*
G01*
X39962571Y-113191378D01*
X40167466Y-113328285D01*
X40341715Y-113502534D01*
X40478622Y-113707429D01*
X40572925Y-113935097D01*
X40621000Y-114176787D01*
X40621000Y-114423213D01*
X40572925Y-114664903D01*
X40478622Y-114892571D01*
X40341715Y-115097466D01*
X40167466Y-115271715D01*
X39962571Y-115408622D01*
X39962570Y-115408623D01*
X39962569Y-115408623D01*
X39734903Y-115502925D01*
X39493214Y-115551000D01*
X39246786Y-115551000D01*
X39005097Y-115502925D01*
X38777431Y-115408623D01*
X38777430Y-115408623D01*
X38777429Y-115408622D01*
X38572534Y-115271715D01*
X38398285Y-115097466D01*
X38261378Y-114892571D01*
X38167075Y-114664903D01*
X38119000Y-114423213D01*
X38119000Y-114176787D01*
X38167075Y-113935097D01*
X38261378Y-113707429D01*
X38398285Y-113502534D01*
X38572534Y-113328285D01*
X38777429Y-113191378D01*
X39005097Y-113097075D01*
X39246786Y-113049000D01*
X39493214Y-113049000D01*
X39734903Y-113097075D01*
G37*
G36*
X164194903Y-113097075D02*
G01*
X164422571Y-113191378D01*
X164627466Y-113328285D01*
X164801715Y-113502534D01*
X164938622Y-113707429D01*
X165032925Y-113935097D01*
X165081000Y-114176787D01*
X165081000Y-114423213D01*
X165032925Y-114664903D01*
X164938622Y-114892571D01*
X164801715Y-115097466D01*
X164627466Y-115271715D01*
X164422571Y-115408622D01*
X164422570Y-115408623D01*
X164422569Y-115408623D01*
X164194903Y-115502925D01*
X163953214Y-115551000D01*
X163706786Y-115551000D01*
X163465097Y-115502925D01*
X163237431Y-115408623D01*
X163237430Y-115408623D01*
X163237429Y-115408622D01*
X163032534Y-115271715D01*
X162858285Y-115097466D01*
X162721378Y-114892571D01*
X162627075Y-114664903D01*
X162579000Y-114423213D01*
X162579000Y-114176787D01*
X162627075Y-113935097D01*
X162721378Y-113707429D01*
X162858285Y-113502534D01*
X163032534Y-113328285D01*
X163237429Y-113191378D01*
X163465097Y-113097075D01*
X163706786Y-113049000D01*
X163953214Y-113049000D01*
X164194903Y-113097075D01*
G37*
G36*
X132444903Y-113097075D02*
G01*
X132672571Y-113191378D01*
X132877466Y-113328285D01*
X133051715Y-113502534D01*
X133188622Y-113707429D01*
X133282925Y-113935097D01*
X133331000Y-114176787D01*
X133331000Y-114423213D01*
X133282925Y-114664903D01*
X133188622Y-114892571D01*
X133051715Y-115097466D01*
X132877466Y-115271715D01*
X132672571Y-115408622D01*
X132672570Y-115408623D01*
X132672569Y-115408623D01*
X132444903Y-115502925D01*
X132203214Y-115551000D01*
X131956786Y-115551000D01*
X131715097Y-115502925D01*
X131487431Y-115408623D01*
X131487430Y-115408623D01*
X131487429Y-115408622D01*
X131282534Y-115271715D01*
X131108285Y-115097466D01*
X130971378Y-114892571D01*
X130877075Y-114664903D01*
X130829000Y-114423213D01*
X130829000Y-114176787D01*
X130877075Y-113935097D01*
X130971378Y-113707429D01*
X131108285Y-113502534D01*
X131282534Y-113328285D01*
X131487429Y-113191378D01*
X131715097Y-113097075D01*
X131956786Y-113049000D01*
X132203214Y-113049000D01*
X132444903Y-113097075D01*
G37*
G36*
X71484903Y-113097075D02*
G01*
X71712571Y-113191378D01*
X71917466Y-113328285D01*
X72091715Y-113502534D01*
X72228622Y-113707429D01*
X72322925Y-113935097D01*
X72371000Y-114176787D01*
X72371000Y-114423213D01*
X72322925Y-114664903D01*
X72228622Y-114892571D01*
X72091715Y-115097466D01*
X71917466Y-115271715D01*
X71712571Y-115408622D01*
X71712570Y-115408623D01*
X71712569Y-115408623D01*
X71484903Y-115502925D01*
X71243214Y-115551000D01*
X70996786Y-115551000D01*
X70755097Y-115502925D01*
X70527431Y-115408623D01*
X70527430Y-115408623D01*
X70527429Y-115408622D01*
X70322534Y-115271715D01*
X70148285Y-115097466D01*
X70011378Y-114892571D01*
X69917075Y-114664903D01*
X69869000Y-114423213D01*
X69869000Y-114176787D01*
X69917075Y-113935097D01*
X70011378Y-113707429D01*
X70148285Y-113502534D01*
X70322534Y-113328285D01*
X70527429Y-113191378D01*
X70755097Y-113097075D01*
X70996786Y-113049000D01*
X71243214Y-113049000D01*
X71484903Y-113097075D01*
G37*
G36*
X101964903Y-113097075D02*
G01*
X102192571Y-113191378D01*
X102397466Y-113328285D01*
X102571715Y-113502534D01*
X102708622Y-113707429D01*
X102802925Y-113935097D01*
X102851000Y-114176787D01*
X102851000Y-114423213D01*
X102802925Y-114664903D01*
X102708622Y-114892571D01*
X102571715Y-115097466D01*
X102397466Y-115271715D01*
X102192571Y-115408622D01*
X102192570Y-115408623D01*
X102192569Y-115408623D01*
X101964903Y-115502925D01*
X101723214Y-115551000D01*
X101476786Y-115551000D01*
X101235097Y-115502925D01*
X101007431Y-115408623D01*
X101007430Y-115408623D01*
X101007429Y-115408622D01*
X100802534Y-115271715D01*
X100628285Y-115097466D01*
X100491378Y-114892571D01*
X100397075Y-114664903D01*
X100349000Y-114423213D01*
X100349000Y-114176787D01*
X100397075Y-113935097D01*
X100491378Y-113707429D01*
X100628285Y-113502534D01*
X100802534Y-113328285D01*
X101007429Y-113191378D01*
X101235097Y-113097075D01*
X101476786Y-113049000D01*
X101723214Y-113049000D01*
X101964903Y-113097075D01*
G37*
G36*
X193404903Y-113097075D02*
G01*
X193632571Y-113191378D01*
X193837466Y-113328285D01*
X194011715Y-113502534D01*
X194148622Y-113707429D01*
X194242925Y-113935097D01*
X194291000Y-114176787D01*
X194291000Y-114423213D01*
X194242925Y-114664903D01*
X194148622Y-114892571D01*
X194011715Y-115097466D01*
X193837466Y-115271715D01*
X193632571Y-115408622D01*
X193632570Y-115408623D01*
X193632569Y-115408623D01*
X193404903Y-115502925D01*
X193163214Y-115551000D01*
X192916786Y-115551000D01*
X192675097Y-115502925D01*
X192447431Y-115408623D01*
X192447430Y-115408623D01*
X192447429Y-115408622D01*
X192242534Y-115271715D01*
X192068285Y-115097466D01*
X191931378Y-114892571D01*
X191837075Y-114664903D01*
X191789000Y-114423213D01*
X191789000Y-114176787D01*
X191837075Y-113935097D01*
X191931378Y-113707429D01*
X192068285Y-113502534D01*
X192242534Y-113328285D01*
X192447429Y-113191378D01*
X192675097Y-113097075D01*
X192916786Y-113049000D01*
X193163214Y-113049000D01*
X193404903Y-113097075D01*
G37*
G36*
X152677395Y-113385546D02*
G01*
X152850466Y-113457234D01*
X152850467Y-113457235D01*
X153006227Y-113561310D01*
X153138690Y-113693773D01*
X153147816Y-113707431D01*
X153242766Y-113849534D01*
X153314454Y-114022605D01*
X153351000Y-114206333D01*
X153351000Y-114393667D01*
X153314454Y-114577395D01*
X153242766Y-114750466D01*
X153242765Y-114750467D01*
X153138690Y-114906227D01*
X153006227Y-115038690D01*
X152927818Y-115091081D01*
X152850466Y-115142766D01*
X152677395Y-115214454D01*
X152493667Y-115251000D01*
X152306333Y-115251000D01*
X152122605Y-115214454D01*
X151949534Y-115142766D01*
X151872182Y-115091081D01*
X151793773Y-115038690D01*
X151661310Y-114906227D01*
X151557235Y-114750467D01*
X151557234Y-114750466D01*
X151485546Y-114577395D01*
X151449000Y-114393667D01*
X151449000Y-114206333D01*
X151485546Y-114022605D01*
X151557234Y-113849534D01*
X151652184Y-113707431D01*
X151661310Y-113693773D01*
X151793773Y-113561310D01*
X151949533Y-113457235D01*
X151949534Y-113457234D01*
X152122605Y-113385546D01*
X152306333Y-113349000D01*
X152493667Y-113349000D01*
X152677395Y-113385546D01*
G37*
G36*
X91717395Y-113385546D02*
G01*
X91890466Y-113457234D01*
X91890467Y-113457235D01*
X92046227Y-113561310D01*
X92178690Y-113693773D01*
X92187816Y-113707431D01*
X92282766Y-113849534D01*
X92354454Y-114022605D01*
X92391000Y-114206333D01*
X92391000Y-114393667D01*
X92354454Y-114577395D01*
X92282766Y-114750466D01*
X92282765Y-114750467D01*
X92178690Y-114906227D01*
X92046227Y-115038690D01*
X91967818Y-115091081D01*
X91890466Y-115142766D01*
X91717395Y-115214454D01*
X91533667Y-115251000D01*
X91346333Y-115251000D01*
X91162605Y-115214454D01*
X90989534Y-115142766D01*
X90912182Y-115091081D01*
X90833773Y-115038690D01*
X90701310Y-114906227D01*
X90597235Y-114750467D01*
X90597234Y-114750466D01*
X90525546Y-114577395D01*
X90489000Y-114393667D01*
X90489000Y-114206333D01*
X90525546Y-114022605D01*
X90597234Y-113849534D01*
X90692184Y-113707431D01*
X90701310Y-113693773D01*
X90833773Y-113561310D01*
X90989533Y-113457235D01*
X90989534Y-113457234D01*
X91162605Y-113385546D01*
X91346333Y-113349000D01*
X91533667Y-113349000D01*
X91717395Y-113385546D01*
G37*
G36*
X30757395Y-113385546D02*
G01*
X30930466Y-113457234D01*
X30930467Y-113457235D01*
X31086227Y-113561310D01*
X31218690Y-113693773D01*
X31227816Y-113707431D01*
X31322766Y-113849534D01*
X31394454Y-114022605D01*
X31431000Y-114206333D01*
X31431000Y-114393667D01*
X31394454Y-114577395D01*
X31322766Y-114750466D01*
X31322765Y-114750467D01*
X31218690Y-114906227D01*
X31086227Y-115038690D01*
X31007818Y-115091081D01*
X30930466Y-115142766D01*
X30757395Y-115214454D01*
X30573667Y-115251000D01*
X30386333Y-115251000D01*
X30202605Y-115214454D01*
X30029534Y-115142766D01*
X29952182Y-115091081D01*
X29873773Y-115038690D01*
X29741310Y-114906227D01*
X29637235Y-114750467D01*
X29637234Y-114750466D01*
X29565546Y-114577395D01*
X29529000Y-114393667D01*
X29529000Y-114206333D01*
X29565546Y-114022605D01*
X29637234Y-113849534D01*
X29732184Y-113707431D01*
X29741310Y-113693773D01*
X29873773Y-113561310D01*
X30029533Y-113457235D01*
X30029534Y-113457234D01*
X30202605Y-113385546D01*
X30386333Y-113349000D01*
X30573667Y-113349000D01*
X30757395Y-113385546D01*
G37*
G36*
X122197395Y-113385546D02*
G01*
X122370466Y-113457234D01*
X122370467Y-113457235D01*
X122526227Y-113561310D01*
X122658690Y-113693773D01*
X122667816Y-113707431D01*
X122762766Y-113849534D01*
X122834454Y-114022605D01*
X122871000Y-114206333D01*
X122871000Y-114393667D01*
X122834454Y-114577395D01*
X122762766Y-114750466D01*
X122762765Y-114750467D01*
X122658690Y-114906227D01*
X122526227Y-115038690D01*
X122447818Y-115091081D01*
X122370466Y-115142766D01*
X122197395Y-115214454D01*
X122013667Y-115251000D01*
X121826333Y-115251000D01*
X121642605Y-115214454D01*
X121469534Y-115142766D01*
X121392182Y-115091081D01*
X121313773Y-115038690D01*
X121181310Y-114906227D01*
X121077235Y-114750467D01*
X121077234Y-114750466D01*
X121005546Y-114577395D01*
X120969000Y-114393667D01*
X120969000Y-114206333D01*
X121005546Y-114022605D01*
X121077234Y-113849534D01*
X121172184Y-113707431D01*
X121181310Y-113693773D01*
X121313773Y-113561310D01*
X121469533Y-113457235D01*
X121469534Y-113457234D01*
X121642605Y-113385546D01*
X121826333Y-113349000D01*
X122013667Y-113349000D01*
X122197395Y-113385546D01*
G37*
G36*
X183157395Y-113385546D02*
G01*
X183330466Y-113457234D01*
X183330467Y-113457235D01*
X183486227Y-113561310D01*
X183618690Y-113693773D01*
X183627816Y-113707431D01*
X183722766Y-113849534D01*
X183794454Y-114022605D01*
X183831000Y-114206333D01*
X183831000Y-114393667D01*
X183794454Y-114577395D01*
X183722766Y-114750466D01*
X183722765Y-114750467D01*
X183618690Y-114906227D01*
X183486227Y-115038690D01*
X183407818Y-115091081D01*
X183330466Y-115142766D01*
X183157395Y-115214454D01*
X182973667Y-115251000D01*
X182786333Y-115251000D01*
X182602605Y-115214454D01*
X182429534Y-115142766D01*
X182352182Y-115091081D01*
X182273773Y-115038690D01*
X182141310Y-114906227D01*
X182037235Y-114750467D01*
X182037234Y-114750466D01*
X181965546Y-114577395D01*
X181929000Y-114393667D01*
X181929000Y-114206333D01*
X181965546Y-114022605D01*
X182037234Y-113849534D01*
X182132184Y-113707431D01*
X182141310Y-113693773D01*
X182273773Y-113561310D01*
X182429533Y-113457235D01*
X182429534Y-113457234D01*
X182602605Y-113385546D01*
X182786333Y-113349000D01*
X182973667Y-113349000D01*
X183157395Y-113385546D01*
G37*
G36*
X61237395Y-113385546D02*
G01*
X61410466Y-113457234D01*
X61410467Y-113457235D01*
X61566227Y-113561310D01*
X61698690Y-113693773D01*
X61707816Y-113707431D01*
X61802766Y-113849534D01*
X61874454Y-114022605D01*
X61911000Y-114206333D01*
X61911000Y-114393667D01*
X61874454Y-114577395D01*
X61802766Y-114750466D01*
X61802765Y-114750467D01*
X61698690Y-114906227D01*
X61566227Y-115038690D01*
X61487818Y-115091081D01*
X61410466Y-115142766D01*
X61237395Y-115214454D01*
X61053667Y-115251000D01*
X60866333Y-115251000D01*
X60682605Y-115214454D01*
X60509534Y-115142766D01*
X60432182Y-115091081D01*
X60353773Y-115038690D01*
X60221310Y-114906227D01*
X60117235Y-114750467D01*
X60117234Y-114750466D01*
X60045546Y-114577395D01*
X60009000Y-114393667D01*
X60009000Y-114206333D01*
X60045546Y-114022605D01*
X60117234Y-113849534D01*
X60212184Y-113707431D01*
X60221310Y-113693773D01*
X60353773Y-113561310D01*
X60509533Y-113457235D01*
X60509534Y-113457234D01*
X60682605Y-113385546D01*
X60866333Y-113349000D01*
X61053667Y-113349000D01*
X61237395Y-113385546D01*
G37*
G36*
X153351000Y-112711000D02*
G01*
X151449000Y-112711000D01*
X151449000Y-110809000D01*
X153351000Y-110809000D01*
X153351000Y-112711000D01*
G37*
G36*
X31431000Y-112711000D02*
G01*
X29529000Y-112711000D01*
X29529000Y-110809000D01*
X31431000Y-110809000D01*
X31431000Y-112711000D01*
G37*
G36*
X183831000Y-112711000D02*
G01*
X181929000Y-112711000D01*
X181929000Y-110809000D01*
X183831000Y-110809000D01*
X183831000Y-112711000D01*
G37*
G36*
X61911000Y-112711000D02*
G01*
X60009000Y-112711000D01*
X60009000Y-110809000D01*
X61911000Y-110809000D01*
X61911000Y-112711000D01*
G37*
G36*
X92391000Y-112711000D02*
G01*
X90489000Y-112711000D01*
X90489000Y-110809000D01*
X92391000Y-110809000D01*
X92391000Y-112711000D01*
G37*
G36*
X122871000Y-112711000D02*
G01*
X120969000Y-112711000D01*
X120969000Y-110809000D01*
X122871000Y-110809000D01*
X122871000Y-112711000D01*
G37*
G36*
X31281000Y-98366000D02*
G01*
X31116660Y-98366000D01*
X31092274Y-98368402D01*
X31068825Y-98375515D01*
X31047214Y-98387066D01*
X31028272Y-98402611D01*
X31012727Y-98421553D01*
X31001176Y-98443164D01*
X30994063Y-98466613D01*
X30991661Y-98490999D01*
X30994063Y-98515385D01*
X31001176Y-98538834D01*
X31012727Y-98560445D01*
X31028272Y-98579387D01*
X31037345Y-98587609D01*
X31114264Y-98650736D01*
X31186244Y-98738443D01*
X31220429Y-98802399D01*
X31239728Y-98838505D01*
X31239729Y-98838508D01*
X31272666Y-98947084D01*
X31283787Y-99060000D01*
X31272666Y-99172916D01*
X31239729Y-99281492D01*
X31239728Y-99281495D01*
X31220429Y-99317601D01*
X31186244Y-99381557D01*
X31114264Y-99469264D01*
X31026557Y-99541244D01*
X30945141Y-99584761D01*
X30924766Y-99598375D01*
X30907439Y-99615702D01*
X30893826Y-99636076D01*
X30884448Y-99658715D01*
X30879668Y-99682748D01*
X30879668Y-99707252D01*
X30884448Y-99731285D01*
X30893826Y-99753924D01*
X30907440Y-99774299D01*
X30924767Y-99791626D01*
X30945141Y-99805239D01*
X31026557Y-99848756D01*
X31114264Y-99920736D01*
X31186244Y-100008443D01*
X31198683Y-100031716D01*
X31239728Y-100108505D01*
X31239729Y-100108508D01*
X31272666Y-100217084D01*
X31283787Y-100330000D01*
X31272666Y-100442916D01*
X31239729Y-100551492D01*
X31239728Y-100551495D01*
X31220429Y-100587601D01*
X31186244Y-100651557D01*
X31114264Y-100739264D01*
X31026557Y-100811244D01*
X30962601Y-100845429D01*
X30926495Y-100864728D01*
X30926492Y-100864729D01*
X30817916Y-100897666D01*
X30733298Y-100906000D01*
X30226702Y-100906000D01*
X30142084Y-100897666D01*
X30033508Y-100864729D01*
X30033505Y-100864728D01*
X29997399Y-100845429D01*
X29933443Y-100811244D01*
X29845736Y-100739264D01*
X29773756Y-100651557D01*
X29739571Y-100587601D01*
X29720272Y-100551495D01*
X29720271Y-100551492D01*
X29687334Y-100442916D01*
X29676213Y-100330000D01*
X29687334Y-100217084D01*
X29720271Y-100108508D01*
X29720272Y-100108505D01*
X29761317Y-100031716D01*
X29773756Y-100008443D01*
X29845736Y-99920736D01*
X29933443Y-99848756D01*
X30014859Y-99805239D01*
X30035234Y-99791625D01*
X30052561Y-99774298D01*
X30066174Y-99753924D01*
X30075552Y-99731285D01*
X30080332Y-99707252D01*
X30080332Y-99682748D01*
X30075552Y-99658715D01*
X30066174Y-99636076D01*
X30052560Y-99615701D01*
X30035233Y-99598374D01*
X30014859Y-99584761D01*
X29933443Y-99541244D01*
X29845736Y-99469264D01*
X29773756Y-99381557D01*
X29739571Y-99317601D01*
X29720272Y-99281495D01*
X29720271Y-99281492D01*
X29687334Y-99172916D01*
X29676213Y-99060000D01*
X29687334Y-98947084D01*
X29720271Y-98838508D01*
X29720272Y-98838505D01*
X29739571Y-98802399D01*
X29773756Y-98738443D01*
X29845736Y-98650736D01*
X29922646Y-98587617D01*
X29939965Y-98570298D01*
X29953579Y-98549923D01*
X29962957Y-98527284D01*
X29967737Y-98503251D01*
X29967737Y-98478747D01*
X29962957Y-98454714D01*
X29953579Y-98432075D01*
X29939966Y-98411701D01*
X29922639Y-98394374D01*
X29902264Y-98380760D01*
X29879625Y-98371382D01*
X29855592Y-98366602D01*
X29843340Y-98366000D01*
X29679000Y-98366000D01*
X29679000Y-97214000D01*
X31281000Y-97214000D01*
X31281000Y-98366000D01*
G37*
G36*
X61761000Y-98366000D02*
G01*
X61596660Y-98366000D01*
X61572274Y-98368402D01*
X61548825Y-98375515D01*
X61527214Y-98387066D01*
X61508272Y-98402611D01*
X61492727Y-98421553D01*
X61481176Y-98443164D01*
X61474063Y-98466613D01*
X61471661Y-98490999D01*
X61474063Y-98515385D01*
X61481176Y-98538834D01*
X61492727Y-98560445D01*
X61508272Y-98579387D01*
X61517345Y-98587609D01*
X61594264Y-98650736D01*
X61666244Y-98738443D01*
X61700429Y-98802399D01*
X61719728Y-98838505D01*
X61719729Y-98838508D01*
X61752666Y-98947084D01*
X61763787Y-99060000D01*
X61752666Y-99172916D01*
X61719729Y-99281492D01*
X61719728Y-99281495D01*
X61700429Y-99317601D01*
X61666244Y-99381557D01*
X61594264Y-99469264D01*
X61506557Y-99541244D01*
X61425141Y-99584761D01*
X61404766Y-99598375D01*
X61387439Y-99615702D01*
X61373826Y-99636076D01*
X61364448Y-99658715D01*
X61359668Y-99682748D01*
X61359668Y-99707252D01*
X61364448Y-99731285D01*
X61373826Y-99753924D01*
X61387440Y-99774299D01*
X61404767Y-99791626D01*
X61425141Y-99805239D01*
X61506557Y-99848756D01*
X61594264Y-99920736D01*
X61666244Y-100008443D01*
X61678683Y-100031716D01*
X61719728Y-100108505D01*
X61719729Y-100108508D01*
X61752666Y-100217084D01*
X61763787Y-100330000D01*
X61752666Y-100442916D01*
X61719729Y-100551492D01*
X61719728Y-100551495D01*
X61700429Y-100587601D01*
X61666244Y-100651557D01*
X61594264Y-100739264D01*
X61506557Y-100811244D01*
X61442601Y-100845429D01*
X61406495Y-100864728D01*
X61406492Y-100864729D01*
X61297916Y-100897666D01*
X61213298Y-100906000D01*
X60706702Y-100906000D01*
X60622084Y-100897666D01*
X60513508Y-100864729D01*
X60513505Y-100864728D01*
X60477399Y-100845429D01*
X60413443Y-100811244D01*
X60325736Y-100739264D01*
X60253756Y-100651557D01*
X60219571Y-100587601D01*
X60200272Y-100551495D01*
X60200271Y-100551492D01*
X60167334Y-100442916D01*
X60156213Y-100330000D01*
X60167334Y-100217084D01*
X60200271Y-100108508D01*
X60200272Y-100108505D01*
X60241317Y-100031716D01*
X60253756Y-100008443D01*
X60325736Y-99920736D01*
X60413443Y-99848756D01*
X60494859Y-99805239D01*
X60515234Y-99791625D01*
X60532561Y-99774298D01*
X60546174Y-99753924D01*
X60555552Y-99731285D01*
X60560332Y-99707252D01*
X60560332Y-99682748D01*
X60555552Y-99658715D01*
X60546174Y-99636076D01*
X60532560Y-99615701D01*
X60515233Y-99598374D01*
X60494859Y-99584761D01*
X60413443Y-99541244D01*
X60325736Y-99469264D01*
X60253756Y-99381557D01*
X60219571Y-99317601D01*
X60200272Y-99281495D01*
X60200271Y-99281492D01*
X60167334Y-99172916D01*
X60156213Y-99060000D01*
X60167334Y-98947084D01*
X60200271Y-98838508D01*
X60200272Y-98838505D01*
X60219571Y-98802399D01*
X60253756Y-98738443D01*
X60325736Y-98650736D01*
X60402646Y-98587617D01*
X60419965Y-98570298D01*
X60433579Y-98549923D01*
X60442957Y-98527284D01*
X60447737Y-98503251D01*
X60447737Y-98478747D01*
X60442957Y-98454714D01*
X60433579Y-98432075D01*
X60419966Y-98411701D01*
X60402639Y-98394374D01*
X60382264Y-98380760D01*
X60359625Y-98371382D01*
X60335592Y-98366602D01*
X60323340Y-98366000D01*
X60159000Y-98366000D01*
X60159000Y-97214000D01*
X61761000Y-97214000D01*
X61761000Y-98366000D01*
G37*
G36*
X92241000Y-98366000D02*
G01*
X92076660Y-98366000D01*
X92052274Y-98368402D01*
X92028825Y-98375515D01*
X92007214Y-98387066D01*
X91988272Y-98402611D01*
X91972727Y-98421553D01*
X91961176Y-98443164D01*
X91954063Y-98466613D01*
X91951661Y-98490999D01*
X91954063Y-98515385D01*
X91961176Y-98538834D01*
X91972727Y-98560445D01*
X91988272Y-98579387D01*
X91997345Y-98587609D01*
X92074264Y-98650736D01*
X92146244Y-98738443D01*
X92180429Y-98802399D01*
X92199728Y-98838505D01*
X92199729Y-98838508D01*
X92232666Y-98947084D01*
X92243787Y-99060000D01*
X92232666Y-99172916D01*
X92199729Y-99281492D01*
X92199728Y-99281495D01*
X92180429Y-99317601D01*
X92146244Y-99381557D01*
X92074264Y-99469264D01*
X91986557Y-99541244D01*
X91905141Y-99584761D01*
X91884766Y-99598375D01*
X91867439Y-99615702D01*
X91853826Y-99636076D01*
X91844448Y-99658715D01*
X91839668Y-99682748D01*
X91839668Y-99707252D01*
X91844448Y-99731285D01*
X91853826Y-99753924D01*
X91867440Y-99774299D01*
X91884767Y-99791626D01*
X91905141Y-99805239D01*
X91986557Y-99848756D01*
X92074264Y-99920736D01*
X92146244Y-100008443D01*
X92158683Y-100031716D01*
X92199728Y-100108505D01*
X92199729Y-100108508D01*
X92232666Y-100217084D01*
X92243787Y-100330000D01*
X92232666Y-100442916D01*
X92199729Y-100551492D01*
X92199728Y-100551495D01*
X92180429Y-100587601D01*
X92146244Y-100651557D01*
X92074264Y-100739264D01*
X91986557Y-100811244D01*
X91922601Y-100845429D01*
X91886495Y-100864728D01*
X91886492Y-100864729D01*
X91777916Y-100897666D01*
X91693298Y-100906000D01*
X91186702Y-100906000D01*
X91102084Y-100897666D01*
X90993508Y-100864729D01*
X90993505Y-100864728D01*
X90957399Y-100845429D01*
X90893443Y-100811244D01*
X90805736Y-100739264D01*
X90733756Y-100651557D01*
X90699571Y-100587601D01*
X90680272Y-100551495D01*
X90680271Y-100551492D01*
X90647334Y-100442916D01*
X90636213Y-100330000D01*
X90647334Y-100217084D01*
X90680271Y-100108508D01*
X90680272Y-100108505D01*
X90721317Y-100031716D01*
X90733756Y-100008443D01*
X90805736Y-99920736D01*
X90893443Y-99848756D01*
X90974859Y-99805239D01*
X90995234Y-99791625D01*
X91012561Y-99774298D01*
X91026174Y-99753924D01*
X91035552Y-99731285D01*
X91040332Y-99707252D01*
X91040332Y-99682748D01*
X91035552Y-99658715D01*
X91026174Y-99636076D01*
X91012560Y-99615701D01*
X90995233Y-99598374D01*
X90974859Y-99584761D01*
X90893443Y-99541244D01*
X90805736Y-99469264D01*
X90733756Y-99381557D01*
X90699571Y-99317601D01*
X90680272Y-99281495D01*
X90680271Y-99281492D01*
X90647334Y-99172916D01*
X90636213Y-99060000D01*
X90647334Y-98947084D01*
X90680271Y-98838508D01*
X90680272Y-98838505D01*
X90699571Y-98802399D01*
X90733756Y-98738443D01*
X90805736Y-98650736D01*
X90882646Y-98587617D01*
X90899965Y-98570298D01*
X90913579Y-98549923D01*
X90922957Y-98527284D01*
X90927737Y-98503251D01*
X90927737Y-98478747D01*
X90922957Y-98454714D01*
X90913579Y-98432075D01*
X90899966Y-98411701D01*
X90882639Y-98394374D01*
X90862264Y-98380760D01*
X90839625Y-98371382D01*
X90815592Y-98366602D01*
X90803340Y-98366000D01*
X90639000Y-98366000D01*
X90639000Y-97214000D01*
X92241000Y-97214000D01*
X92241000Y-98366000D01*
G37*
G36*
X122721000Y-98366000D02*
G01*
X122556660Y-98366000D01*
X122532274Y-98368402D01*
X122508825Y-98375515D01*
X122487214Y-98387066D01*
X122468272Y-98402611D01*
X122452727Y-98421553D01*
X122441176Y-98443164D01*
X122434063Y-98466613D01*
X122431661Y-98490999D01*
X122434063Y-98515385D01*
X122441176Y-98538834D01*
X122452727Y-98560445D01*
X122468272Y-98579387D01*
X122477345Y-98587609D01*
X122554264Y-98650736D01*
X122626244Y-98738443D01*
X122660429Y-98802399D01*
X122679728Y-98838505D01*
X122679729Y-98838508D01*
X122712666Y-98947084D01*
X122723787Y-99060000D01*
X122712666Y-99172916D01*
X122679729Y-99281492D01*
X122679728Y-99281495D01*
X122660429Y-99317601D01*
X122626244Y-99381557D01*
X122554264Y-99469264D01*
X122466557Y-99541244D01*
X122385141Y-99584761D01*
X122364766Y-99598375D01*
X122347439Y-99615702D01*
X122333826Y-99636076D01*
X122324448Y-99658715D01*
X122319668Y-99682748D01*
X122319668Y-99707252D01*
X122324448Y-99731285D01*
X122333826Y-99753924D01*
X122347440Y-99774299D01*
X122364767Y-99791626D01*
X122385141Y-99805239D01*
X122466557Y-99848756D01*
X122554264Y-99920736D01*
X122626244Y-100008443D01*
X122638683Y-100031716D01*
X122679728Y-100108505D01*
X122679729Y-100108508D01*
X122712666Y-100217084D01*
X122723787Y-100330000D01*
X122712666Y-100442916D01*
X122679729Y-100551492D01*
X122679728Y-100551495D01*
X122660429Y-100587601D01*
X122626244Y-100651557D01*
X122554264Y-100739264D01*
X122466557Y-100811244D01*
X122402601Y-100845429D01*
X122366495Y-100864728D01*
X122366492Y-100864729D01*
X122257916Y-100897666D01*
X122173298Y-100906000D01*
X121666702Y-100906000D01*
X121582084Y-100897666D01*
X121473508Y-100864729D01*
X121473505Y-100864728D01*
X121437399Y-100845429D01*
X121373443Y-100811244D01*
X121285736Y-100739264D01*
X121213756Y-100651557D01*
X121179571Y-100587601D01*
X121160272Y-100551495D01*
X121160271Y-100551492D01*
X121127334Y-100442916D01*
X121116213Y-100330000D01*
X121127334Y-100217084D01*
X121160271Y-100108508D01*
X121160272Y-100108505D01*
X121201317Y-100031716D01*
X121213756Y-100008443D01*
X121285736Y-99920736D01*
X121373443Y-99848756D01*
X121454859Y-99805239D01*
X121475234Y-99791625D01*
X121492561Y-99774298D01*
X121506174Y-99753924D01*
X121515552Y-99731285D01*
X121520332Y-99707252D01*
X121520332Y-99682748D01*
X121515552Y-99658715D01*
X121506174Y-99636076D01*
X121492560Y-99615701D01*
X121475233Y-99598374D01*
X121454859Y-99584761D01*
X121373443Y-99541244D01*
X121285736Y-99469264D01*
X121213756Y-99381557D01*
X121179571Y-99317601D01*
X121160272Y-99281495D01*
X121160271Y-99281492D01*
X121127334Y-99172916D01*
X121116213Y-99060000D01*
X121127334Y-98947084D01*
X121160271Y-98838508D01*
X121160272Y-98838505D01*
X121179571Y-98802399D01*
X121213756Y-98738443D01*
X121285736Y-98650736D01*
X121362646Y-98587617D01*
X121379965Y-98570298D01*
X121393579Y-98549923D01*
X121402957Y-98527284D01*
X121407737Y-98503251D01*
X121407737Y-98478747D01*
X121402957Y-98454714D01*
X121393579Y-98432075D01*
X121379966Y-98411701D01*
X121362639Y-98394374D01*
X121342264Y-98380760D01*
X121319625Y-98371382D01*
X121295592Y-98366602D01*
X121283340Y-98366000D01*
X121119000Y-98366000D01*
X121119000Y-97214000D01*
X122721000Y-97214000D01*
X122721000Y-98366000D01*
G37*
G36*
X153201000Y-98366000D02*
G01*
X153036660Y-98366000D01*
X153012274Y-98368402D01*
X152988825Y-98375515D01*
X152967214Y-98387066D01*
X152948272Y-98402611D01*
X152932727Y-98421553D01*
X152921176Y-98443164D01*
X152914063Y-98466613D01*
X152911661Y-98490999D01*
X152914063Y-98515385D01*
X152921176Y-98538834D01*
X152932727Y-98560445D01*
X152948272Y-98579387D01*
X152957345Y-98587609D01*
X153034264Y-98650736D01*
X153106244Y-98738443D01*
X153140429Y-98802399D01*
X153159728Y-98838505D01*
X153159729Y-98838508D01*
X153192666Y-98947084D01*
X153203787Y-99060000D01*
X153192666Y-99172916D01*
X153159729Y-99281492D01*
X153159728Y-99281495D01*
X153140429Y-99317601D01*
X153106244Y-99381557D01*
X153034264Y-99469264D01*
X152946557Y-99541244D01*
X152865141Y-99584761D01*
X152844766Y-99598375D01*
X152827439Y-99615702D01*
X152813826Y-99636076D01*
X152804448Y-99658715D01*
X152799668Y-99682748D01*
X152799668Y-99707252D01*
X152804448Y-99731285D01*
X152813826Y-99753924D01*
X152827440Y-99774299D01*
X152844767Y-99791626D01*
X152865141Y-99805239D01*
X152946557Y-99848756D01*
X153034264Y-99920736D01*
X153106244Y-100008443D01*
X153118683Y-100031716D01*
X153159728Y-100108505D01*
X153159729Y-100108508D01*
X153192666Y-100217084D01*
X153203787Y-100330000D01*
X153192666Y-100442916D01*
X153159729Y-100551492D01*
X153159728Y-100551495D01*
X153140429Y-100587601D01*
X153106244Y-100651557D01*
X153034264Y-100739264D01*
X152946557Y-100811244D01*
X152882601Y-100845429D01*
X152846495Y-100864728D01*
X152846492Y-100864729D01*
X152737916Y-100897666D01*
X152653298Y-100906000D01*
X152146702Y-100906000D01*
X152062084Y-100897666D01*
X151953508Y-100864729D01*
X151953505Y-100864728D01*
X151917399Y-100845429D01*
X151853443Y-100811244D01*
X151765736Y-100739264D01*
X151693756Y-100651557D01*
X151659571Y-100587601D01*
X151640272Y-100551495D01*
X151640271Y-100551492D01*
X151607334Y-100442916D01*
X151596213Y-100330000D01*
X151607334Y-100217084D01*
X151640271Y-100108508D01*
X151640272Y-100108505D01*
X151681317Y-100031716D01*
X151693756Y-100008443D01*
X151765736Y-99920736D01*
X151853443Y-99848756D01*
X151934859Y-99805239D01*
X151955234Y-99791625D01*
X151972561Y-99774298D01*
X151986174Y-99753924D01*
X151995552Y-99731285D01*
X152000332Y-99707252D01*
X152000332Y-99682748D01*
X151995552Y-99658715D01*
X151986174Y-99636076D01*
X151972560Y-99615701D01*
X151955233Y-99598374D01*
X151934859Y-99584761D01*
X151853443Y-99541244D01*
X151765736Y-99469264D01*
X151693756Y-99381557D01*
X151659571Y-99317601D01*
X151640272Y-99281495D01*
X151640271Y-99281492D01*
X151607334Y-99172916D01*
X151596213Y-99060000D01*
X151607334Y-98947084D01*
X151640271Y-98838508D01*
X151640272Y-98838505D01*
X151659571Y-98802399D01*
X151693756Y-98738443D01*
X151765736Y-98650736D01*
X151842646Y-98587617D01*
X151859965Y-98570298D01*
X151873579Y-98549923D01*
X151882957Y-98527284D01*
X151887737Y-98503251D01*
X151887737Y-98478747D01*
X151882957Y-98454714D01*
X151873579Y-98432075D01*
X151859966Y-98411701D01*
X151842639Y-98394374D01*
X151822264Y-98380760D01*
X151799625Y-98371382D01*
X151775592Y-98366602D01*
X151763340Y-98366000D01*
X151599000Y-98366000D01*
X151599000Y-97214000D01*
X153201000Y-97214000D01*
X153201000Y-98366000D01*
G37*
G36*
X183681000Y-98366000D02*
G01*
X183516660Y-98366000D01*
X183492274Y-98368402D01*
X183468825Y-98375515D01*
X183447214Y-98387066D01*
X183428272Y-98402611D01*
X183412727Y-98421553D01*
X183401176Y-98443164D01*
X183394063Y-98466613D01*
X183391661Y-98490999D01*
X183394063Y-98515385D01*
X183401176Y-98538834D01*
X183412727Y-98560445D01*
X183428272Y-98579387D01*
X183437345Y-98587609D01*
X183514264Y-98650736D01*
X183586244Y-98738443D01*
X183620429Y-98802399D01*
X183639728Y-98838505D01*
X183639729Y-98838508D01*
X183672666Y-98947084D01*
X183683787Y-99060000D01*
X183672666Y-99172916D01*
X183639729Y-99281492D01*
X183639728Y-99281495D01*
X183620429Y-99317601D01*
X183586244Y-99381557D01*
X183514264Y-99469264D01*
X183426557Y-99541244D01*
X183345141Y-99584761D01*
X183324766Y-99598375D01*
X183307439Y-99615702D01*
X183293826Y-99636076D01*
X183284448Y-99658715D01*
X183279668Y-99682748D01*
X183279668Y-99707252D01*
X183284448Y-99731285D01*
X183293826Y-99753924D01*
X183307440Y-99774299D01*
X183324767Y-99791626D01*
X183345141Y-99805239D01*
X183426557Y-99848756D01*
X183514264Y-99920736D01*
X183586244Y-100008443D01*
X183598683Y-100031716D01*
X183639728Y-100108505D01*
X183639729Y-100108508D01*
X183672666Y-100217084D01*
X183683787Y-100330000D01*
X183672666Y-100442916D01*
X183639729Y-100551492D01*
X183639728Y-100551495D01*
X183620429Y-100587601D01*
X183586244Y-100651557D01*
X183514264Y-100739264D01*
X183426557Y-100811244D01*
X183362601Y-100845429D01*
X183326495Y-100864728D01*
X183326492Y-100864729D01*
X183217916Y-100897666D01*
X183133298Y-100906000D01*
X182626702Y-100906000D01*
X182542084Y-100897666D01*
X182433508Y-100864729D01*
X182433505Y-100864728D01*
X182397399Y-100845429D01*
X182333443Y-100811244D01*
X182245736Y-100739264D01*
X182173756Y-100651557D01*
X182139571Y-100587601D01*
X182120272Y-100551495D01*
X182120271Y-100551492D01*
X182087334Y-100442916D01*
X182076213Y-100330000D01*
X182087334Y-100217084D01*
X182120271Y-100108508D01*
X182120272Y-100108505D01*
X182161317Y-100031716D01*
X182173756Y-100008443D01*
X182245736Y-99920736D01*
X182333443Y-99848756D01*
X182414859Y-99805239D01*
X182435234Y-99791625D01*
X182452561Y-99774298D01*
X182466174Y-99753924D01*
X182475552Y-99731285D01*
X182480332Y-99707252D01*
X182480332Y-99682748D01*
X182475552Y-99658715D01*
X182466174Y-99636076D01*
X182452560Y-99615701D01*
X182435233Y-99598374D01*
X182414859Y-99584761D01*
X182333443Y-99541244D01*
X182245736Y-99469264D01*
X182173756Y-99381557D01*
X182139571Y-99317601D01*
X182120272Y-99281495D01*
X182120271Y-99281492D01*
X182087334Y-99172916D01*
X182076213Y-99060000D01*
X182087334Y-98947084D01*
X182120271Y-98838508D01*
X182120272Y-98838505D01*
X182139571Y-98802399D01*
X182173756Y-98738443D01*
X182245736Y-98650736D01*
X182322646Y-98587617D01*
X182339965Y-98570298D01*
X182353579Y-98549923D01*
X182362957Y-98527284D01*
X182367737Y-98503251D01*
X182367737Y-98478747D01*
X182362957Y-98454714D01*
X182353579Y-98432075D01*
X182339966Y-98411701D01*
X182322639Y-98394374D01*
X182302264Y-98380760D01*
X182279625Y-98371382D01*
X182255592Y-98366602D01*
X182243340Y-98366000D01*
X182079000Y-98366000D01*
X182079000Y-97214000D01*
X183681000Y-97214000D01*
X183681000Y-98366000D01*
G37*
G36*
X39734903Y-97857075D02*
G01*
X39962571Y-97951378D01*
X40167466Y-98088285D01*
X40341715Y-98262534D01*
X40478622Y-98467429D01*
X40478623Y-98467431D01*
X40572925Y-98695097D01*
X40621000Y-98936786D01*
X40621000Y-99183214D01*
X40572925Y-99424903D01*
X40485455Y-99636076D01*
X40478622Y-99652571D01*
X40341715Y-99857466D01*
X40167466Y-100031715D01*
X39962571Y-100168622D01*
X39962570Y-100168623D01*
X39962569Y-100168623D01*
X39734903Y-100262925D01*
X39493214Y-100311000D01*
X39246786Y-100311000D01*
X39005097Y-100262925D01*
X38777431Y-100168623D01*
X38777430Y-100168623D01*
X38777429Y-100168622D01*
X38572534Y-100031715D01*
X38398285Y-99857466D01*
X38261378Y-99652571D01*
X38254546Y-99636076D01*
X38167075Y-99424903D01*
X38119000Y-99183214D01*
X38119000Y-98936786D01*
X38167075Y-98695097D01*
X38261377Y-98467431D01*
X38261378Y-98467429D01*
X38398285Y-98262534D01*
X38572534Y-98088285D01*
X38777429Y-97951378D01*
X39005097Y-97857075D01*
X39246786Y-97809000D01*
X39493214Y-97809000D01*
X39734903Y-97857075D01*
G37*
G36*
X193404903Y-97857075D02*
G01*
X193632571Y-97951378D01*
X193837466Y-98088285D01*
X194011715Y-98262534D01*
X194148622Y-98467429D01*
X194148623Y-98467431D01*
X194242925Y-98695097D01*
X194291000Y-98936786D01*
X194291000Y-99183214D01*
X194242925Y-99424903D01*
X194155455Y-99636076D01*
X194148622Y-99652571D01*
X194011715Y-99857466D01*
X193837466Y-100031715D01*
X193632571Y-100168622D01*
X193632570Y-100168623D01*
X193632569Y-100168623D01*
X193404903Y-100262925D01*
X193163214Y-100311000D01*
X192916786Y-100311000D01*
X192675097Y-100262925D01*
X192447431Y-100168623D01*
X192447430Y-100168623D01*
X192447429Y-100168622D01*
X192242534Y-100031715D01*
X192068285Y-99857466D01*
X191931378Y-99652571D01*
X191924546Y-99636076D01*
X191837075Y-99424903D01*
X191789000Y-99183214D01*
X191789000Y-98936786D01*
X191837075Y-98695097D01*
X191931377Y-98467431D01*
X191931378Y-98467429D01*
X192068285Y-98262534D01*
X192242534Y-98088285D01*
X192447429Y-97951378D01*
X192675097Y-97857075D01*
X192916786Y-97809000D01*
X193163214Y-97809000D01*
X193404903Y-97857075D01*
G37*
G36*
X164194903Y-97857075D02*
G01*
X164422571Y-97951378D01*
X164627466Y-98088285D01*
X164801715Y-98262534D01*
X164938622Y-98467429D01*
X164938623Y-98467431D01*
X165032925Y-98695097D01*
X165081000Y-98936786D01*
X165081000Y-99183214D01*
X165032925Y-99424903D01*
X164945455Y-99636076D01*
X164938622Y-99652571D01*
X164801715Y-99857466D01*
X164627466Y-100031715D01*
X164422571Y-100168622D01*
X164422570Y-100168623D01*
X164422569Y-100168623D01*
X164194903Y-100262925D01*
X163953214Y-100311000D01*
X163706786Y-100311000D01*
X163465097Y-100262925D01*
X163237431Y-100168623D01*
X163237430Y-100168623D01*
X163237429Y-100168622D01*
X163032534Y-100031715D01*
X162858285Y-99857466D01*
X162721378Y-99652571D01*
X162714546Y-99636076D01*
X162627075Y-99424903D01*
X162579000Y-99183214D01*
X162579000Y-98936786D01*
X162627075Y-98695097D01*
X162721377Y-98467431D01*
X162721378Y-98467429D01*
X162858285Y-98262534D01*
X163032534Y-98088285D01*
X163237429Y-97951378D01*
X163465097Y-97857075D01*
X163706786Y-97809000D01*
X163953214Y-97809000D01*
X164194903Y-97857075D01*
G37*
G36*
X132444903Y-97857075D02*
G01*
X132672571Y-97951378D01*
X132877466Y-98088285D01*
X133051715Y-98262534D01*
X133188622Y-98467429D01*
X133188623Y-98467431D01*
X133282925Y-98695097D01*
X133331000Y-98936786D01*
X133331000Y-99183214D01*
X133282925Y-99424903D01*
X133195455Y-99636076D01*
X133188622Y-99652571D01*
X133051715Y-99857466D01*
X132877466Y-100031715D01*
X132672571Y-100168622D01*
X132672570Y-100168623D01*
X132672569Y-100168623D01*
X132444903Y-100262925D01*
X132203214Y-100311000D01*
X131956786Y-100311000D01*
X131715097Y-100262925D01*
X131487431Y-100168623D01*
X131487430Y-100168623D01*
X131487429Y-100168622D01*
X131282534Y-100031715D01*
X131108285Y-99857466D01*
X130971378Y-99652571D01*
X130964546Y-99636076D01*
X130877075Y-99424903D01*
X130829000Y-99183214D01*
X130829000Y-98936786D01*
X130877075Y-98695097D01*
X130971377Y-98467431D01*
X130971378Y-98467429D01*
X131108285Y-98262534D01*
X131282534Y-98088285D01*
X131487429Y-97951378D01*
X131715097Y-97857075D01*
X131956786Y-97809000D01*
X132203214Y-97809000D01*
X132444903Y-97857075D01*
G37*
G36*
X71484903Y-97857075D02*
G01*
X71712571Y-97951378D01*
X71917466Y-98088285D01*
X72091715Y-98262534D01*
X72228622Y-98467429D01*
X72228623Y-98467431D01*
X72322925Y-98695097D01*
X72371000Y-98936786D01*
X72371000Y-99183214D01*
X72322925Y-99424903D01*
X72235455Y-99636076D01*
X72228622Y-99652571D01*
X72091715Y-99857466D01*
X71917466Y-100031715D01*
X71712571Y-100168622D01*
X71712570Y-100168623D01*
X71712569Y-100168623D01*
X71484903Y-100262925D01*
X71243214Y-100311000D01*
X70996786Y-100311000D01*
X70755097Y-100262925D01*
X70527431Y-100168623D01*
X70527430Y-100168623D01*
X70527429Y-100168622D01*
X70322534Y-100031715D01*
X70148285Y-99857466D01*
X70011378Y-99652571D01*
X70004546Y-99636076D01*
X69917075Y-99424903D01*
X69869000Y-99183214D01*
X69869000Y-98936786D01*
X69917075Y-98695097D01*
X70011377Y-98467431D01*
X70011378Y-98467429D01*
X70148285Y-98262534D01*
X70322534Y-98088285D01*
X70527429Y-97951378D01*
X70755097Y-97857075D01*
X70996786Y-97809000D01*
X71243214Y-97809000D01*
X71484903Y-97857075D01*
G37*
G36*
X101964903Y-97857075D02*
G01*
X102192571Y-97951378D01*
X102397466Y-98088285D01*
X102571715Y-98262534D01*
X102708622Y-98467429D01*
X102708623Y-98467431D01*
X102802925Y-98695097D01*
X102851000Y-98936786D01*
X102851000Y-99183214D01*
X102802925Y-99424903D01*
X102715455Y-99636076D01*
X102708622Y-99652571D01*
X102571715Y-99857466D01*
X102397466Y-100031715D01*
X102192571Y-100168622D01*
X102192570Y-100168623D01*
X102192569Y-100168623D01*
X101964903Y-100262925D01*
X101723214Y-100311000D01*
X101476786Y-100311000D01*
X101235097Y-100262925D01*
X101007431Y-100168623D01*
X101007430Y-100168623D01*
X101007429Y-100168622D01*
X100802534Y-100031715D01*
X100628285Y-99857466D01*
X100491378Y-99652571D01*
X100484546Y-99636076D01*
X100397075Y-99424903D01*
X100349000Y-99183214D01*
X100349000Y-98936786D01*
X100397075Y-98695097D01*
X100491377Y-98467431D01*
X100491378Y-98467429D01*
X100628285Y-98262534D01*
X100802534Y-98088285D01*
X101007429Y-97951378D01*
X101235097Y-97857075D01*
X101476786Y-97809000D01*
X101723214Y-97809000D01*
X101964903Y-97857075D01*
G37*
G36*
X30704549Y-87771116D02*
G01*
X30815734Y-87793232D01*
X31025203Y-87879997D01*
X31213720Y-88005960D01*
X31374040Y-88166280D01*
X31500003Y-88354797D01*
X31586768Y-88564266D01*
X31631000Y-88786636D01*
X31631000Y-89013364D01*
X31586768Y-89235734D01*
X31500003Y-89445203D01*
X31374040Y-89633720D01*
X31213720Y-89794040D01*
X31025203Y-89920003D01*
X30815734Y-90006768D01*
X30704549Y-90028884D01*
X30593365Y-90051000D01*
X30366635Y-90051000D01*
X30255451Y-90028884D01*
X30144266Y-90006768D01*
X29934797Y-89920003D01*
X29746280Y-89794040D01*
X29585960Y-89633720D01*
X29459997Y-89445203D01*
X29373232Y-89235734D01*
X29329000Y-89013364D01*
X29329000Y-88786636D01*
X29373232Y-88564266D01*
X29459997Y-88354797D01*
X29585960Y-88166280D01*
X29746280Y-88005960D01*
X29934797Y-87879997D01*
X30144266Y-87793232D01*
X30255451Y-87771116D01*
X30366635Y-87749000D01*
X30593365Y-87749000D01*
X30704549Y-87771116D01*
G37*
G36*
X41791000Y-90051000D02*
G01*
X39489000Y-90051000D01*
X39489000Y-87749000D01*
X41791000Y-87749000D01*
X41791000Y-90051000D01*
G37*
G36*
X183104549Y-87771116D02*
G01*
X183215734Y-87793232D01*
X183425203Y-87879997D01*
X183613720Y-88005960D01*
X183774040Y-88166280D01*
X183900003Y-88354797D01*
X183986768Y-88564266D01*
X184031000Y-88786636D01*
X184031000Y-89013364D01*
X183986768Y-89235734D01*
X183900003Y-89445203D01*
X183774040Y-89633720D01*
X183613720Y-89794040D01*
X183425203Y-89920003D01*
X183215734Y-90006768D01*
X183104549Y-90028884D01*
X182993365Y-90051000D01*
X182766635Y-90051000D01*
X182655451Y-90028884D01*
X182544266Y-90006768D01*
X182334797Y-89920003D01*
X182146280Y-89794040D01*
X181985960Y-89633720D01*
X181859997Y-89445203D01*
X181773232Y-89235734D01*
X181729000Y-89013364D01*
X181729000Y-88786636D01*
X181773232Y-88564266D01*
X181859997Y-88354797D01*
X181985960Y-88166280D01*
X182146280Y-88005960D01*
X182334797Y-87879997D01*
X182544266Y-87793232D01*
X182655451Y-87771116D01*
X182766635Y-87749000D01*
X182993365Y-87749000D01*
X183104549Y-87771116D01*
G37*
G36*
X194191000Y-90051000D02*
G01*
X191889000Y-90051000D01*
X191889000Y-87749000D01*
X194191000Y-87749000D01*
X194191000Y-90051000D01*
G37*
G36*
X152624549Y-87771116D02*
G01*
X152735734Y-87793232D01*
X152945203Y-87879997D01*
X153133720Y-88005960D01*
X153294040Y-88166280D01*
X153420003Y-88354797D01*
X153506768Y-88564266D01*
X153551000Y-88786636D01*
X153551000Y-89013364D01*
X153506768Y-89235734D01*
X153420003Y-89445203D01*
X153294040Y-89633720D01*
X153133720Y-89794040D01*
X152945203Y-89920003D01*
X152735734Y-90006768D01*
X152624549Y-90028884D01*
X152513365Y-90051000D01*
X152286635Y-90051000D01*
X152175451Y-90028884D01*
X152064266Y-90006768D01*
X151854797Y-89920003D01*
X151666280Y-89794040D01*
X151505960Y-89633720D01*
X151379997Y-89445203D01*
X151293232Y-89235734D01*
X151249000Y-89013364D01*
X151249000Y-88786636D01*
X151293232Y-88564266D01*
X151379997Y-88354797D01*
X151505960Y-88166280D01*
X151666280Y-88005960D01*
X151854797Y-87879997D01*
X152064266Y-87793232D01*
X152175451Y-87771116D01*
X152286635Y-87749000D01*
X152513365Y-87749000D01*
X152624549Y-87771116D01*
G37*
G36*
X163711000Y-90051000D02*
G01*
X161409000Y-90051000D01*
X161409000Y-87749000D01*
X163711000Y-87749000D01*
X163711000Y-90051000D01*
G37*
G36*
X122144549Y-87771116D02*
G01*
X122255734Y-87793232D01*
X122465203Y-87879997D01*
X122653720Y-88005960D01*
X122814040Y-88166280D01*
X122940003Y-88354797D01*
X123026768Y-88564266D01*
X123071000Y-88786636D01*
X123071000Y-89013364D01*
X123026768Y-89235734D01*
X122940003Y-89445203D01*
X122814040Y-89633720D01*
X122653720Y-89794040D01*
X122465203Y-89920003D01*
X122255734Y-90006768D01*
X122144549Y-90028884D01*
X122033365Y-90051000D01*
X121806635Y-90051000D01*
X121695451Y-90028884D01*
X121584266Y-90006768D01*
X121374797Y-89920003D01*
X121186280Y-89794040D01*
X121025960Y-89633720D01*
X120899997Y-89445203D01*
X120813232Y-89235734D01*
X120769000Y-89013364D01*
X120769000Y-88786636D01*
X120813232Y-88564266D01*
X120899997Y-88354797D01*
X121025960Y-88166280D01*
X121186280Y-88005960D01*
X121374797Y-87879997D01*
X121584266Y-87793232D01*
X121695451Y-87771116D01*
X121806635Y-87749000D01*
X122033365Y-87749000D01*
X122144549Y-87771116D01*
G37*
G36*
X133231000Y-90051000D02*
G01*
X130929000Y-90051000D01*
X130929000Y-87749000D01*
X133231000Y-87749000D01*
X133231000Y-90051000D01*
G37*
G36*
X91664549Y-87771116D02*
G01*
X91775734Y-87793232D01*
X91985203Y-87879997D01*
X92173720Y-88005960D01*
X92334040Y-88166280D01*
X92460003Y-88354797D01*
X92546768Y-88564266D01*
X92591000Y-88786636D01*
X92591000Y-89013364D01*
X92546768Y-89235734D01*
X92460003Y-89445203D01*
X92334040Y-89633720D01*
X92173720Y-89794040D01*
X91985203Y-89920003D01*
X91775734Y-90006768D01*
X91664549Y-90028884D01*
X91553365Y-90051000D01*
X91326635Y-90051000D01*
X91215451Y-90028884D01*
X91104266Y-90006768D01*
X90894797Y-89920003D01*
X90706280Y-89794040D01*
X90545960Y-89633720D01*
X90419997Y-89445203D01*
X90333232Y-89235734D01*
X90289000Y-89013364D01*
X90289000Y-88786636D01*
X90333232Y-88564266D01*
X90419997Y-88354797D01*
X90545960Y-88166280D01*
X90706280Y-88005960D01*
X90894797Y-87879997D01*
X91104266Y-87793232D01*
X91215451Y-87771116D01*
X91326635Y-87749000D01*
X91553365Y-87749000D01*
X91664549Y-87771116D01*
G37*
G36*
X102751000Y-90051000D02*
G01*
X100449000Y-90051000D01*
X100449000Y-87749000D01*
X102751000Y-87749000D01*
X102751000Y-90051000D01*
G37*
G36*
X61184549Y-87771116D02*
G01*
X61295734Y-87793232D01*
X61505203Y-87879997D01*
X61693720Y-88005960D01*
X61854040Y-88166280D01*
X61980003Y-88354797D01*
X62066768Y-88564266D01*
X62111000Y-88786636D01*
X62111000Y-89013364D01*
X62066768Y-89235734D01*
X61980003Y-89445203D01*
X61854040Y-89633720D01*
X61693720Y-89794040D01*
X61505203Y-89920003D01*
X61295734Y-90006768D01*
X61184549Y-90028884D01*
X61073365Y-90051000D01*
X60846635Y-90051000D01*
X60735451Y-90028884D01*
X60624266Y-90006768D01*
X60414797Y-89920003D01*
X60226280Y-89794040D01*
X60065960Y-89633720D01*
X59939997Y-89445203D01*
X59853232Y-89235734D01*
X59809000Y-89013364D01*
X59809000Y-88786636D01*
X59853232Y-88564266D01*
X59939997Y-88354797D01*
X60065960Y-88166280D01*
X60226280Y-88005960D01*
X60414797Y-87879997D01*
X60624266Y-87793232D01*
X60735451Y-87771116D01*
X60846635Y-87749000D01*
X61073365Y-87749000D01*
X61184549Y-87771116D01*
G37*
G36*
X72271000Y-90051000D02*
G01*
X69969000Y-90051000D01*
X69969000Y-87749000D01*
X72271000Y-87749000D01*
X72271000Y-90051000D01*
G37*
G36*
X61618210Y-72618489D02*
G01*
X61704950Y-72644802D01*
X61784889Y-72687530D01*
X61854962Y-72745038D01*
X61912470Y-72815111D01*
X61955198Y-72895050D01*
X61981511Y-72981790D01*
X61991000Y-73078140D01*
X61991000Y-74241860D01*
X61981511Y-74338210D01*
X61955198Y-74424950D01*
X61912470Y-74504889D01*
X61854962Y-74574962D01*
X61784889Y-74632470D01*
X61704950Y-74675198D01*
X61618210Y-74701511D01*
X61521860Y-74711000D01*
X60358140Y-74711000D01*
X60261790Y-74701511D01*
X60175050Y-74675198D01*
X60095111Y-74632470D01*
X60025038Y-74574962D01*
X59967530Y-74504889D01*
X59924802Y-74424950D01*
X59898489Y-74338210D01*
X59889000Y-74241860D01*
X59889000Y-73078140D01*
X59898489Y-72981790D01*
X59924802Y-72895050D01*
X59967530Y-72815111D01*
X60025038Y-72745038D01*
X60095111Y-72687530D01*
X60175050Y-72644802D01*
X60261790Y-72618489D01*
X60358140Y-72609000D01*
X61521860Y-72609000D01*
X61618210Y-72618489D01*
G37*
G36*
X183538210Y-72618489D02*
G01*
X183624950Y-72644802D01*
X183704889Y-72687530D01*
X183774962Y-72745038D01*
X183832470Y-72815111D01*
X183875198Y-72895050D01*
X183901511Y-72981790D01*
X183911000Y-73078140D01*
X183911000Y-74241860D01*
X183901511Y-74338210D01*
X183875198Y-74424950D01*
X183832470Y-74504889D01*
X183774962Y-74574962D01*
X183704889Y-74632470D01*
X183624950Y-74675198D01*
X183538210Y-74701511D01*
X183441860Y-74711000D01*
X182278140Y-74711000D01*
X182181790Y-74701511D01*
X182095050Y-74675198D01*
X182015111Y-74632470D01*
X181945038Y-74574962D01*
X181887530Y-74504889D01*
X181844802Y-74424950D01*
X181818489Y-74338210D01*
X181809000Y-74241860D01*
X181809000Y-73078140D01*
X181818489Y-72981790D01*
X181844802Y-72895050D01*
X181887530Y-72815111D01*
X181945038Y-72745038D01*
X182015111Y-72687530D01*
X182095050Y-72644802D01*
X182181790Y-72618489D01*
X182278140Y-72609000D01*
X183441860Y-72609000D01*
X183538210Y-72618489D01*
G37*
G36*
X40966564Y-72649389D02*
G01*
X41157833Y-72728615D01*
X41157835Y-72728616D01*
X41182412Y-72745038D01*
X41329973Y-72843635D01*
X41476365Y-72990027D01*
X41591385Y-73162167D01*
X41670611Y-73353436D01*
X41711000Y-73556484D01*
X41711000Y-73763516D01*
X41670611Y-73966564D01*
X41591385Y-74157833D01*
X41591384Y-74157835D01*
X41476365Y-74329973D01*
X41329973Y-74476365D01*
X41157835Y-74591384D01*
X41157834Y-74591385D01*
X41157833Y-74591385D01*
X40966564Y-74670611D01*
X40763516Y-74711000D01*
X40556484Y-74711000D01*
X40353436Y-74670611D01*
X40162167Y-74591385D01*
X40162166Y-74591385D01*
X40162165Y-74591384D01*
X39990027Y-74476365D01*
X39843635Y-74329973D01*
X39728616Y-74157835D01*
X39728615Y-74157833D01*
X39649389Y-73966564D01*
X39609000Y-73763516D01*
X39609000Y-73556484D01*
X39649389Y-73353436D01*
X39728615Y-73162167D01*
X39843635Y-72990027D01*
X39990027Y-72843635D01*
X40137588Y-72745038D01*
X40162165Y-72728616D01*
X40162167Y-72728615D01*
X40353436Y-72649389D01*
X40556484Y-72609000D01*
X40763516Y-72609000D01*
X40966564Y-72649389D01*
G37*
G36*
X31138210Y-72618489D02*
G01*
X31224950Y-72644802D01*
X31304889Y-72687530D01*
X31374962Y-72745038D01*
X31432470Y-72815111D01*
X31475198Y-72895050D01*
X31501511Y-72981790D01*
X31511000Y-73078140D01*
X31511000Y-74241860D01*
X31501511Y-74338210D01*
X31475198Y-74424950D01*
X31432470Y-74504889D01*
X31374962Y-74574962D01*
X31304889Y-74632470D01*
X31224950Y-74675198D01*
X31138210Y-74701511D01*
X31041860Y-74711000D01*
X29878140Y-74711000D01*
X29781790Y-74701511D01*
X29695050Y-74675198D01*
X29615111Y-74632470D01*
X29545038Y-74574962D01*
X29487530Y-74504889D01*
X29444802Y-74424950D01*
X29418489Y-74338210D01*
X29409000Y-74241860D01*
X29409000Y-73078140D01*
X29418489Y-72981790D01*
X29444802Y-72895050D01*
X29487530Y-72815111D01*
X29545038Y-72745038D01*
X29615111Y-72687530D01*
X29695050Y-72644802D01*
X29781790Y-72618489D01*
X29878140Y-72609000D01*
X31041860Y-72609000D01*
X31138210Y-72618489D01*
G37*
G36*
X71446564Y-72649389D02*
G01*
X71637833Y-72728615D01*
X71637835Y-72728616D01*
X71662412Y-72745038D01*
X71809973Y-72843635D01*
X71956365Y-72990027D01*
X72071385Y-73162167D01*
X72150611Y-73353436D01*
X72191000Y-73556484D01*
X72191000Y-73763516D01*
X72150611Y-73966564D01*
X72071385Y-74157833D01*
X72071384Y-74157835D01*
X71956365Y-74329973D01*
X71809973Y-74476365D01*
X71637835Y-74591384D01*
X71637834Y-74591385D01*
X71637833Y-74591385D01*
X71446564Y-74670611D01*
X71243516Y-74711000D01*
X71036484Y-74711000D01*
X70833436Y-74670611D01*
X70642167Y-74591385D01*
X70642166Y-74591385D01*
X70642165Y-74591384D01*
X70470027Y-74476365D01*
X70323635Y-74329973D01*
X70208616Y-74157835D01*
X70208615Y-74157833D01*
X70129389Y-73966564D01*
X70089000Y-73763516D01*
X70089000Y-73556484D01*
X70129389Y-73353436D01*
X70208615Y-73162167D01*
X70323635Y-72990027D01*
X70470027Y-72843635D01*
X70617588Y-72745038D01*
X70642165Y-72728616D01*
X70642167Y-72728615D01*
X70833436Y-72649389D01*
X71036484Y-72609000D01*
X71243516Y-72609000D01*
X71446564Y-72649389D01*
G37*
G36*
X153058210Y-72618489D02*
G01*
X153144950Y-72644802D01*
X153224889Y-72687530D01*
X153294962Y-72745038D01*
X153352470Y-72815111D01*
X153395198Y-72895050D01*
X153421511Y-72981790D01*
X153431000Y-73078140D01*
X153431000Y-74241860D01*
X153421511Y-74338210D01*
X153395198Y-74424950D01*
X153352470Y-74504889D01*
X153294962Y-74574962D01*
X153224889Y-74632470D01*
X153144950Y-74675198D01*
X153058210Y-74701511D01*
X152961860Y-74711000D01*
X151798140Y-74711000D01*
X151701790Y-74701511D01*
X151615050Y-74675198D01*
X151535111Y-74632470D01*
X151465038Y-74574962D01*
X151407530Y-74504889D01*
X151364802Y-74424950D01*
X151338489Y-74338210D01*
X151329000Y-74241860D01*
X151329000Y-73078140D01*
X151338489Y-72981790D01*
X151364802Y-72895050D01*
X151407530Y-72815111D01*
X151465038Y-72745038D01*
X151535111Y-72687530D01*
X151615050Y-72644802D01*
X151701790Y-72618489D01*
X151798140Y-72609000D01*
X152961860Y-72609000D01*
X153058210Y-72618489D01*
G37*
G36*
X122578210Y-72618489D02*
G01*
X122664950Y-72644802D01*
X122744889Y-72687530D01*
X122814962Y-72745038D01*
X122872470Y-72815111D01*
X122915198Y-72895050D01*
X122941511Y-72981790D01*
X122951000Y-73078140D01*
X122951000Y-74241860D01*
X122941511Y-74338210D01*
X122915198Y-74424950D01*
X122872470Y-74504889D01*
X122814962Y-74574962D01*
X122744889Y-74632470D01*
X122664950Y-74675198D01*
X122578210Y-74701511D01*
X122481860Y-74711000D01*
X121318140Y-74711000D01*
X121221790Y-74701511D01*
X121135050Y-74675198D01*
X121055111Y-74632470D01*
X120985038Y-74574962D01*
X120927530Y-74504889D01*
X120884802Y-74424950D01*
X120858489Y-74338210D01*
X120849000Y-74241860D01*
X120849000Y-73078140D01*
X120858489Y-72981790D01*
X120884802Y-72895050D01*
X120927530Y-72815111D01*
X120985038Y-72745038D01*
X121055111Y-72687530D01*
X121135050Y-72644802D01*
X121221790Y-72618489D01*
X121318140Y-72609000D01*
X122481860Y-72609000D01*
X122578210Y-72618489D01*
G37*
G36*
X132406564Y-72649389D02*
G01*
X132597833Y-72728615D01*
X132597835Y-72728616D01*
X132622412Y-72745038D01*
X132769973Y-72843635D01*
X132916365Y-72990027D01*
X133031385Y-73162167D01*
X133110611Y-73353436D01*
X133151000Y-73556484D01*
X133151000Y-73763516D01*
X133110611Y-73966564D01*
X133031385Y-74157833D01*
X133031384Y-74157835D01*
X132916365Y-74329973D01*
X132769973Y-74476365D01*
X132597835Y-74591384D01*
X132597834Y-74591385D01*
X132597833Y-74591385D01*
X132406564Y-74670611D01*
X132203516Y-74711000D01*
X131996484Y-74711000D01*
X131793436Y-74670611D01*
X131602167Y-74591385D01*
X131602166Y-74591385D01*
X131602165Y-74591384D01*
X131430027Y-74476365D01*
X131283635Y-74329973D01*
X131168616Y-74157835D01*
X131168615Y-74157833D01*
X131089389Y-73966564D01*
X131049000Y-73763516D01*
X131049000Y-73556484D01*
X131089389Y-73353436D01*
X131168615Y-73162167D01*
X131283635Y-72990027D01*
X131430027Y-72843635D01*
X131577588Y-72745038D01*
X131602165Y-72728616D01*
X131602167Y-72728615D01*
X131793436Y-72649389D01*
X131996484Y-72609000D01*
X132203516Y-72609000D01*
X132406564Y-72649389D01*
G37*
G36*
X92098210Y-72618489D02*
G01*
X92184950Y-72644802D01*
X92264889Y-72687530D01*
X92334962Y-72745038D01*
X92392470Y-72815111D01*
X92435198Y-72895050D01*
X92461511Y-72981790D01*
X92471000Y-73078140D01*
X92471000Y-74241860D01*
X92461511Y-74338210D01*
X92435198Y-74424950D01*
X92392470Y-74504889D01*
X92334962Y-74574962D01*
X92264889Y-74632470D01*
X92184950Y-74675198D01*
X92098210Y-74701511D01*
X92001860Y-74711000D01*
X90838140Y-74711000D01*
X90741790Y-74701511D01*
X90655050Y-74675198D01*
X90575111Y-74632470D01*
X90505038Y-74574962D01*
X90447530Y-74504889D01*
X90404802Y-74424950D01*
X90378489Y-74338210D01*
X90369000Y-74241860D01*
X90369000Y-73078140D01*
X90378489Y-72981790D01*
X90404802Y-72895050D01*
X90447530Y-72815111D01*
X90505038Y-72745038D01*
X90575111Y-72687530D01*
X90655050Y-72644802D01*
X90741790Y-72618489D01*
X90838140Y-72609000D01*
X92001860Y-72609000D01*
X92098210Y-72618489D01*
G37*
G36*
X101926564Y-72649389D02*
G01*
X102117833Y-72728615D01*
X102117835Y-72728616D01*
X102142412Y-72745038D01*
X102289973Y-72843635D01*
X102436365Y-72990027D01*
X102551385Y-73162167D01*
X102630611Y-73353436D01*
X102671000Y-73556484D01*
X102671000Y-73763516D01*
X102630611Y-73966564D01*
X102551385Y-74157833D01*
X102551384Y-74157835D01*
X102436365Y-74329973D01*
X102289973Y-74476365D01*
X102117835Y-74591384D01*
X102117834Y-74591385D01*
X102117833Y-74591385D01*
X101926564Y-74670611D01*
X101723516Y-74711000D01*
X101516484Y-74711000D01*
X101313436Y-74670611D01*
X101122167Y-74591385D01*
X101122166Y-74591385D01*
X101122165Y-74591384D01*
X100950027Y-74476365D01*
X100803635Y-74329973D01*
X100688616Y-74157835D01*
X100688615Y-74157833D01*
X100609389Y-73966564D01*
X100569000Y-73763516D01*
X100569000Y-73556484D01*
X100609389Y-73353436D01*
X100688615Y-73162167D01*
X100803635Y-72990027D01*
X100950027Y-72843635D01*
X101097588Y-72745038D01*
X101122165Y-72728616D01*
X101122167Y-72728615D01*
X101313436Y-72649389D01*
X101516484Y-72609000D01*
X101723516Y-72609000D01*
X101926564Y-72649389D01*
G37*
G36*
X193366564Y-72649389D02*
G01*
X193557833Y-72728615D01*
X193557835Y-72728616D01*
X193582412Y-72745038D01*
X193729973Y-72843635D01*
X193876365Y-72990027D01*
X193991385Y-73162167D01*
X194070611Y-73353436D01*
X194111000Y-73556484D01*
X194111000Y-73763516D01*
X194070611Y-73966564D01*
X193991385Y-74157833D01*
X193991384Y-74157835D01*
X193876365Y-74329973D01*
X193729973Y-74476365D01*
X193557835Y-74591384D01*
X193557834Y-74591385D01*
X193557833Y-74591385D01*
X193366564Y-74670611D01*
X193163516Y-74711000D01*
X192956484Y-74711000D01*
X192753436Y-74670611D01*
X192562167Y-74591385D01*
X192562166Y-74591385D01*
X192562165Y-74591384D01*
X192390027Y-74476365D01*
X192243635Y-74329973D01*
X192128616Y-74157835D01*
X192128615Y-74157833D01*
X192049389Y-73966564D01*
X192009000Y-73763516D01*
X192009000Y-73556484D01*
X192049389Y-73353436D01*
X192128615Y-73162167D01*
X192243635Y-72990027D01*
X192390027Y-72843635D01*
X192537588Y-72745038D01*
X192562165Y-72728616D01*
X192562167Y-72728615D01*
X192753436Y-72649389D01*
X192956484Y-72609000D01*
X193163516Y-72609000D01*
X193366564Y-72649389D01*
G37*
G36*
X162886564Y-72649389D02*
G01*
X163077833Y-72728615D01*
X163077835Y-72728616D01*
X163102412Y-72745038D01*
X163249973Y-72843635D01*
X163396365Y-72990027D01*
X163511385Y-73162167D01*
X163590611Y-73353436D01*
X163631000Y-73556484D01*
X163631000Y-73763516D01*
X163590611Y-73966564D01*
X163511385Y-74157833D01*
X163511384Y-74157835D01*
X163396365Y-74329973D01*
X163249973Y-74476365D01*
X163077835Y-74591384D01*
X163077834Y-74591385D01*
X163077833Y-74591385D01*
X162886564Y-74670611D01*
X162683516Y-74711000D01*
X162476484Y-74711000D01*
X162273436Y-74670611D01*
X162082167Y-74591385D01*
X162082166Y-74591385D01*
X162082165Y-74591384D01*
X161910027Y-74476365D01*
X161763635Y-74329973D01*
X161648616Y-74157835D01*
X161648615Y-74157833D01*
X161569389Y-73966564D01*
X161529000Y-73763516D01*
X161529000Y-73556484D01*
X161569389Y-73353436D01*
X161648615Y-73162167D01*
X161763635Y-72990027D01*
X161910027Y-72843635D01*
X162057588Y-72745038D01*
X162082165Y-72728616D01*
X162082167Y-72728615D01*
X162273436Y-72649389D01*
X162476484Y-72609000D01*
X162683516Y-72609000D01*
X162886564Y-72649389D01*
G37*
G36*
X57442585Y-59478802D02*
G01*
X57592410Y-59508604D01*
X57874674Y-59625521D01*
X58128705Y-59795259D01*
X58344741Y-60011295D01*
X58514479Y-60265326D01*
X58631396Y-60547590D01*
X58691000Y-60847240D01*
X58691000Y-61152760D01*
X58631396Y-61452410D01*
X58514479Y-61734674D01*
X58344741Y-61988705D01*
X58128705Y-62204741D01*
X57874674Y-62374479D01*
X57592410Y-62491396D01*
X57442585Y-62521198D01*
X57292761Y-62551000D01*
X56987239Y-62551000D01*
X56837415Y-62521198D01*
X56687590Y-62491396D01*
X56405326Y-62374479D01*
X56151295Y-62204741D01*
X55935259Y-61988705D01*
X55765521Y-61734674D01*
X55648604Y-61452410D01*
X55589000Y-61152760D01*
X55589000Y-60847240D01*
X55648604Y-60547590D01*
X55765521Y-60265326D01*
X55935259Y-60011295D01*
X56151295Y-59795259D01*
X56405326Y-59625521D01*
X56687590Y-59508604D01*
X56837415Y-59478802D01*
X56987239Y-59449000D01*
X57292761Y-59449000D01*
X57442585Y-59478802D01*
G37*
G36*
X87922585Y-59478802D02*
G01*
X88072410Y-59508604D01*
X88354674Y-59625521D01*
X88608705Y-59795259D01*
X88824741Y-60011295D01*
X88994479Y-60265326D01*
X89111396Y-60547590D01*
X89171000Y-60847240D01*
X89171000Y-61152760D01*
X89111396Y-61452410D01*
X88994479Y-61734674D01*
X88824741Y-61988705D01*
X88608705Y-62204741D01*
X88354674Y-62374479D01*
X88072410Y-62491396D01*
X87922585Y-62521198D01*
X87772761Y-62551000D01*
X87467239Y-62551000D01*
X87317415Y-62521198D01*
X87167590Y-62491396D01*
X86885326Y-62374479D01*
X86631295Y-62204741D01*
X86415259Y-61988705D01*
X86245521Y-61734674D01*
X86128604Y-61452410D01*
X86069000Y-61152760D01*
X86069000Y-60847240D01*
X86128604Y-60547590D01*
X86245521Y-60265326D01*
X86415259Y-60011295D01*
X86631295Y-59795259D01*
X86885326Y-59625521D01*
X87167590Y-59508604D01*
X87317415Y-59478802D01*
X87467239Y-59449000D01*
X87772761Y-59449000D01*
X87922585Y-59478802D01*
G37*
G36*
X118402585Y-59478802D02*
G01*
X118552410Y-59508604D01*
X118834674Y-59625521D01*
X119088705Y-59795259D01*
X119304741Y-60011295D01*
X119474479Y-60265326D01*
X119591396Y-60547590D01*
X119651000Y-60847240D01*
X119651000Y-61152760D01*
X119591396Y-61452410D01*
X119474479Y-61734674D01*
X119304741Y-61988705D01*
X119088705Y-62204741D01*
X118834674Y-62374479D01*
X118552410Y-62491396D01*
X118402585Y-62521198D01*
X118252761Y-62551000D01*
X117947239Y-62551000D01*
X117797415Y-62521198D01*
X117647590Y-62491396D01*
X117365326Y-62374479D01*
X117111295Y-62204741D01*
X116895259Y-61988705D01*
X116725521Y-61734674D01*
X116608604Y-61452410D01*
X116549000Y-61152760D01*
X116549000Y-60847240D01*
X116608604Y-60547590D01*
X116725521Y-60265326D01*
X116895259Y-60011295D01*
X117111295Y-59795259D01*
X117365326Y-59625521D01*
X117647590Y-59508604D01*
X117797415Y-59478802D01*
X117947239Y-59449000D01*
X118252761Y-59449000D01*
X118402585Y-59478802D01*
G37*
G36*
X179362585Y-59478802D02*
G01*
X179512410Y-59508604D01*
X179794674Y-59625521D01*
X180048705Y-59795259D01*
X180264741Y-60011295D01*
X180434479Y-60265326D01*
X180551396Y-60547590D01*
X180611000Y-60847240D01*
X180611000Y-61152760D01*
X180551396Y-61452410D01*
X180434479Y-61734674D01*
X180264741Y-61988705D01*
X180048705Y-62204741D01*
X179794674Y-62374479D01*
X179512410Y-62491396D01*
X179362585Y-62521198D01*
X179212761Y-62551000D01*
X178907239Y-62551000D01*
X178757415Y-62521198D01*
X178607590Y-62491396D01*
X178325326Y-62374479D01*
X178071295Y-62204741D01*
X177855259Y-61988705D01*
X177685521Y-61734674D01*
X177568604Y-61452410D01*
X177509000Y-61152760D01*
X177509000Y-60847240D01*
X177568604Y-60547590D01*
X177685521Y-60265326D01*
X177855259Y-60011295D01*
X178071295Y-59795259D01*
X178325326Y-59625521D01*
X178607590Y-59508604D01*
X178757415Y-59478802D01*
X178907239Y-59449000D01*
X179212761Y-59449000D01*
X179362585Y-59478802D01*
G37*
G36*
X148882585Y-59478802D02*
G01*
X149032410Y-59508604D01*
X149314674Y-59625521D01*
X149568705Y-59795259D01*
X149784741Y-60011295D01*
X149954479Y-60265326D01*
X150071396Y-60547590D01*
X150131000Y-60847240D01*
X150131000Y-61152760D01*
X150071396Y-61452410D01*
X149954479Y-61734674D01*
X149784741Y-61988705D01*
X149568705Y-62204741D01*
X149314674Y-62374479D01*
X149032410Y-62491396D01*
X148882585Y-62521198D01*
X148732761Y-62551000D01*
X148427239Y-62551000D01*
X148277415Y-62521198D01*
X148127590Y-62491396D01*
X147845326Y-62374479D01*
X147591295Y-62204741D01*
X147375259Y-61988705D01*
X147205521Y-61734674D01*
X147088604Y-61452410D01*
X147029000Y-61152760D01*
X147029000Y-60847240D01*
X147088604Y-60547590D01*
X147205521Y-60265326D01*
X147375259Y-60011295D01*
X147591295Y-59795259D01*
X147845326Y-59625521D01*
X148127590Y-59508604D01*
X148277415Y-59478802D01*
X148427239Y-59449000D01*
X148732761Y-59449000D01*
X148882585Y-59478802D01*
G37*
G36*
X26962585Y-59478802D02*
G01*
X27112410Y-59508604D01*
X27394674Y-59625521D01*
X27648705Y-59795259D01*
X27864741Y-60011295D01*
X28034479Y-60265326D01*
X28151396Y-60547590D01*
X28211000Y-60847240D01*
X28211000Y-61152760D01*
X28151396Y-61452410D01*
X28034479Y-61734674D01*
X27864741Y-61988705D01*
X27648705Y-62204741D01*
X27394674Y-62374479D01*
X27112410Y-62491396D01*
X26962585Y-62521198D01*
X26812761Y-62551000D01*
X26507239Y-62551000D01*
X26357415Y-62521198D01*
X26207590Y-62491396D01*
X25925326Y-62374479D01*
X25671295Y-62204741D01*
X25455259Y-61988705D01*
X25285521Y-61734674D01*
X25168604Y-61452410D01*
X25109000Y-61152760D01*
X25109000Y-60847240D01*
X25168604Y-60547590D01*
X25285521Y-60265326D01*
X25455259Y-60011295D01*
X25671295Y-59795259D01*
X25925326Y-59625521D01*
X26207590Y-59508604D01*
X26357415Y-59478802D01*
X26507239Y-59449000D01*
X26812761Y-59449000D01*
X26962585Y-59478802D01*
G37*
G36*
X197162585Y-56938802D02*
G01*
X197312410Y-56968604D01*
X197594674Y-57085521D01*
X197848705Y-57255259D01*
X198064741Y-57471295D01*
X198234479Y-57725326D01*
X198351396Y-58007590D01*
X198411000Y-58307240D01*
X198411000Y-58612760D01*
X198351396Y-58912410D01*
X198234479Y-59194674D01*
X198064741Y-59448705D01*
X197848705Y-59664741D01*
X197594674Y-59834479D01*
X197312410Y-59951396D01*
X197162585Y-59981198D01*
X197012761Y-60011000D01*
X196707239Y-60011000D01*
X196557415Y-59981198D01*
X196407590Y-59951396D01*
X196125326Y-59834479D01*
X195871295Y-59664741D01*
X195655259Y-59448705D01*
X195485521Y-59194674D01*
X195368604Y-58912410D01*
X195309000Y-58612760D01*
X195309000Y-58307240D01*
X195368604Y-58007590D01*
X195485521Y-57725326D01*
X195655259Y-57471295D01*
X195871295Y-57255259D01*
X196125326Y-57085521D01*
X196407590Y-56968604D01*
X196557415Y-56938802D01*
X196707239Y-56909000D01*
X197012761Y-56909000D01*
X197162585Y-56938802D01*
G37*
G36*
X166682585Y-56938802D02*
G01*
X166832410Y-56968604D01*
X167114674Y-57085521D01*
X167368705Y-57255259D01*
X167584741Y-57471295D01*
X167754479Y-57725326D01*
X167871396Y-58007590D01*
X167931000Y-58307240D01*
X167931000Y-58612760D01*
X167871396Y-58912410D01*
X167754479Y-59194674D01*
X167584741Y-59448705D01*
X167368705Y-59664741D01*
X167114674Y-59834479D01*
X166832410Y-59951396D01*
X166682585Y-59981198D01*
X166532761Y-60011000D01*
X166227239Y-60011000D01*
X166077415Y-59981198D01*
X165927590Y-59951396D01*
X165645326Y-59834479D01*
X165391295Y-59664741D01*
X165175259Y-59448705D01*
X165005521Y-59194674D01*
X164888604Y-58912410D01*
X164829000Y-58612760D01*
X164829000Y-58307240D01*
X164888604Y-58007590D01*
X165005521Y-57725326D01*
X165175259Y-57471295D01*
X165391295Y-57255259D01*
X165645326Y-57085521D01*
X165927590Y-56968604D01*
X166077415Y-56938802D01*
X166227239Y-56909000D01*
X166532761Y-56909000D01*
X166682585Y-56938802D01*
G37*
G36*
X136202585Y-56938802D02*
G01*
X136352410Y-56968604D01*
X136634674Y-57085521D01*
X136888705Y-57255259D01*
X137104741Y-57471295D01*
X137274479Y-57725326D01*
X137391396Y-58007590D01*
X137451000Y-58307240D01*
X137451000Y-58612760D01*
X137391396Y-58912410D01*
X137274479Y-59194674D01*
X137104741Y-59448705D01*
X136888705Y-59664741D01*
X136634674Y-59834479D01*
X136352410Y-59951396D01*
X136202585Y-59981198D01*
X136052761Y-60011000D01*
X135747239Y-60011000D01*
X135597415Y-59981198D01*
X135447590Y-59951396D01*
X135165326Y-59834479D01*
X134911295Y-59664741D01*
X134695259Y-59448705D01*
X134525521Y-59194674D01*
X134408604Y-58912410D01*
X134349000Y-58612760D01*
X134349000Y-58307240D01*
X134408604Y-58007590D01*
X134525521Y-57725326D01*
X134695259Y-57471295D01*
X134911295Y-57255259D01*
X135165326Y-57085521D01*
X135447590Y-56968604D01*
X135597415Y-56938802D01*
X135747239Y-56909000D01*
X136052761Y-56909000D01*
X136202585Y-56938802D01*
G37*
G36*
X105722585Y-56938802D02*
G01*
X105872410Y-56968604D01*
X106154674Y-57085521D01*
X106408705Y-57255259D01*
X106624741Y-57471295D01*
X106794479Y-57725326D01*
X106911396Y-58007590D01*
X106971000Y-58307240D01*
X106971000Y-58612760D01*
X106911396Y-58912410D01*
X106794479Y-59194674D01*
X106624741Y-59448705D01*
X106408705Y-59664741D01*
X106154674Y-59834479D01*
X105872410Y-59951396D01*
X105722585Y-59981198D01*
X105572761Y-60011000D01*
X105267239Y-60011000D01*
X105117415Y-59981198D01*
X104967590Y-59951396D01*
X104685326Y-59834479D01*
X104431295Y-59664741D01*
X104215259Y-59448705D01*
X104045521Y-59194674D01*
X103928604Y-58912410D01*
X103869000Y-58612760D01*
X103869000Y-58307240D01*
X103928604Y-58007590D01*
X104045521Y-57725326D01*
X104215259Y-57471295D01*
X104431295Y-57255259D01*
X104685326Y-57085521D01*
X104967590Y-56968604D01*
X105117415Y-56938802D01*
X105267239Y-56909000D01*
X105572761Y-56909000D01*
X105722585Y-56938802D01*
G37*
G36*
X44762585Y-56938802D02*
G01*
X44912410Y-56968604D01*
X45194674Y-57085521D01*
X45448705Y-57255259D01*
X45664741Y-57471295D01*
X45834479Y-57725326D01*
X45951396Y-58007590D01*
X46011000Y-58307240D01*
X46011000Y-58612760D01*
X45951396Y-58912410D01*
X45834479Y-59194674D01*
X45664741Y-59448705D01*
X45448705Y-59664741D01*
X45194674Y-59834479D01*
X44912410Y-59951396D01*
X44762585Y-59981198D01*
X44612761Y-60011000D01*
X44307239Y-60011000D01*
X44157415Y-59981198D01*
X44007590Y-59951396D01*
X43725326Y-59834479D01*
X43471295Y-59664741D01*
X43255259Y-59448705D01*
X43085521Y-59194674D01*
X42968604Y-58912410D01*
X42909000Y-58612760D01*
X42909000Y-58307240D01*
X42968604Y-58007590D01*
X43085521Y-57725326D01*
X43255259Y-57471295D01*
X43471295Y-57255259D01*
X43725326Y-57085521D01*
X44007590Y-56968604D01*
X44157415Y-56938802D01*
X44307239Y-56909000D01*
X44612761Y-56909000D01*
X44762585Y-56938802D01*
G37*
G36*
X75242585Y-56938802D02*
G01*
X75392410Y-56968604D01*
X75674674Y-57085521D01*
X75928705Y-57255259D01*
X76144741Y-57471295D01*
X76314479Y-57725326D01*
X76431396Y-58007590D01*
X76491000Y-58307240D01*
X76491000Y-58612760D01*
X76431396Y-58912410D01*
X76314479Y-59194674D01*
X76144741Y-59448705D01*
X75928705Y-59664741D01*
X75674674Y-59834479D01*
X75392410Y-59951396D01*
X75242585Y-59981198D01*
X75092761Y-60011000D01*
X74787239Y-60011000D01*
X74637415Y-59981198D01*
X74487590Y-59951396D01*
X74205326Y-59834479D01*
X73951295Y-59664741D01*
X73735259Y-59448705D01*
X73565521Y-59194674D01*
X73448604Y-58912410D01*
X73389000Y-58612760D01*
X73389000Y-58307240D01*
X73448604Y-58007590D01*
X73565521Y-57725326D01*
X73735259Y-57471295D01*
X73951295Y-57255259D01*
X74205326Y-57085521D01*
X74487590Y-56968604D01*
X74637415Y-56938802D01*
X74787239Y-56909000D01*
X75092761Y-56909000D01*
X75242585Y-56938802D01*
G37*
G36*
X197162585Y-49338802D02*
G01*
X197312410Y-49368604D01*
X197594674Y-49485521D01*
X197848705Y-49655259D01*
X198064741Y-49871295D01*
X198234479Y-50125326D01*
X198351396Y-50407590D01*
X198411000Y-50707240D01*
X198411000Y-51012760D01*
X198351396Y-51312410D01*
X198234479Y-51594674D01*
X198064741Y-51848705D01*
X197848705Y-52064741D01*
X197594674Y-52234479D01*
X197312410Y-52351396D01*
X197162585Y-52381198D01*
X197012761Y-52411000D01*
X196707239Y-52411000D01*
X196557415Y-52381198D01*
X196407590Y-52351396D01*
X196125326Y-52234479D01*
X195871295Y-52064741D01*
X195655259Y-51848705D01*
X195485521Y-51594674D01*
X195368604Y-51312410D01*
X195309000Y-51012760D01*
X195309000Y-50707240D01*
X195368604Y-50407590D01*
X195485521Y-50125326D01*
X195655259Y-49871295D01*
X195871295Y-49655259D01*
X196125326Y-49485521D01*
X196407590Y-49368604D01*
X196557415Y-49338802D01*
X196707239Y-49309000D01*
X197012761Y-49309000D01*
X197162585Y-49338802D01*
G37*
G36*
X44762585Y-49338802D02*
G01*
X44912410Y-49368604D01*
X45194674Y-49485521D01*
X45448705Y-49655259D01*
X45664741Y-49871295D01*
X45834479Y-50125326D01*
X45951396Y-50407590D01*
X46011000Y-50707240D01*
X46011000Y-51012760D01*
X45951396Y-51312410D01*
X45834479Y-51594674D01*
X45664741Y-51848705D01*
X45448705Y-52064741D01*
X45194674Y-52234479D01*
X44912410Y-52351396D01*
X44762585Y-52381198D01*
X44612761Y-52411000D01*
X44307239Y-52411000D01*
X44157415Y-52381198D01*
X44007590Y-52351396D01*
X43725326Y-52234479D01*
X43471295Y-52064741D01*
X43255259Y-51848705D01*
X43085521Y-51594674D01*
X42968604Y-51312410D01*
X42909000Y-51012760D01*
X42909000Y-50707240D01*
X42968604Y-50407590D01*
X43085521Y-50125326D01*
X43255259Y-49871295D01*
X43471295Y-49655259D01*
X43725326Y-49485521D01*
X44007590Y-49368604D01*
X44157415Y-49338802D01*
X44307239Y-49309000D01*
X44612761Y-49309000D01*
X44762585Y-49338802D01*
G37*
G36*
X75242585Y-49338802D02*
G01*
X75392410Y-49368604D01*
X75674674Y-49485521D01*
X75928705Y-49655259D01*
X76144741Y-49871295D01*
X76314479Y-50125326D01*
X76431396Y-50407590D01*
X76491000Y-50707240D01*
X76491000Y-51012760D01*
X76431396Y-51312410D01*
X76314479Y-51594674D01*
X76144741Y-51848705D01*
X75928705Y-52064741D01*
X75674674Y-52234479D01*
X75392410Y-52351396D01*
X75242585Y-52381198D01*
X75092761Y-52411000D01*
X74787239Y-52411000D01*
X74637415Y-52381198D01*
X74487590Y-52351396D01*
X74205326Y-52234479D01*
X73951295Y-52064741D01*
X73735259Y-51848705D01*
X73565521Y-51594674D01*
X73448604Y-51312410D01*
X73389000Y-51012760D01*
X73389000Y-50707240D01*
X73448604Y-50407590D01*
X73565521Y-50125326D01*
X73735259Y-49871295D01*
X73951295Y-49655259D01*
X74205326Y-49485521D01*
X74487590Y-49368604D01*
X74637415Y-49338802D01*
X74787239Y-49309000D01*
X75092761Y-49309000D01*
X75242585Y-49338802D01*
G37*
G36*
X105722585Y-49338802D02*
G01*
X105872410Y-49368604D01*
X106154674Y-49485521D01*
X106408705Y-49655259D01*
X106624741Y-49871295D01*
X106794479Y-50125326D01*
X106911396Y-50407590D01*
X106971000Y-50707240D01*
X106971000Y-51012760D01*
X106911396Y-51312410D01*
X106794479Y-51594674D01*
X106624741Y-51848705D01*
X106408705Y-52064741D01*
X106154674Y-52234479D01*
X105872410Y-52351396D01*
X105722585Y-52381198D01*
X105572761Y-52411000D01*
X105267239Y-52411000D01*
X105117415Y-52381198D01*
X104967590Y-52351396D01*
X104685326Y-52234479D01*
X104431295Y-52064741D01*
X104215259Y-51848705D01*
X104045521Y-51594674D01*
X103928604Y-51312410D01*
X103869000Y-51012760D01*
X103869000Y-50707240D01*
X103928604Y-50407590D01*
X104045521Y-50125326D01*
X104215259Y-49871295D01*
X104431295Y-49655259D01*
X104685326Y-49485521D01*
X104967590Y-49368604D01*
X105117415Y-49338802D01*
X105267239Y-49309000D01*
X105572761Y-49309000D01*
X105722585Y-49338802D01*
G37*
G36*
X136202585Y-49338802D02*
G01*
X136352410Y-49368604D01*
X136634674Y-49485521D01*
X136888705Y-49655259D01*
X137104741Y-49871295D01*
X137274479Y-50125326D01*
X137391396Y-50407590D01*
X137451000Y-50707240D01*
X137451000Y-51012760D01*
X137391396Y-51312410D01*
X137274479Y-51594674D01*
X137104741Y-51848705D01*
X136888705Y-52064741D01*
X136634674Y-52234479D01*
X136352410Y-52351396D01*
X136202585Y-52381198D01*
X136052761Y-52411000D01*
X135747239Y-52411000D01*
X135597415Y-52381198D01*
X135447590Y-52351396D01*
X135165326Y-52234479D01*
X134911295Y-52064741D01*
X134695259Y-51848705D01*
X134525521Y-51594674D01*
X134408604Y-51312410D01*
X134349000Y-51012760D01*
X134349000Y-50707240D01*
X134408604Y-50407590D01*
X134525521Y-50125326D01*
X134695259Y-49871295D01*
X134911295Y-49655259D01*
X135165326Y-49485521D01*
X135447590Y-49368604D01*
X135597415Y-49338802D01*
X135747239Y-49309000D01*
X136052761Y-49309000D01*
X136202585Y-49338802D01*
G37*
G36*
X166682585Y-49338802D02*
G01*
X166832410Y-49368604D01*
X167114674Y-49485521D01*
X167368705Y-49655259D01*
X167584741Y-49871295D01*
X167754479Y-50125326D01*
X167871396Y-50407590D01*
X167931000Y-50707240D01*
X167931000Y-51012760D01*
X167871396Y-51312410D01*
X167754479Y-51594674D01*
X167584741Y-51848705D01*
X167368705Y-52064741D01*
X167114674Y-52234479D01*
X166832410Y-52351396D01*
X166682585Y-52381198D01*
X166532761Y-52411000D01*
X166227239Y-52411000D01*
X166077415Y-52381198D01*
X165927590Y-52351396D01*
X165645326Y-52234479D01*
X165391295Y-52064741D01*
X165175259Y-51848705D01*
X165005521Y-51594674D01*
X164888604Y-51312410D01*
X164829000Y-51012760D01*
X164829000Y-50707240D01*
X164888604Y-50407590D01*
X165005521Y-50125326D01*
X165175259Y-49871295D01*
X165391295Y-49655259D01*
X165645326Y-49485521D01*
X165927590Y-49368604D01*
X166077415Y-49338802D01*
X166227239Y-49309000D01*
X166532761Y-49309000D01*
X166682585Y-49338802D01*
G37*
G36*
X42289487Y-38118996D02*
G01*
X42526253Y-38217068D01*
X42526255Y-38217069D01*
X42739339Y-38359447D01*
X42920553Y-38540661D01*
X43062932Y-38753747D01*
X43161004Y-38990513D01*
X43211000Y-39241861D01*
X43211000Y-39498139D01*
X43161004Y-39749487D01*
X43062932Y-39986253D01*
X43062931Y-39986255D01*
X42920553Y-40199339D01*
X42739339Y-40380553D01*
X42526255Y-40522931D01*
X42526254Y-40522932D01*
X42526253Y-40522932D01*
X42289487Y-40621004D01*
X42038139Y-40671000D01*
X41781861Y-40671000D01*
X41530513Y-40621004D01*
X41293747Y-40522932D01*
X41293746Y-40522932D01*
X41293745Y-40522931D01*
X41080661Y-40380553D01*
X40899447Y-40199339D01*
X40757069Y-39986255D01*
X40757068Y-39986253D01*
X40658996Y-39749487D01*
X40609000Y-39498139D01*
X40609000Y-39241861D01*
X40658996Y-38990513D01*
X40757068Y-38753747D01*
X40899447Y-38540661D01*
X41080661Y-38359447D01*
X41293745Y-38217069D01*
X41293747Y-38217068D01*
X41530513Y-38118996D01*
X41781861Y-38069000D01*
X42038139Y-38069000D01*
X42289487Y-38118996D01*
G37*
G36*
X193419487Y-38118996D02*
G01*
X193656253Y-38217068D01*
X193656255Y-38217069D01*
X193869339Y-38359447D01*
X194050553Y-38540661D01*
X194192932Y-38753747D01*
X194291004Y-38990513D01*
X194341000Y-39241861D01*
X194341000Y-39498139D01*
X194291004Y-39749487D01*
X194192932Y-39986253D01*
X194192931Y-39986255D01*
X194050553Y-40199339D01*
X193869339Y-40380553D01*
X193656255Y-40522931D01*
X193656254Y-40522932D01*
X193656253Y-40522932D01*
X193419487Y-40621004D01*
X193168139Y-40671000D01*
X192911861Y-40671000D01*
X192660513Y-40621004D01*
X192423747Y-40522932D01*
X192423746Y-40522932D01*
X192423745Y-40522931D01*
X192210661Y-40380553D01*
X192029447Y-40199339D01*
X191887069Y-39986255D01*
X191887068Y-39986253D01*
X191788996Y-39749487D01*
X191739000Y-39498139D01*
X191739000Y-39241861D01*
X191788996Y-38990513D01*
X191887068Y-38753747D01*
X192029447Y-38540661D01*
X192210661Y-38359447D01*
X192423745Y-38217069D01*
X192423747Y-38217068D01*
X192660513Y-38118996D01*
X192911861Y-38069000D01*
X193168139Y-38069000D01*
X193419487Y-38118996D01*
G37*
G36*
X184181000Y-40671000D02*
G01*
X181579000Y-40671000D01*
X181579000Y-38069000D01*
X184181000Y-38069000D01*
X184181000Y-40671000D01*
G37*
G36*
X62261000Y-40671000D02*
G01*
X59659000Y-40671000D01*
X59659000Y-38069000D01*
X62261000Y-38069000D01*
X62261000Y-40671000D01*
G37*
G36*
X33051000Y-40671000D02*
G01*
X30449000Y-40671000D01*
X30449000Y-38069000D01*
X33051000Y-38069000D01*
X33051000Y-40671000D01*
G37*
G36*
X162939487Y-38118996D02*
G01*
X163176253Y-38217068D01*
X163176255Y-38217069D01*
X163389339Y-38359447D01*
X163570553Y-38540661D01*
X163712932Y-38753747D01*
X163811004Y-38990513D01*
X163861000Y-39241861D01*
X163861000Y-39498139D01*
X163811004Y-39749487D01*
X163712932Y-39986253D01*
X163712931Y-39986255D01*
X163570553Y-40199339D01*
X163389339Y-40380553D01*
X163176255Y-40522931D01*
X163176254Y-40522932D01*
X163176253Y-40522932D01*
X162939487Y-40621004D01*
X162688139Y-40671000D01*
X162431861Y-40671000D01*
X162180513Y-40621004D01*
X161943747Y-40522932D01*
X161943746Y-40522932D01*
X161943745Y-40522931D01*
X161730661Y-40380553D01*
X161549447Y-40199339D01*
X161407069Y-39986255D01*
X161407068Y-39986253D01*
X161308996Y-39749487D01*
X161259000Y-39498139D01*
X161259000Y-39241861D01*
X161308996Y-38990513D01*
X161407068Y-38753747D01*
X161549447Y-38540661D01*
X161730661Y-38359447D01*
X161943745Y-38217069D01*
X161943747Y-38217068D01*
X162180513Y-38118996D01*
X162431861Y-38069000D01*
X162688139Y-38069000D01*
X162939487Y-38118996D01*
G37*
G36*
X153701000Y-40671000D02*
G01*
X151099000Y-40671000D01*
X151099000Y-38069000D01*
X153701000Y-38069000D01*
X153701000Y-40671000D01*
G37*
G36*
X132459487Y-38118996D02*
G01*
X132696253Y-38217068D01*
X132696255Y-38217069D01*
X132909339Y-38359447D01*
X133090553Y-38540661D01*
X133232932Y-38753747D01*
X133331004Y-38990513D01*
X133381000Y-39241861D01*
X133381000Y-39498139D01*
X133331004Y-39749487D01*
X133232932Y-39986253D01*
X133232931Y-39986255D01*
X133090553Y-40199339D01*
X132909339Y-40380553D01*
X132696255Y-40522931D01*
X132696254Y-40522932D01*
X132696253Y-40522932D01*
X132459487Y-40621004D01*
X132208139Y-40671000D01*
X131951861Y-40671000D01*
X131700513Y-40621004D01*
X131463747Y-40522932D01*
X131463746Y-40522932D01*
X131463745Y-40522931D01*
X131250661Y-40380553D01*
X131069447Y-40199339D01*
X130927069Y-39986255D01*
X130927068Y-39986253D01*
X130828996Y-39749487D01*
X130779000Y-39498139D01*
X130779000Y-39241861D01*
X130828996Y-38990513D01*
X130927068Y-38753747D01*
X131069447Y-38540661D01*
X131250661Y-38359447D01*
X131463745Y-38217069D01*
X131463747Y-38217068D01*
X131700513Y-38118996D01*
X131951861Y-38069000D01*
X132208139Y-38069000D01*
X132459487Y-38118996D01*
G37*
G36*
X123221000Y-40671000D02*
G01*
X120619000Y-40671000D01*
X120619000Y-38069000D01*
X123221000Y-38069000D01*
X123221000Y-40671000D01*
G37*
G36*
X103249487Y-38118996D02*
G01*
X103486253Y-38217068D01*
X103486255Y-38217069D01*
X103699339Y-38359447D01*
X103880553Y-38540661D01*
X104022932Y-38753747D01*
X104121004Y-38990513D01*
X104171000Y-39241861D01*
X104171000Y-39498139D01*
X104121004Y-39749487D01*
X104022932Y-39986253D01*
X104022931Y-39986255D01*
X103880553Y-40199339D01*
X103699339Y-40380553D01*
X103486255Y-40522931D01*
X103486254Y-40522932D01*
X103486253Y-40522932D01*
X103249487Y-40621004D01*
X102998139Y-40671000D01*
X102741861Y-40671000D01*
X102490513Y-40621004D01*
X102253747Y-40522932D01*
X102253746Y-40522932D01*
X102253745Y-40522931D01*
X102040661Y-40380553D01*
X101859447Y-40199339D01*
X101717069Y-39986255D01*
X101717068Y-39986253D01*
X101618996Y-39749487D01*
X101569000Y-39498139D01*
X101569000Y-39241861D01*
X101618996Y-38990513D01*
X101717068Y-38753747D01*
X101859447Y-38540661D01*
X102040661Y-38359447D01*
X102253745Y-38217069D01*
X102253747Y-38217068D01*
X102490513Y-38118996D01*
X102741861Y-38069000D01*
X102998139Y-38069000D01*
X103249487Y-38118996D01*
G37*
G36*
X94011000Y-40671000D02*
G01*
X91409000Y-40671000D01*
X91409000Y-38069000D01*
X94011000Y-38069000D01*
X94011000Y-40671000D01*
G37*
G36*
X71499487Y-38118996D02*
G01*
X71736253Y-38217068D01*
X71736255Y-38217069D01*
X71949339Y-38359447D01*
X72130553Y-38540661D01*
X72272932Y-38753747D01*
X72371004Y-38990513D01*
X72421000Y-39241861D01*
X72421000Y-39498139D01*
X72371004Y-39749487D01*
X72272932Y-39986253D01*
X72272931Y-39986255D01*
X72130553Y-40199339D01*
X71949339Y-40380553D01*
X71736255Y-40522931D01*
X71736254Y-40522932D01*
X71736253Y-40522932D01*
X71499487Y-40621004D01*
X71248139Y-40671000D01*
X70991861Y-40671000D01*
X70740513Y-40621004D01*
X70503747Y-40522932D01*
X70503746Y-40522932D01*
X70503745Y-40522931D01*
X70290661Y-40380553D01*
X70109447Y-40199339D01*
X69967069Y-39986255D01*
X69967068Y-39986253D01*
X69868996Y-39749487D01*
X69819000Y-39498139D01*
X69819000Y-39241861D01*
X69868996Y-38990513D01*
X69967068Y-38753747D01*
X70109447Y-38540661D01*
X70290661Y-38359447D01*
X70503745Y-38217069D01*
X70503747Y-38217068D01*
X70740513Y-38118996D01*
X70991861Y-38069000D01*
X71248139Y-38069000D01*
X71499487Y-38118996D01*
G37*
M02*
