G04 #@! TF.GenerationSoftware,KiCad,Pcbnew,5.1.5+dfsg1-2build2*
G04 #@! TF.CreationDate,2022-02-25T13:27:02+02:00*
G04 #@! TF.ProjectId,relayctl-hat,72656c61-7963-4746-9c2d-6861742e6b69,rev?*
G04 #@! TF.SameCoordinates,Original*
G04 #@! TF.FileFunction,Other,User*
%FSLAX46Y46*%
G04 Gerber Fmt 4.6, Leading zero omitted, Abs format (unit mm)*
G04 Created by KiCad (PCBNEW 5.1.5+dfsg1-2build2) date 2022-02-25 13:27:02*
%MOMM*%
%LPD*%
G04 APERTURE LIST*
%ADD10C,0.050000*%
G04 APERTURE END LIST*
D10*
X104100000Y-115750000D02*
X104100000Y-97610000D01*
X99100000Y-115750000D02*
X104100000Y-115750000D01*
X99100000Y-97610000D02*
X99100000Y-115750000D01*
X104100000Y-97610000D02*
X99100000Y-97610000D01*
X196090000Y-35110000D02*
X179840000Y-35110000D01*
X196090000Y-44420000D02*
X196090000Y-35110000D01*
X179840000Y-44420000D02*
X196090000Y-44420000D01*
X179840000Y-35110000D02*
X179840000Y-44420000D01*
X165610000Y-35110000D02*
X149360000Y-35110000D01*
X165610000Y-44420000D02*
X165610000Y-35110000D01*
X149360000Y-44420000D02*
X165610000Y-44420000D01*
X149360000Y-35110000D02*
X149360000Y-44420000D01*
X135130000Y-35110000D02*
X118880000Y-35110000D01*
X135130000Y-44420000D02*
X135130000Y-35110000D01*
X118880000Y-44420000D02*
X135130000Y-44420000D01*
X118880000Y-35110000D02*
X118880000Y-44420000D01*
X105920000Y-35110000D02*
X89670000Y-35110000D01*
X105920000Y-44420000D02*
X105920000Y-35110000D01*
X89670000Y-44420000D02*
X105920000Y-44420000D01*
X89670000Y-35110000D02*
X89670000Y-44420000D01*
X74170000Y-35110000D02*
X57920000Y-35110000D01*
X74170000Y-44420000D02*
X74170000Y-35110000D01*
X57920000Y-44420000D02*
X74170000Y-44420000D01*
X57920000Y-35110000D02*
X57920000Y-44420000D01*
X44960000Y-35110000D02*
X28710000Y-35110000D01*
X44960000Y-44420000D02*
X44960000Y-35110000D01*
X28710000Y-44420000D02*
X44960000Y-44420000D01*
X28710000Y-35110000D02*
X28710000Y-44420000D01*
X195540000Y-115750000D02*
X195540000Y-97610000D01*
X190540000Y-115750000D02*
X195540000Y-115750000D01*
X190540000Y-97610000D02*
X190540000Y-115750000D01*
X195540000Y-97610000D02*
X190540000Y-97610000D01*
X166330000Y-115750000D02*
X166330000Y-97610000D01*
X161330000Y-115750000D02*
X166330000Y-115750000D01*
X161330000Y-97610000D02*
X161330000Y-115750000D01*
X166330000Y-97610000D02*
X161330000Y-97610000D01*
X134580000Y-115750000D02*
X134580000Y-97610000D01*
X129580000Y-115750000D02*
X134580000Y-115750000D01*
X129580000Y-97610000D02*
X129580000Y-115750000D01*
X134580000Y-97610000D02*
X129580000Y-97610000D01*
X73620000Y-115750000D02*
X73620000Y-97610000D01*
X68620000Y-115750000D02*
X73620000Y-115750000D01*
X68620000Y-97610000D02*
X68620000Y-115750000D01*
X73620000Y-97610000D02*
X68620000Y-97610000D01*
X41870000Y-115750000D02*
X41870000Y-97610000D01*
X36870000Y-115750000D02*
X41870000Y-115750000D01*
X36870000Y-97610000D02*
X36870000Y-115750000D01*
X41870000Y-97610000D02*
X36870000Y-97610000D01*
X180870000Y-101790000D02*
X180870000Y-96330000D01*
X180870000Y-101790000D02*
X185610000Y-101790000D01*
X185610000Y-96330000D02*
X180870000Y-96330000D01*
X185610000Y-96330000D02*
X185610000Y-101790000D01*
X150390000Y-101790000D02*
X150390000Y-96330000D01*
X150390000Y-101790000D02*
X155130000Y-101790000D01*
X155130000Y-96330000D02*
X150390000Y-96330000D01*
X155130000Y-96330000D02*
X155130000Y-101790000D01*
X119910000Y-101790000D02*
X119910000Y-96330000D01*
X119910000Y-101790000D02*
X124650000Y-101790000D01*
X124650000Y-96330000D02*
X119910000Y-96330000D01*
X124650000Y-96330000D02*
X124650000Y-101790000D01*
X89430000Y-101790000D02*
X89430000Y-96330000D01*
X89430000Y-101790000D02*
X94170000Y-101790000D01*
X94170000Y-96330000D02*
X89430000Y-96330000D01*
X94170000Y-96330000D02*
X94170000Y-101790000D01*
X58950000Y-101790000D02*
X58950000Y-96330000D01*
X58950000Y-101790000D02*
X63690000Y-101790000D01*
X63690000Y-96330000D02*
X58950000Y-96330000D01*
X63690000Y-96330000D02*
X63690000Y-101790000D01*
X28470000Y-101790000D02*
X28470000Y-96330000D01*
X28470000Y-101790000D02*
X33210000Y-101790000D01*
X33210000Y-96330000D02*
X28470000Y-96330000D01*
X33210000Y-96330000D02*
X33210000Y-101790000D01*
X197110000Y-61720000D02*
X197620000Y-61720000D01*
X197620000Y-61720000D02*
X197620000Y-61210000D01*
X176500000Y-66720000D02*
X176500000Y-66210000D01*
X176500000Y-66720000D02*
X177010000Y-66720000D01*
X174510000Y-66210000D02*
X176500000Y-66210000D01*
X177010000Y-80410000D02*
X177010000Y-66720000D01*
X202410000Y-61210000D02*
X202410000Y-48110000D01*
X174510000Y-48110000D02*
X202410000Y-48110000D01*
X177010000Y-80410000D02*
X197110000Y-80410000D01*
X174510000Y-66210000D02*
X174510000Y-48110000D01*
X197620000Y-61210000D02*
X202410000Y-61210000D01*
X197110000Y-80410000D02*
X197110000Y-61720000D01*
X166630000Y-61720000D02*
X167140000Y-61720000D01*
X167140000Y-61720000D02*
X167140000Y-61210000D01*
X146020000Y-66720000D02*
X146020000Y-66210000D01*
X146020000Y-66720000D02*
X146530000Y-66720000D01*
X144030000Y-66210000D02*
X146020000Y-66210000D01*
X146530000Y-80410000D02*
X146530000Y-66720000D01*
X171930000Y-61210000D02*
X171930000Y-48110000D01*
X144030000Y-48110000D02*
X171930000Y-48110000D01*
X146530000Y-80410000D02*
X166630000Y-80410000D01*
X144030000Y-66210000D02*
X144030000Y-48110000D01*
X167140000Y-61210000D02*
X171930000Y-61210000D01*
X166630000Y-80410000D02*
X166630000Y-61720000D01*
X136150000Y-61720000D02*
X136660000Y-61720000D01*
X136660000Y-61720000D02*
X136660000Y-61210000D01*
X115540000Y-66720000D02*
X115540000Y-66210000D01*
X115540000Y-66720000D02*
X116050000Y-66720000D01*
X113550000Y-66210000D02*
X115540000Y-66210000D01*
X116050000Y-80410000D02*
X116050000Y-66720000D01*
X141450000Y-61210000D02*
X141450000Y-48110000D01*
X113550000Y-48110000D02*
X141450000Y-48110000D01*
X116050000Y-80410000D02*
X136150000Y-80410000D01*
X113550000Y-66210000D02*
X113550000Y-48110000D01*
X136660000Y-61210000D02*
X141450000Y-61210000D01*
X136150000Y-80410000D02*
X136150000Y-61720000D01*
X105670000Y-61720000D02*
X106180000Y-61720000D01*
X106180000Y-61720000D02*
X106180000Y-61210000D01*
X85060000Y-66720000D02*
X85060000Y-66210000D01*
X85060000Y-66720000D02*
X85570000Y-66720000D01*
X83070000Y-66210000D02*
X85060000Y-66210000D01*
X85570000Y-80410000D02*
X85570000Y-66720000D01*
X110970000Y-61210000D02*
X110970000Y-48110000D01*
X83070000Y-48110000D02*
X110970000Y-48110000D01*
X85570000Y-80410000D02*
X105670000Y-80410000D01*
X83070000Y-66210000D02*
X83070000Y-48110000D01*
X106180000Y-61210000D02*
X110970000Y-61210000D01*
X105670000Y-80410000D02*
X105670000Y-61720000D01*
X75190000Y-61720000D02*
X75700000Y-61720000D01*
X75700000Y-61720000D02*
X75700000Y-61210000D01*
X54580000Y-66720000D02*
X54580000Y-66210000D01*
X54580000Y-66720000D02*
X55090000Y-66720000D01*
X52590000Y-66210000D02*
X54580000Y-66210000D01*
X55090000Y-80410000D02*
X55090000Y-66720000D01*
X80490000Y-61210000D02*
X80490000Y-48110000D01*
X52590000Y-48110000D02*
X80490000Y-48110000D01*
X55090000Y-80410000D02*
X75190000Y-80410000D01*
X52590000Y-66210000D02*
X52590000Y-48110000D01*
X75700000Y-61210000D02*
X80490000Y-61210000D01*
X75190000Y-80410000D02*
X75190000Y-61720000D01*
X44710000Y-61720000D02*
X45220000Y-61720000D01*
X45220000Y-61720000D02*
X45220000Y-61210000D01*
X24100000Y-66720000D02*
X24100000Y-66210000D01*
X24100000Y-66720000D02*
X24610000Y-66720000D01*
X22110000Y-66210000D02*
X24100000Y-66210000D01*
X24610000Y-80410000D02*
X24610000Y-66720000D01*
X50010000Y-61210000D02*
X50010000Y-48110000D01*
X22110000Y-48110000D02*
X50010000Y-48110000D01*
X24610000Y-80410000D02*
X44710000Y-80410000D01*
X22110000Y-66210000D02*
X22110000Y-48110000D01*
X45220000Y-61210000D02*
X50010000Y-61210000D01*
X44710000Y-80410000D02*
X44710000Y-61720000D01*
X189680000Y-146560000D02*
X189680000Y-130310000D01*
X180370000Y-146560000D02*
X189680000Y-146560000D01*
X180370000Y-130310000D02*
X180370000Y-146560000D01*
X189680000Y-130310000D02*
X180370000Y-130310000D01*
X68700000Y-170710000D02*
X68700000Y-181900000D01*
X68700000Y-170710000D02*
X55760000Y-170710000D01*
X55760000Y-181900000D02*
X68700000Y-181900000D01*
X55760000Y-181900000D02*
X55760000Y-170710000D01*
X68700000Y-150390000D02*
X68700000Y-161580000D01*
X68700000Y-150390000D02*
X55760000Y-150390000D01*
X55760000Y-161580000D02*
X68700000Y-161580000D01*
X55760000Y-161580000D02*
X55760000Y-150390000D01*
X68700000Y-130070000D02*
X68700000Y-141260000D01*
X68700000Y-130070000D02*
X55760000Y-130070000D01*
X55760000Y-141260000D02*
X68700000Y-141260000D01*
X55760000Y-141260000D02*
X55760000Y-130070000D01*
X43300000Y-170710000D02*
X43300000Y-181900000D01*
X43300000Y-170710000D02*
X30360000Y-170710000D01*
X30360000Y-181900000D02*
X43300000Y-181900000D01*
X30360000Y-181900000D02*
X30360000Y-170710000D01*
X43300000Y-150390000D02*
X43300000Y-161580000D01*
X43300000Y-150390000D02*
X30360000Y-150390000D01*
X30360000Y-161580000D02*
X43300000Y-161580000D01*
X30360000Y-161580000D02*
X30360000Y-150390000D01*
X43300000Y-130070000D02*
X43300000Y-141260000D01*
X43300000Y-130070000D02*
X30360000Y-130070000D01*
X30360000Y-141260000D02*
X43300000Y-141260000D01*
X30360000Y-141260000D02*
X30360000Y-130070000D01*
X185130000Y-115460000D02*
X185130000Y-110610000D01*
X180630000Y-115460000D02*
X185130000Y-115460000D01*
X180630000Y-110610000D02*
X180630000Y-115460000D01*
X185130000Y-110610000D02*
X180630000Y-110610000D01*
X154650000Y-115460000D02*
X154650000Y-110610000D01*
X150150000Y-115460000D02*
X154650000Y-115460000D01*
X150150000Y-110610000D02*
X150150000Y-115460000D01*
X154650000Y-110610000D02*
X150150000Y-110610000D01*
X124170000Y-115460000D02*
X124170000Y-110610000D01*
X119670000Y-115460000D02*
X124170000Y-115460000D01*
X119670000Y-110610000D02*
X119670000Y-115460000D01*
X124170000Y-110610000D02*
X119670000Y-110610000D01*
X93690000Y-115460000D02*
X93690000Y-110610000D01*
X89190000Y-115460000D02*
X93690000Y-115460000D01*
X89190000Y-110610000D02*
X89190000Y-115460000D01*
X93690000Y-110610000D02*
X89190000Y-110610000D01*
X63210000Y-115460000D02*
X63210000Y-110610000D01*
X58710000Y-115460000D02*
X63210000Y-115460000D01*
X58710000Y-110610000D02*
X58710000Y-115460000D01*
X63210000Y-110610000D02*
X58710000Y-110610000D01*
X32730000Y-115460000D02*
X32730000Y-110610000D01*
X28230000Y-115460000D02*
X32730000Y-115460000D01*
X28230000Y-110610000D02*
X28230000Y-115460000D01*
X32730000Y-110610000D02*
X28230000Y-110610000D01*
X181530000Y-90500000D02*
X194390000Y-90500000D01*
X181530000Y-87300000D02*
X181530000Y-90500000D01*
X194390000Y-87300000D02*
X181530000Y-87300000D01*
X194390000Y-90500000D02*
X194390000Y-87300000D01*
X151050000Y-90500000D02*
X163910000Y-90500000D01*
X151050000Y-87300000D02*
X151050000Y-90500000D01*
X163910000Y-87300000D02*
X151050000Y-87300000D01*
X163910000Y-90500000D02*
X163910000Y-87300000D01*
X120570000Y-90500000D02*
X133430000Y-90500000D01*
X120570000Y-87300000D02*
X120570000Y-90500000D01*
X133430000Y-87300000D02*
X120570000Y-87300000D01*
X133430000Y-90500000D02*
X133430000Y-87300000D01*
X90090000Y-90500000D02*
X102950000Y-90500000D01*
X90090000Y-87300000D02*
X90090000Y-90500000D01*
X102950000Y-87300000D02*
X90090000Y-87300000D01*
X102950000Y-90500000D02*
X102950000Y-87300000D01*
X59610000Y-90500000D02*
X72470000Y-90500000D01*
X59610000Y-87300000D02*
X59610000Y-90500000D01*
X72470000Y-87300000D02*
X59610000Y-87300000D01*
X72470000Y-90500000D02*
X72470000Y-87300000D01*
X29130000Y-90500000D02*
X41990000Y-90500000D01*
X29130000Y-87300000D02*
X29130000Y-90500000D01*
X41990000Y-87300000D02*
X29130000Y-87300000D01*
X41990000Y-90500000D02*
X41990000Y-87300000D01*
M02*
