G04 #@! TF.GenerationSoftware,KiCad,Pcbnew,5.1.5+dfsg1-2build2*
G04 #@! TF.CreationDate,2022-02-25T13:27:02+02:00*
G04 #@! TF.ProjectId,relayctl-hat,72656c61-7963-4746-9c2d-6861742e6b69,rev?*
G04 #@! TF.SameCoordinates,Original*
G04 #@! TF.FileFunction,Other,User*
%FSLAX46Y46*%
G04 Gerber Fmt 4.6, Leading zero omitted, Abs format (unit mm)*
G04 Created by KiCad (PCBNEW 5.1.5+dfsg1-2build2) date 2022-02-25 13:27:02*
%MOMM*%
%LPD*%
G04 APERTURE LIST*
%ADD10C,0.150000*%
G04 APERTURE END LIST*
D10*
X150530000Y-129810000D02*
X167630000Y-129810000D01*
X167630000Y-142910000D02*
X167630000Y-129810000D01*
X150530000Y-129810000D02*
X150530000Y-142910000D01*
X167630000Y-142910000D02*
X150530000Y-142910000D01*
X167630000Y-160910000D02*
X167630000Y-147810000D01*
X167630000Y-160910000D02*
X150530000Y-160910000D01*
X150530000Y-160910000D02*
X150530000Y-147810000D01*
X150530000Y-147810000D02*
X167630000Y-147810000D01*
X146630000Y-165110000D02*
X167630000Y-165110000D01*
X167630000Y-181010000D02*
X146630000Y-181010000D01*
X146630000Y-181010000D02*
X146630000Y-165110000D01*
X167630000Y-181010000D02*
X167630000Y-165110000D01*
X95130000Y-147210000D02*
X95130000Y-161810000D01*
X95130000Y-161810000D02*
X80530000Y-161810000D01*
X95130000Y-147210000D02*
X80530000Y-147210000D01*
X137030000Y-185810000D02*
X137030000Y-167810000D01*
X137030000Y-167810000D02*
X131030000Y-167810000D01*
X131030000Y-167810000D02*
X131030000Y-185810000D01*
X131030000Y-185810000D02*
X137030000Y-185810000D01*
X120030000Y-183310000D02*
X120030000Y-172610000D01*
X105030000Y-172610000D02*
X120030000Y-172610000D01*
X105030000Y-172610000D02*
X105030000Y-183310000D01*
X87330000Y-183310000D02*
X87330000Y-178310000D01*
X94830000Y-183310000D02*
X94830000Y-178310000D01*
X94830000Y-178310000D02*
X87330000Y-178310000D01*
X120030000Y-183310000D02*
X105030000Y-183310000D01*
X94830000Y-183310000D02*
X87330000Y-183310000D01*
X80530000Y-147210000D02*
X80530000Y-161810000D01*
M02*
