M48
; DRILL file {KiCad 5.1.5+dfsg1-2build2} date Fri 25 Feb 2022 13:26:58
; FORMAT={-:-/ absolute / inch / decimal}
; #@! TF.CreationDate,2022-02-25T13:26:58+02:00
; #@! TF.GenerationSoftware,Kicad,Pcbnew,5.1.5+dfsg1-2build2
; #@! TF.FileFunction,Plated,1,2,PTH
FMAT,2
INCH
T1C0.0295
T2C0.0354
T3C0.0394
T4C0.0400
T5C0.0433
T6C0.0472
T7C0.0512
T8C0.0520
T9C0.0630
%
G90
G05
T1
X4.8Y-3.85
X3.6Y-3.85
X3.6Y-3.9
X3.6Y-3.95
X6.0Y-3.85
X6.0Y-3.9
X6.0Y-3.95
X7.2Y-3.85
X7.2Y-3.9
X7.2Y-3.95
X1.2Y-3.85
X1.2Y-3.9
X1.2Y-3.95
X2.4Y-3.85
X2.4Y-3.9
X2.4Y-3.95
X4.8Y-3.9
X4.8Y-3.95
T2
X6.0Y-4.4
X6.0Y-4.5
X4.8Y-4.4
X4.8Y-4.5
X3.6Y-4.4
X3.6Y-4.5
X2.4Y-4.4
X2.4Y-4.5
X7.2Y-4.4
X7.2Y-4.5
X1.2Y-4.4
X1.2Y-4.5
T3
X4.1Y-5.35
X4.55Y-5.35
X5.35Y-5.35
X6.35Y-5.5
X6.8Y-5.05
T4
X3.5Y-5.1
X3.5Y-5.2
X3.6Y-5.1
X3.6Y-5.2
X3.7Y-5.1
X3.7Y-5.2
X3.8Y-5.1
X3.8Y-5.2
X3.9Y-5.1
X3.9Y-5.2
X4.0Y-5.1
X4.0Y-5.2
X4.1Y-5.1
X4.1Y-5.2
X4.2Y-5.1
X4.2Y-5.2
X4.3Y-5.1
X4.3Y-5.2
X4.4Y-5.1
X4.4Y-5.2
X4.5Y-5.1
X4.5Y-5.2
X4.6Y-5.1
X4.6Y-5.2
X4.7Y-5.1
X4.7Y-5.2
X4.8Y-5.1
X4.8Y-5.2
X4.9Y-5.1
X4.9Y-5.2
X5.0Y-5.1
X5.0Y-5.2
X5.1Y-5.1
X5.1Y-5.2
X5.2Y-5.1
X5.2Y-5.2
X5.3Y-5.1
X5.3Y-5.2
X5.4Y-5.1
X5.4Y-5.2
T5
X3.5992Y-2.9
X4.0008Y-2.9
X7.1992Y-2.9
X7.6008Y-2.9
X5.9992Y-2.9
X6.4008Y-2.9
X2.4Y-3.5
X2.8Y-3.5
X3.6Y-3.5
X4.0Y-3.5
X7.2Y-3.5
X7.6Y-3.5
X2.3992Y-2.9
X2.8008Y-2.9
X4.8Y-3.5
X5.2Y-3.5
X1.2Y-3.5
X1.6Y-3.5
X6.0Y-3.5
X6.4Y-3.5
X4.7992Y-2.9
X5.2008Y-2.9
X1.1992Y-2.9
X1.6008Y-2.9
T6
X4.0Y-3.9
X4.0Y-4.5
X1.55Y-3.9
X1.55Y-4.5
X2.8Y-3.9
X2.8Y-4.5
X5.2Y-3.9
X5.2Y-4.5
X6.45Y-3.9
X6.45Y-4.5
X7.6Y-3.9
X7.6Y-4.5
T7
X4.8Y-1.55
X5.2Y-1.55
X2.4Y-1.55
X2.8Y-1.55
X1.25Y-1.55
X1.65Y-1.55
X3.65Y-1.55
X4.05Y-1.55
X7.3Y-5.25
X7.3Y-5.65
X6.0Y-1.55
X6.4Y-1.55
X7.2Y-1.55
X7.6Y-1.55
T8
X2.45Y-6.0531
X2.45Y-6.25
X1.45Y-6.8531
X1.45Y-7.05
X1.45Y-6.0531
X1.45Y-6.25
X2.45Y-5.2531
X2.45Y-5.45
X1.45Y-5.2531
X1.45Y-5.45
X2.45Y-6.8531
X2.45Y-7.05
T9
X4.6496Y-2.4016
X5.3504Y-2.0024
X5.3504Y-2.3016
X1.0496Y-2.4016
X1.7504Y-2.0024
X1.7504Y-2.3016
X3.4496Y-2.4016
X4.1504Y-2.0024
X4.1504Y-2.3016
X7.0496Y-2.4016
X7.7504Y-2.0024
X7.7504Y-2.3016
X5.8496Y-2.4016
X6.5504Y-2.0024
X6.5504Y-2.3016
X2.2496Y-2.4016
X2.9504Y-2.0024
X2.9504Y-2.3016
T0
M30
