G04 #@! TF.GenerationSoftware,KiCad,Pcbnew,5.1.5+dfsg1-2build2*
G04 #@! TF.CreationDate,2022-02-25T13:27:02+02:00*
G04 #@! TF.ProjectId,relayctl-hat,72656c61-7963-4746-9c2d-6861742e6b69,rev?*
G04 #@! TF.SameCoordinates,Original*
G04 #@! TF.FileFunction,Copper,L1,Top*
G04 #@! TF.FilePolarity,Positive*
%FSLAX46Y46*%
G04 Gerber Fmt 4.6, Leading zero omitted, Abs format (unit mm)*
G04 Created by KiCad (PCBNEW 5.1.5+dfsg1-2build2) date 2022-02-25 13:27:02*
%MOMM*%
%LPD*%
G04 APERTURE LIST*
%ADD10C,1.750000*%
%ADD11R,1.750000X1.750000*%
%ADD12O,2.400000X2.400000*%
%ADD13C,2.400000*%
%ADD14C,2.500000*%
%ADD15R,2.500000X2.500000*%
%ADD16R,1.500000X1.050000*%
%ADD17O,1.500000X1.050000*%
%ADD18C,0.100000*%
%ADD19C,3.000000*%
%ADD20C,2.000000*%
%ADD21O,3.960000X1.980000*%
%ADD22R,3.960000X1.980000*%
%ADD23C,1.800000*%
%ADD24R,1.800000X1.800000*%
%ADD25O,2.200000X2.200000*%
%ADD26R,2.200000X2.200000*%
%ADD27C,0.500000*%
%ADD28C,0.250000*%
G04 APERTURE END LIST*
D10*
X137160000Y-132080000D03*
X137160000Y-129540000D03*
X134620000Y-132080000D03*
X134620000Y-129540000D03*
X132080000Y-132080000D03*
X132080000Y-129540000D03*
X129540000Y-132080000D03*
X129540000Y-129540000D03*
X127000000Y-132080000D03*
X127000000Y-129540000D03*
X119380000Y-129540000D03*
X119380000Y-132080000D03*
X114300000Y-129540000D03*
X114300000Y-132080000D03*
X111760000Y-129540000D03*
X111760000Y-132080000D03*
X109220000Y-129540000D03*
X109220000Y-132080000D03*
X106680000Y-129540000D03*
X106680000Y-132080000D03*
X104140000Y-129540000D03*
X104140000Y-132080000D03*
X101600000Y-129540000D03*
X101600000Y-132080000D03*
X99060000Y-129540000D03*
X99060000Y-132080000D03*
X96520000Y-129540000D03*
X96520000Y-132080000D03*
X93980000Y-129540000D03*
X93980000Y-132080000D03*
X91440000Y-129540000D03*
X91440000Y-132080000D03*
X88900000Y-129540000D03*
D11*
X88900000Y-132080000D03*
D10*
X116840000Y-132080000D03*
X116840000Y-129540000D03*
X124460000Y-129540000D03*
X124460000Y-132080000D03*
X121920000Y-129540000D03*
X121920000Y-132080000D03*
D12*
X101600000Y-114300000D03*
D13*
X101600000Y-99060000D03*
D14*
X193040000Y-39370000D03*
D15*
X182880000Y-39370000D03*
D14*
X162560000Y-39370000D03*
D15*
X152400000Y-39370000D03*
D14*
X132080000Y-39370000D03*
D15*
X121920000Y-39370000D03*
D14*
X102870000Y-39370000D03*
D15*
X92710000Y-39370000D03*
D14*
X71120000Y-39370000D03*
D15*
X60960000Y-39370000D03*
D14*
X41910000Y-39370000D03*
D15*
X31750000Y-39370000D03*
D12*
X193040000Y-114300000D03*
D13*
X193040000Y-99060000D03*
D12*
X163830000Y-114300000D03*
D13*
X163830000Y-99060000D03*
D12*
X132080000Y-114300000D03*
D13*
X132080000Y-99060000D03*
D12*
X71120000Y-114300000D03*
D13*
X71120000Y-99060000D03*
D12*
X39370000Y-114300000D03*
D13*
X39370000Y-99060000D03*
D16*
X182880000Y-97790000D03*
D17*
X182880000Y-100330000D03*
X182880000Y-99060000D03*
D16*
X152400000Y-97790000D03*
D17*
X152400000Y-100330000D03*
X152400000Y-99060000D03*
D16*
X121920000Y-97790000D03*
D17*
X121920000Y-100330000D03*
X121920000Y-99060000D03*
D16*
X91440000Y-97790000D03*
D17*
X91440000Y-100330000D03*
X91440000Y-99060000D03*
D16*
X60960000Y-97790000D03*
D17*
X60960000Y-100330000D03*
X60960000Y-99060000D03*
D16*
X30480000Y-97790000D03*
D17*
X30480000Y-100330000D03*
X30480000Y-99060000D03*
G04 #@! TA.AperFunction,ComponentPad*
D18*
G36*
X183409009Y-72662408D02*
G01*
X183457545Y-72669607D01*
X183505142Y-72681530D01*
X183551342Y-72698060D01*
X183595698Y-72719039D01*
X183637785Y-72744265D01*
X183677197Y-72773495D01*
X183713553Y-72806447D01*
X183746505Y-72842803D01*
X183775735Y-72882215D01*
X183800961Y-72924302D01*
X183821940Y-72968658D01*
X183838470Y-73014858D01*
X183850393Y-73062455D01*
X183857592Y-73110991D01*
X183860000Y-73160000D01*
X183860000Y-74160000D01*
X183857592Y-74209009D01*
X183850393Y-74257545D01*
X183838470Y-74305142D01*
X183821940Y-74351342D01*
X183800961Y-74395698D01*
X183775735Y-74437785D01*
X183746505Y-74477197D01*
X183713553Y-74513553D01*
X183677197Y-74546505D01*
X183637785Y-74575735D01*
X183595698Y-74600961D01*
X183551342Y-74621940D01*
X183505142Y-74638470D01*
X183457545Y-74650393D01*
X183409009Y-74657592D01*
X183360000Y-74660000D01*
X182360000Y-74660000D01*
X182310991Y-74657592D01*
X182262455Y-74650393D01*
X182214858Y-74638470D01*
X182168658Y-74621940D01*
X182124302Y-74600961D01*
X182082215Y-74575735D01*
X182042803Y-74546505D01*
X182006447Y-74513553D01*
X181973495Y-74477197D01*
X181944265Y-74437785D01*
X181919039Y-74395698D01*
X181898060Y-74351342D01*
X181881530Y-74305142D01*
X181869607Y-74257545D01*
X181862408Y-74209009D01*
X181860000Y-74160000D01*
X181860000Y-73160000D01*
X181862408Y-73110991D01*
X181869607Y-73062455D01*
X181881530Y-73014858D01*
X181898060Y-72968658D01*
X181919039Y-72924302D01*
X181944265Y-72882215D01*
X181973495Y-72842803D01*
X182006447Y-72806447D01*
X182042803Y-72773495D01*
X182082215Y-72744265D01*
X182124302Y-72719039D01*
X182168658Y-72698060D01*
X182214858Y-72681530D01*
X182262455Y-72669607D01*
X182310991Y-72662408D01*
X182360000Y-72660000D01*
X183360000Y-72660000D01*
X183409009Y-72662408D01*
G37*
G04 #@! TD.AperFunction*
D19*
X179060000Y-61000000D03*
X196860000Y-50860000D03*
X196860000Y-58460000D03*
D20*
X193060000Y-73660000D03*
G04 #@! TA.AperFunction,ComponentPad*
D18*
G36*
X152929009Y-72662408D02*
G01*
X152977545Y-72669607D01*
X153025142Y-72681530D01*
X153071342Y-72698060D01*
X153115698Y-72719039D01*
X153157785Y-72744265D01*
X153197197Y-72773495D01*
X153233553Y-72806447D01*
X153266505Y-72842803D01*
X153295735Y-72882215D01*
X153320961Y-72924302D01*
X153341940Y-72968658D01*
X153358470Y-73014858D01*
X153370393Y-73062455D01*
X153377592Y-73110991D01*
X153380000Y-73160000D01*
X153380000Y-74160000D01*
X153377592Y-74209009D01*
X153370393Y-74257545D01*
X153358470Y-74305142D01*
X153341940Y-74351342D01*
X153320961Y-74395698D01*
X153295735Y-74437785D01*
X153266505Y-74477197D01*
X153233553Y-74513553D01*
X153197197Y-74546505D01*
X153157785Y-74575735D01*
X153115698Y-74600961D01*
X153071342Y-74621940D01*
X153025142Y-74638470D01*
X152977545Y-74650393D01*
X152929009Y-74657592D01*
X152880000Y-74660000D01*
X151880000Y-74660000D01*
X151830991Y-74657592D01*
X151782455Y-74650393D01*
X151734858Y-74638470D01*
X151688658Y-74621940D01*
X151644302Y-74600961D01*
X151602215Y-74575735D01*
X151562803Y-74546505D01*
X151526447Y-74513553D01*
X151493495Y-74477197D01*
X151464265Y-74437785D01*
X151439039Y-74395698D01*
X151418060Y-74351342D01*
X151401530Y-74305142D01*
X151389607Y-74257545D01*
X151382408Y-74209009D01*
X151380000Y-74160000D01*
X151380000Y-73160000D01*
X151382408Y-73110991D01*
X151389607Y-73062455D01*
X151401530Y-73014858D01*
X151418060Y-72968658D01*
X151439039Y-72924302D01*
X151464265Y-72882215D01*
X151493495Y-72842803D01*
X151526447Y-72806447D01*
X151562803Y-72773495D01*
X151602215Y-72744265D01*
X151644302Y-72719039D01*
X151688658Y-72698060D01*
X151734858Y-72681530D01*
X151782455Y-72669607D01*
X151830991Y-72662408D01*
X151880000Y-72660000D01*
X152880000Y-72660000D01*
X152929009Y-72662408D01*
G37*
G04 #@! TD.AperFunction*
D19*
X148580000Y-61000000D03*
X166380000Y-50860000D03*
X166380000Y-58460000D03*
D20*
X162580000Y-73660000D03*
G04 #@! TA.AperFunction,ComponentPad*
D18*
G36*
X122449009Y-72662408D02*
G01*
X122497545Y-72669607D01*
X122545142Y-72681530D01*
X122591342Y-72698060D01*
X122635698Y-72719039D01*
X122677785Y-72744265D01*
X122717197Y-72773495D01*
X122753553Y-72806447D01*
X122786505Y-72842803D01*
X122815735Y-72882215D01*
X122840961Y-72924302D01*
X122861940Y-72968658D01*
X122878470Y-73014858D01*
X122890393Y-73062455D01*
X122897592Y-73110991D01*
X122900000Y-73160000D01*
X122900000Y-74160000D01*
X122897592Y-74209009D01*
X122890393Y-74257545D01*
X122878470Y-74305142D01*
X122861940Y-74351342D01*
X122840961Y-74395698D01*
X122815735Y-74437785D01*
X122786505Y-74477197D01*
X122753553Y-74513553D01*
X122717197Y-74546505D01*
X122677785Y-74575735D01*
X122635698Y-74600961D01*
X122591342Y-74621940D01*
X122545142Y-74638470D01*
X122497545Y-74650393D01*
X122449009Y-74657592D01*
X122400000Y-74660000D01*
X121400000Y-74660000D01*
X121350991Y-74657592D01*
X121302455Y-74650393D01*
X121254858Y-74638470D01*
X121208658Y-74621940D01*
X121164302Y-74600961D01*
X121122215Y-74575735D01*
X121082803Y-74546505D01*
X121046447Y-74513553D01*
X121013495Y-74477197D01*
X120984265Y-74437785D01*
X120959039Y-74395698D01*
X120938060Y-74351342D01*
X120921530Y-74305142D01*
X120909607Y-74257545D01*
X120902408Y-74209009D01*
X120900000Y-74160000D01*
X120900000Y-73160000D01*
X120902408Y-73110991D01*
X120909607Y-73062455D01*
X120921530Y-73014858D01*
X120938060Y-72968658D01*
X120959039Y-72924302D01*
X120984265Y-72882215D01*
X121013495Y-72842803D01*
X121046447Y-72806447D01*
X121082803Y-72773495D01*
X121122215Y-72744265D01*
X121164302Y-72719039D01*
X121208658Y-72698060D01*
X121254858Y-72681530D01*
X121302455Y-72669607D01*
X121350991Y-72662408D01*
X121400000Y-72660000D01*
X122400000Y-72660000D01*
X122449009Y-72662408D01*
G37*
G04 #@! TD.AperFunction*
D19*
X118100000Y-61000000D03*
X135900000Y-50860000D03*
X135900000Y-58460000D03*
D20*
X132100000Y-73660000D03*
G04 #@! TA.AperFunction,ComponentPad*
D18*
G36*
X91969009Y-72662408D02*
G01*
X92017545Y-72669607D01*
X92065142Y-72681530D01*
X92111342Y-72698060D01*
X92155698Y-72719039D01*
X92197785Y-72744265D01*
X92237197Y-72773495D01*
X92273553Y-72806447D01*
X92306505Y-72842803D01*
X92335735Y-72882215D01*
X92360961Y-72924302D01*
X92381940Y-72968658D01*
X92398470Y-73014858D01*
X92410393Y-73062455D01*
X92417592Y-73110991D01*
X92420000Y-73160000D01*
X92420000Y-74160000D01*
X92417592Y-74209009D01*
X92410393Y-74257545D01*
X92398470Y-74305142D01*
X92381940Y-74351342D01*
X92360961Y-74395698D01*
X92335735Y-74437785D01*
X92306505Y-74477197D01*
X92273553Y-74513553D01*
X92237197Y-74546505D01*
X92197785Y-74575735D01*
X92155698Y-74600961D01*
X92111342Y-74621940D01*
X92065142Y-74638470D01*
X92017545Y-74650393D01*
X91969009Y-74657592D01*
X91920000Y-74660000D01*
X90920000Y-74660000D01*
X90870991Y-74657592D01*
X90822455Y-74650393D01*
X90774858Y-74638470D01*
X90728658Y-74621940D01*
X90684302Y-74600961D01*
X90642215Y-74575735D01*
X90602803Y-74546505D01*
X90566447Y-74513553D01*
X90533495Y-74477197D01*
X90504265Y-74437785D01*
X90479039Y-74395698D01*
X90458060Y-74351342D01*
X90441530Y-74305142D01*
X90429607Y-74257545D01*
X90422408Y-74209009D01*
X90420000Y-74160000D01*
X90420000Y-73160000D01*
X90422408Y-73110991D01*
X90429607Y-73062455D01*
X90441530Y-73014858D01*
X90458060Y-72968658D01*
X90479039Y-72924302D01*
X90504265Y-72882215D01*
X90533495Y-72842803D01*
X90566447Y-72806447D01*
X90602803Y-72773495D01*
X90642215Y-72744265D01*
X90684302Y-72719039D01*
X90728658Y-72698060D01*
X90774858Y-72681530D01*
X90822455Y-72669607D01*
X90870991Y-72662408D01*
X90920000Y-72660000D01*
X91920000Y-72660000D01*
X91969009Y-72662408D01*
G37*
G04 #@! TD.AperFunction*
D19*
X87620000Y-61000000D03*
X105420000Y-50860000D03*
X105420000Y-58460000D03*
D20*
X101620000Y-73660000D03*
G04 #@! TA.AperFunction,ComponentPad*
D18*
G36*
X61489009Y-72662408D02*
G01*
X61537545Y-72669607D01*
X61585142Y-72681530D01*
X61631342Y-72698060D01*
X61675698Y-72719039D01*
X61717785Y-72744265D01*
X61757197Y-72773495D01*
X61793553Y-72806447D01*
X61826505Y-72842803D01*
X61855735Y-72882215D01*
X61880961Y-72924302D01*
X61901940Y-72968658D01*
X61918470Y-73014858D01*
X61930393Y-73062455D01*
X61937592Y-73110991D01*
X61940000Y-73160000D01*
X61940000Y-74160000D01*
X61937592Y-74209009D01*
X61930393Y-74257545D01*
X61918470Y-74305142D01*
X61901940Y-74351342D01*
X61880961Y-74395698D01*
X61855735Y-74437785D01*
X61826505Y-74477197D01*
X61793553Y-74513553D01*
X61757197Y-74546505D01*
X61717785Y-74575735D01*
X61675698Y-74600961D01*
X61631342Y-74621940D01*
X61585142Y-74638470D01*
X61537545Y-74650393D01*
X61489009Y-74657592D01*
X61440000Y-74660000D01*
X60440000Y-74660000D01*
X60390991Y-74657592D01*
X60342455Y-74650393D01*
X60294858Y-74638470D01*
X60248658Y-74621940D01*
X60204302Y-74600961D01*
X60162215Y-74575735D01*
X60122803Y-74546505D01*
X60086447Y-74513553D01*
X60053495Y-74477197D01*
X60024265Y-74437785D01*
X59999039Y-74395698D01*
X59978060Y-74351342D01*
X59961530Y-74305142D01*
X59949607Y-74257545D01*
X59942408Y-74209009D01*
X59940000Y-74160000D01*
X59940000Y-73160000D01*
X59942408Y-73110991D01*
X59949607Y-73062455D01*
X59961530Y-73014858D01*
X59978060Y-72968658D01*
X59999039Y-72924302D01*
X60024265Y-72882215D01*
X60053495Y-72842803D01*
X60086447Y-72806447D01*
X60122803Y-72773495D01*
X60162215Y-72744265D01*
X60204302Y-72719039D01*
X60248658Y-72698060D01*
X60294858Y-72681530D01*
X60342455Y-72669607D01*
X60390991Y-72662408D01*
X60440000Y-72660000D01*
X61440000Y-72660000D01*
X61489009Y-72662408D01*
G37*
G04 #@! TD.AperFunction*
D19*
X57140000Y-61000000D03*
X74940000Y-50860000D03*
X74940000Y-58460000D03*
D20*
X71140000Y-73660000D03*
G04 #@! TA.AperFunction,ComponentPad*
D18*
G36*
X31009009Y-72662408D02*
G01*
X31057545Y-72669607D01*
X31105142Y-72681530D01*
X31151342Y-72698060D01*
X31195698Y-72719039D01*
X31237785Y-72744265D01*
X31277197Y-72773495D01*
X31313553Y-72806447D01*
X31346505Y-72842803D01*
X31375735Y-72882215D01*
X31400961Y-72924302D01*
X31421940Y-72968658D01*
X31438470Y-73014858D01*
X31450393Y-73062455D01*
X31457592Y-73110991D01*
X31460000Y-73160000D01*
X31460000Y-74160000D01*
X31457592Y-74209009D01*
X31450393Y-74257545D01*
X31438470Y-74305142D01*
X31421940Y-74351342D01*
X31400961Y-74395698D01*
X31375735Y-74437785D01*
X31346505Y-74477197D01*
X31313553Y-74513553D01*
X31277197Y-74546505D01*
X31237785Y-74575735D01*
X31195698Y-74600961D01*
X31151342Y-74621940D01*
X31105142Y-74638470D01*
X31057545Y-74650393D01*
X31009009Y-74657592D01*
X30960000Y-74660000D01*
X29960000Y-74660000D01*
X29910991Y-74657592D01*
X29862455Y-74650393D01*
X29814858Y-74638470D01*
X29768658Y-74621940D01*
X29724302Y-74600961D01*
X29682215Y-74575735D01*
X29642803Y-74546505D01*
X29606447Y-74513553D01*
X29573495Y-74477197D01*
X29544265Y-74437785D01*
X29519039Y-74395698D01*
X29498060Y-74351342D01*
X29481530Y-74305142D01*
X29469607Y-74257545D01*
X29462408Y-74209009D01*
X29460000Y-74160000D01*
X29460000Y-73160000D01*
X29462408Y-73110991D01*
X29469607Y-73062455D01*
X29481530Y-73014858D01*
X29498060Y-72968658D01*
X29519039Y-72924302D01*
X29544265Y-72882215D01*
X29573495Y-72842803D01*
X29606447Y-72806447D01*
X29642803Y-72773495D01*
X29682215Y-72744265D01*
X29724302Y-72719039D01*
X29768658Y-72698060D01*
X29814858Y-72681530D01*
X29862455Y-72669607D01*
X29910991Y-72662408D01*
X29960000Y-72660000D01*
X30960000Y-72660000D01*
X31009009Y-72662408D01*
G37*
G04 #@! TD.AperFunction*
D19*
X26660000Y-61000000D03*
X44460000Y-50860000D03*
X44460000Y-58460000D03*
D20*
X40660000Y-73660000D03*
D14*
X185420000Y-143510000D03*
D15*
X185420000Y-133350000D03*
D21*
X62230000Y-174070000D03*
D22*
X62230000Y-179070000D03*
D21*
X62230000Y-153750000D03*
D22*
X62230000Y-158750000D03*
D21*
X62230000Y-133430000D03*
D22*
X62230000Y-138430000D03*
D21*
X36830000Y-174070000D03*
D22*
X36830000Y-179070000D03*
D21*
X36830000Y-153750000D03*
D22*
X36830000Y-158750000D03*
D21*
X36830000Y-133430000D03*
D22*
X36830000Y-138430000D03*
D23*
X182880000Y-114300000D03*
D24*
X182880000Y-111760000D03*
D23*
X152400000Y-114300000D03*
D24*
X152400000Y-111760000D03*
D23*
X121920000Y-114300000D03*
D24*
X121920000Y-111760000D03*
D23*
X91440000Y-114300000D03*
D24*
X91440000Y-111760000D03*
D23*
X60960000Y-114300000D03*
D24*
X60960000Y-111760000D03*
D23*
X30480000Y-114300000D03*
D24*
X30480000Y-111760000D03*
D25*
X182880000Y-88900000D03*
D26*
X193040000Y-88900000D03*
D25*
X152400000Y-88900000D03*
D26*
X162560000Y-88900000D03*
D25*
X121920000Y-88900000D03*
D26*
X132080000Y-88900000D03*
D25*
X91440000Y-88900000D03*
D26*
X101600000Y-88900000D03*
D25*
X60960000Y-88900000D03*
D26*
X71120000Y-88900000D03*
D25*
X30480000Y-88900000D03*
D26*
X40640000Y-88900000D03*
D20*
X172720000Y-128270000D03*
X161290000Y-139700000D03*
X115570000Y-135890000D03*
X135890000Y-135890000D03*
X104140000Y-135890000D03*
D27*
X30480000Y-114300000D02*
X39370000Y-114300000D01*
X39370000Y-114300000D02*
X54610000Y-114300000D01*
X54610000Y-114300000D02*
X74930000Y-134620000D01*
X99060000Y-134620000D02*
X101600000Y-132080000D01*
X74930000Y-134620000D02*
X99060000Y-134620000D01*
X60960000Y-114300000D02*
X71120000Y-114300000D01*
X86360000Y-114300000D02*
X101600000Y-129540000D01*
X71120000Y-114300000D02*
X86360000Y-114300000D01*
X91440000Y-114300000D02*
X101600000Y-114300000D01*
X161290000Y-139700000D02*
X172720000Y-128270000D01*
X132080000Y-114300000D02*
X121920000Y-114300000D01*
X121920000Y-114300000D02*
X106680000Y-129540000D01*
X163830000Y-114300000D02*
X152400000Y-114300000D01*
X152400000Y-114300000D02*
X137160000Y-114300000D01*
X137160000Y-114300000D02*
X133350000Y-118110000D01*
X120650000Y-118110000D02*
X109220000Y-129540000D01*
X133350000Y-118110000D02*
X120650000Y-118110000D01*
X193040000Y-114300000D02*
X182880000Y-114300000D01*
X115570000Y-135890000D02*
X104140000Y-135890000D01*
X104140000Y-135890000D02*
X104140000Y-132080000D01*
X161290000Y-135890000D02*
X135890000Y-135890000D01*
X182880000Y-114300000D02*
X161290000Y-135890000D01*
D28*
X123190000Y-133350000D02*
X124460000Y-132080000D01*
D27*
X74930000Y-139700000D02*
X116840000Y-139700000D01*
X64770000Y-129540000D02*
X74930000Y-139700000D01*
X116840000Y-139700000D02*
X123190000Y-133350000D01*
X57150000Y-129540000D02*
X64770000Y-129540000D01*
X53260000Y-133430000D02*
X57150000Y-129540000D01*
X36830000Y-133430000D02*
X53260000Y-133430000D01*
X36830000Y-152510000D02*
X58530000Y-130810000D01*
D28*
X36830000Y-153750000D02*
X36830000Y-152510000D01*
D27*
X58530000Y-130810000D02*
X63500000Y-130810000D01*
X63500000Y-130810000D02*
X73660000Y-140970000D01*
X118110000Y-140970000D02*
X127000000Y-132080000D01*
X73660000Y-140970000D02*
X118110000Y-140970000D01*
D28*
X36830000Y-174070000D02*
X36830000Y-173990000D01*
D27*
X133350000Y-123190000D02*
X127000000Y-129540000D01*
X179070000Y-109220000D02*
X165100000Y-123190000D01*
X106680000Y-148590000D02*
X187960000Y-148590000D01*
X72390000Y-182880000D02*
X106680000Y-148590000D01*
X200660000Y-109220000D02*
X179070000Y-109220000D01*
X48120000Y-182880000D02*
X72390000Y-182880000D01*
X165100000Y-123190000D02*
X133350000Y-123190000D01*
X39310000Y-174070000D02*
X48120000Y-182880000D01*
X36830000Y-174070000D02*
X39310000Y-174070000D01*
X187960000Y-148590000D02*
X201930000Y-134620000D01*
X201930000Y-134620000D02*
X201930000Y-110490000D01*
X201930000Y-110490000D02*
X200660000Y-109220000D01*
X119380000Y-142240000D02*
X129540000Y-132080000D01*
X73270000Y-142240000D02*
X74930000Y-142240000D01*
X64460000Y-133430000D02*
X73270000Y-142240000D01*
X74930000Y-142240000D02*
X119380000Y-142240000D01*
D28*
X62230000Y-133430000D02*
X64460000Y-133430000D01*
D27*
X163830000Y-120650000D02*
X123190000Y-120650000D01*
X200660000Y-106680000D02*
X177800000Y-106680000D01*
X62230000Y-153750000D02*
X64710000Y-153750000D01*
X177800000Y-106680000D02*
X163830000Y-120650000D01*
X73660000Y-184150000D02*
X107950000Y-149860000D01*
X69850000Y-158890000D02*
X69850000Y-171450000D01*
X123190000Y-120650000D02*
X114300000Y-129540000D01*
X34290000Y-168910000D02*
X27940000Y-175260000D01*
X27940000Y-179070000D02*
X33020000Y-184150000D01*
X69850000Y-171450000D02*
X64770000Y-176530000D01*
X64770000Y-176530000D02*
X50800000Y-176530000D01*
X64710000Y-153750000D02*
X69850000Y-158890000D01*
X50800000Y-176530000D02*
X43180000Y-168910000D01*
X43180000Y-168910000D02*
X34290000Y-168910000D01*
X27940000Y-175260000D02*
X27940000Y-179070000D01*
X33020000Y-184150000D02*
X73660000Y-184150000D01*
X107950000Y-149860000D02*
X189230000Y-149860000D01*
X189230000Y-149860000D02*
X203200000Y-135890000D01*
X203200000Y-135890000D02*
X203200000Y-109220000D01*
X203200000Y-109220000D02*
X200660000Y-106680000D01*
D28*
X62230000Y-174070000D02*
X62230000Y-172830000D01*
D27*
X57150000Y-144780000D02*
X121920000Y-144780000D01*
X52070000Y-149860000D02*
X57150000Y-144780000D01*
X52070000Y-162420000D02*
X52070000Y-149860000D01*
X62230000Y-172580000D02*
X52070000Y-162420000D01*
X121920000Y-144780000D02*
X134125019Y-132574981D01*
X62230000Y-174070000D02*
X62230000Y-172580000D01*
M02*
